%TF.GenerationSoftware,KiCad,Pcbnew,5.1.12-84ad8e8a86~92~ubuntu20.04.1*%
%TF.CreationDate,2022-08-01T12:29:38-07:00*%
%TF.ProjectId,LoRaXcvr_R2,4c6f5261-5863-4767-925f-52322e6b6963,rev?*%
%TF.SameCoordinates,Original*%
%TF.FileFunction,Copper,L1,Top*%
%TF.FilePolarity,Positive*%
%FSLAX46Y46*%
G04 Gerber Fmt 4.6, Leading zero omitted, Abs format (unit mm)*
G04 Created by KiCad (PCBNEW 5.1.12-84ad8e8a86~92~ubuntu20.04.1) date 2022-08-01 12:29:38*
%MOMM*%
%LPD*%
G01*
G04 APERTURE LIST*
%TA.AperFunction,ComponentPad*%
%ADD10R,1.700000X1.700000*%
%TD*%
%TA.AperFunction,ComponentPad*%
%ADD11O,1.700000X1.700000*%
%TD*%
%TA.AperFunction,SMDPad,CuDef*%
%ADD12R,1.000000X1.000000*%
%TD*%
%TA.AperFunction,SMDPad,CuDef*%
%ADD13R,2.200000X1.000000*%
%TD*%
%TA.AperFunction,ComponentPad*%
%ADD14R,2.100000X2.100000*%
%TD*%
%TA.AperFunction,ComponentPad*%
%ADD15C,2.100000*%
%TD*%
%TA.AperFunction,SMDPad,CuDef*%
%ADD16R,2.000000X7.875000*%
%TD*%
%TA.AperFunction,SMDPad,CuDef*%
%ADD17R,1.000000X2.200000*%
%TD*%
%TA.AperFunction,SMDPad,CuDef*%
%ADD18R,3.400000X1.800000*%
%TD*%
%TA.AperFunction,SMDPad,CuDef*%
%ADD19R,1.000000X2.800000*%
%TD*%
%TA.AperFunction,SMDPad,CuDef*%
%ADD20R,2.000000X1.000000*%
%TD*%
%TA.AperFunction,SMDPad,CuDef*%
%ADD21R,1.560000X0.650000*%
%TD*%
%TA.AperFunction,SMDPad,CuDef*%
%ADD22R,1.300000X1.900000*%
%TD*%
%TA.AperFunction,SMDPad,CuDef*%
%ADD23R,0.900000X0.800000*%
%TD*%
%TA.AperFunction,SMDPad,CuDef*%
%ADD24R,0.800000X0.900000*%
%TD*%
%TA.AperFunction,ComponentPad*%
%ADD25C,1.000000*%
%TD*%
%TA.AperFunction,ViaPad*%
%ADD26C,0.800000*%
%TD*%
%TA.AperFunction,Conductor*%
%ADD27C,0.250000*%
%TD*%
%TA.AperFunction,Conductor*%
%ADD28C,1.016000*%
%TD*%
%TA.AperFunction,Conductor*%
%ADD29C,0.508000*%
%TD*%
G04 APERTURE END LIST*
%TO.P,U4,1*%
%TO.N,+3V3*%
%TA.AperFunction,SMDPad,CuDef*%
G36*
G01*
X143563000Y-68572000D02*
X143563000Y-68422000D01*
G75*
G02*
X143638000Y-68347000I75000J0D01*
G01*
X144963000Y-68347000D01*
G75*
G02*
X145038000Y-68422000I0J-75000D01*
G01*
X145038000Y-68572000D01*
G75*
G02*
X144963000Y-68647000I-75000J0D01*
G01*
X143638000Y-68647000D01*
G75*
G02*
X143563000Y-68572000I0J75000D01*
G01*
G37*
%TD.AperFunction*%
%TO.P,U4,2*%
%TO.N,/LED0*%
%TA.AperFunction,SMDPad,CuDef*%
G36*
G01*
X143563000Y-69072000D02*
X143563000Y-68922000D01*
G75*
G02*
X143638000Y-68847000I75000J0D01*
G01*
X144963000Y-68847000D01*
G75*
G02*
X145038000Y-68922000I0J-75000D01*
G01*
X145038000Y-69072000D01*
G75*
G02*
X144963000Y-69147000I-75000J0D01*
G01*
X143638000Y-69147000D01*
G75*
G02*
X143563000Y-69072000I0J75000D01*
G01*
G37*
%TD.AperFunction*%
%TO.P,U4,3*%
%TO.N,/CLK32K0*%
%TA.AperFunction,SMDPad,CuDef*%
G36*
G01*
X143563000Y-69572000D02*
X143563000Y-69422000D01*
G75*
G02*
X143638000Y-69347000I75000J0D01*
G01*
X144963000Y-69347000D01*
G75*
G02*
X145038000Y-69422000I0J-75000D01*
G01*
X145038000Y-69572000D01*
G75*
G02*
X144963000Y-69647000I-75000J0D01*
G01*
X143638000Y-69647000D01*
G75*
G02*
X143563000Y-69572000I0J75000D01*
G01*
G37*
%TD.AperFunction*%
%TO.P,U4,4*%
%TO.N,/CLK32K1*%
%TA.AperFunction,SMDPad,CuDef*%
G36*
G01*
X143563000Y-70072000D02*
X143563000Y-69922000D01*
G75*
G02*
X143638000Y-69847000I75000J0D01*
G01*
X144963000Y-69847000D01*
G75*
G02*
X145038000Y-69922000I0J-75000D01*
G01*
X145038000Y-70072000D01*
G75*
G02*
X144963000Y-70147000I-75000J0D01*
G01*
X143638000Y-70147000D01*
G75*
G02*
X143563000Y-70072000I0J75000D01*
G01*
G37*
%TD.AperFunction*%
%TO.P,U4,5*%
%TO.N,/CLKPH0*%
%TA.AperFunction,SMDPad,CuDef*%
G36*
G01*
X143563000Y-70572000D02*
X143563000Y-70422000D01*
G75*
G02*
X143638000Y-70347000I75000J0D01*
G01*
X144963000Y-70347000D01*
G75*
G02*
X145038000Y-70422000I0J-75000D01*
G01*
X145038000Y-70572000D01*
G75*
G02*
X144963000Y-70647000I-75000J0D01*
G01*
X143638000Y-70647000D01*
G75*
G02*
X143563000Y-70572000I0J75000D01*
G01*
G37*
%TD.AperFunction*%
%TO.P,U4,6*%
%TO.N,/CLKPH1*%
%TA.AperFunction,SMDPad,CuDef*%
G36*
G01*
X143563000Y-71072000D02*
X143563000Y-70922000D01*
G75*
G02*
X143638000Y-70847000I75000J0D01*
G01*
X144963000Y-70847000D01*
G75*
G02*
X145038000Y-70922000I0J-75000D01*
G01*
X145038000Y-71072000D01*
G75*
G02*
X144963000Y-71147000I-75000J0D01*
G01*
X143638000Y-71147000D01*
G75*
G02*
X143563000Y-71072000I0J75000D01*
G01*
G37*
%TD.AperFunction*%
%TO.P,U4,7*%
%TO.N,/NRST*%
%TA.AperFunction,SMDPad,CuDef*%
G36*
G01*
X143563000Y-71572000D02*
X143563000Y-71422000D01*
G75*
G02*
X143638000Y-71347000I75000J0D01*
G01*
X144963000Y-71347000D01*
G75*
G02*
X145038000Y-71422000I0J-75000D01*
G01*
X145038000Y-71572000D01*
G75*
G02*
X144963000Y-71647000I-75000J0D01*
G01*
X143638000Y-71647000D01*
G75*
G02*
X143563000Y-71572000I0J75000D01*
G01*
G37*
%TD.AperFunction*%
%TO.P,U4,8*%
%TO.N,GND*%
%TA.AperFunction,SMDPad,CuDef*%
G36*
G01*
X143563000Y-72072000D02*
X143563000Y-71922000D01*
G75*
G02*
X143638000Y-71847000I75000J0D01*
G01*
X144963000Y-71847000D01*
G75*
G02*
X145038000Y-71922000I0J-75000D01*
G01*
X145038000Y-72072000D01*
G75*
G02*
X144963000Y-72147000I-75000J0D01*
G01*
X143638000Y-72147000D01*
G75*
G02*
X143563000Y-72072000I0J75000D01*
G01*
G37*
%TD.AperFunction*%
%TO.P,U4,9*%
%TO.N,+3.3VADC*%
%TA.AperFunction,SMDPad,CuDef*%
G36*
G01*
X143563000Y-72572000D02*
X143563000Y-72422000D01*
G75*
G02*
X143638000Y-72347000I75000J0D01*
G01*
X144963000Y-72347000D01*
G75*
G02*
X145038000Y-72422000I0J-75000D01*
G01*
X145038000Y-72572000D01*
G75*
G02*
X144963000Y-72647000I-75000J0D01*
G01*
X143638000Y-72647000D01*
G75*
G02*
X143563000Y-72572000I0J75000D01*
G01*
G37*
%TD.AperFunction*%
%TO.P,U4,10*%
%TO.N,/PA0*%
%TA.AperFunction,SMDPad,CuDef*%
G36*
G01*
X143563000Y-73072000D02*
X143563000Y-72922000D01*
G75*
G02*
X143638000Y-72847000I75000J0D01*
G01*
X144963000Y-72847000D01*
G75*
G02*
X145038000Y-72922000I0J-75000D01*
G01*
X145038000Y-73072000D01*
G75*
G02*
X144963000Y-73147000I-75000J0D01*
G01*
X143638000Y-73147000D01*
G75*
G02*
X143563000Y-73072000I0J75000D01*
G01*
G37*
%TD.AperFunction*%
%TO.P,U4,11*%
%TO.N,/PA1*%
%TA.AperFunction,SMDPad,CuDef*%
G36*
G01*
X143563000Y-73572000D02*
X143563000Y-73422000D01*
G75*
G02*
X143638000Y-73347000I75000J0D01*
G01*
X144963000Y-73347000D01*
G75*
G02*
X145038000Y-73422000I0J-75000D01*
G01*
X145038000Y-73572000D01*
G75*
G02*
X144963000Y-73647000I-75000J0D01*
G01*
X143638000Y-73647000D01*
G75*
G02*
X143563000Y-73572000I0J75000D01*
G01*
G37*
%TD.AperFunction*%
%TO.P,U4,12*%
%TO.N,/PA2*%
%TA.AperFunction,SMDPad,CuDef*%
G36*
G01*
X143563000Y-74072000D02*
X143563000Y-73922000D01*
G75*
G02*
X143638000Y-73847000I75000J0D01*
G01*
X144963000Y-73847000D01*
G75*
G02*
X145038000Y-73922000I0J-75000D01*
G01*
X145038000Y-74072000D01*
G75*
G02*
X144963000Y-74147000I-75000J0D01*
G01*
X143638000Y-74147000D01*
G75*
G02*
X143563000Y-74072000I0J75000D01*
G01*
G37*
%TD.AperFunction*%
%TO.P,U4,13*%
%TO.N,/PA3*%
%TA.AperFunction,SMDPad,CuDef*%
G36*
G01*
X145563000Y-76072000D02*
X145563000Y-74747000D01*
G75*
G02*
X145638000Y-74672000I75000J0D01*
G01*
X145788000Y-74672000D01*
G75*
G02*
X145863000Y-74747000I0J-75000D01*
G01*
X145863000Y-76072000D01*
G75*
G02*
X145788000Y-76147000I-75000J0D01*
G01*
X145638000Y-76147000D01*
G75*
G02*
X145563000Y-76072000I0J75000D01*
G01*
G37*
%TD.AperFunction*%
%TO.P,U4,14*%
%TO.N,/DAC_OUT1*%
%TA.AperFunction,SMDPad,CuDef*%
G36*
G01*
X146063000Y-76072000D02*
X146063000Y-74747000D01*
G75*
G02*
X146138000Y-74672000I75000J0D01*
G01*
X146288000Y-74672000D01*
G75*
G02*
X146363000Y-74747000I0J-75000D01*
G01*
X146363000Y-76072000D01*
G75*
G02*
X146288000Y-76147000I-75000J0D01*
G01*
X146138000Y-76147000D01*
G75*
G02*
X146063000Y-76072000I0J75000D01*
G01*
G37*
%TD.AperFunction*%
%TO.P,U4,15*%
%TO.N,/DAC_OUT2*%
%TA.AperFunction,SMDPad,CuDef*%
G36*
G01*
X146563000Y-76072000D02*
X146563000Y-74747000D01*
G75*
G02*
X146638000Y-74672000I75000J0D01*
G01*
X146788000Y-74672000D01*
G75*
G02*
X146863000Y-74747000I0J-75000D01*
G01*
X146863000Y-76072000D01*
G75*
G02*
X146788000Y-76147000I-75000J0D01*
G01*
X146638000Y-76147000D01*
G75*
G02*
X146563000Y-76072000I0J75000D01*
G01*
G37*
%TD.AperFunction*%
%TO.P,U4,16*%
%TO.N,/ADC_IN6*%
%TA.AperFunction,SMDPad,CuDef*%
G36*
G01*
X147063000Y-76072000D02*
X147063000Y-74747000D01*
G75*
G02*
X147138000Y-74672000I75000J0D01*
G01*
X147288000Y-74672000D01*
G75*
G02*
X147363000Y-74747000I0J-75000D01*
G01*
X147363000Y-76072000D01*
G75*
G02*
X147288000Y-76147000I-75000J0D01*
G01*
X147138000Y-76147000D01*
G75*
G02*
X147063000Y-76072000I0J75000D01*
G01*
G37*
%TD.AperFunction*%
%TO.P,U4,17*%
%TO.N,/ADC_IN7*%
%TA.AperFunction,SMDPad,CuDef*%
G36*
G01*
X147563000Y-76072000D02*
X147563000Y-74747000D01*
G75*
G02*
X147638000Y-74672000I75000J0D01*
G01*
X147788000Y-74672000D01*
G75*
G02*
X147863000Y-74747000I0J-75000D01*
G01*
X147863000Y-76072000D01*
G75*
G02*
X147788000Y-76147000I-75000J0D01*
G01*
X147638000Y-76147000D01*
G75*
G02*
X147563000Y-76072000I0J75000D01*
G01*
G37*
%TD.AperFunction*%
%TO.P,U4,18*%
%TO.N,/ADC_IN8*%
%TA.AperFunction,SMDPad,CuDef*%
G36*
G01*
X148063000Y-76072000D02*
X148063000Y-74747000D01*
G75*
G02*
X148138000Y-74672000I75000J0D01*
G01*
X148288000Y-74672000D01*
G75*
G02*
X148363000Y-74747000I0J-75000D01*
G01*
X148363000Y-76072000D01*
G75*
G02*
X148288000Y-76147000I-75000J0D01*
G01*
X148138000Y-76147000D01*
G75*
G02*
X148063000Y-76072000I0J75000D01*
G01*
G37*
%TD.AperFunction*%
%TO.P,U4,19*%
%TO.N,/ADC_IN9*%
%TA.AperFunction,SMDPad,CuDef*%
G36*
G01*
X148563000Y-76072000D02*
X148563000Y-74747000D01*
G75*
G02*
X148638000Y-74672000I75000J0D01*
G01*
X148788000Y-74672000D01*
G75*
G02*
X148863000Y-74747000I0J-75000D01*
G01*
X148863000Y-76072000D01*
G75*
G02*
X148788000Y-76147000I-75000J0D01*
G01*
X148638000Y-76147000D01*
G75*
G02*
X148563000Y-76072000I0J75000D01*
G01*
G37*
%TD.AperFunction*%
%TO.P,U4,20*%
%TO.N,/BOOT1*%
%TA.AperFunction,SMDPad,CuDef*%
G36*
G01*
X149063000Y-76072000D02*
X149063000Y-74747000D01*
G75*
G02*
X149138000Y-74672000I75000J0D01*
G01*
X149288000Y-74672000D01*
G75*
G02*
X149363000Y-74747000I0J-75000D01*
G01*
X149363000Y-76072000D01*
G75*
G02*
X149288000Y-76147000I-75000J0D01*
G01*
X149138000Y-76147000D01*
G75*
G02*
X149063000Y-76072000I0J75000D01*
G01*
G37*
%TD.AperFunction*%
%TO.P,U4,21*%
%TO.N,/PB10*%
%TA.AperFunction,SMDPad,CuDef*%
G36*
G01*
X149563000Y-76072000D02*
X149563000Y-74747000D01*
G75*
G02*
X149638000Y-74672000I75000J0D01*
G01*
X149788000Y-74672000D01*
G75*
G02*
X149863000Y-74747000I0J-75000D01*
G01*
X149863000Y-76072000D01*
G75*
G02*
X149788000Y-76147000I-75000J0D01*
G01*
X149638000Y-76147000D01*
G75*
G02*
X149563000Y-76072000I0J75000D01*
G01*
G37*
%TD.AperFunction*%
%TO.P,U4,22*%
%TO.N,/PB11*%
%TA.AperFunction,SMDPad,CuDef*%
G36*
G01*
X150063000Y-76072000D02*
X150063000Y-74747000D01*
G75*
G02*
X150138000Y-74672000I75000J0D01*
G01*
X150288000Y-74672000D01*
G75*
G02*
X150363000Y-74747000I0J-75000D01*
G01*
X150363000Y-76072000D01*
G75*
G02*
X150288000Y-76147000I-75000J0D01*
G01*
X150138000Y-76147000D01*
G75*
G02*
X150063000Y-76072000I0J75000D01*
G01*
G37*
%TD.AperFunction*%
%TO.P,U4,23*%
%TO.N,GND*%
%TA.AperFunction,SMDPad,CuDef*%
G36*
G01*
X150563000Y-76072000D02*
X150563000Y-74747000D01*
G75*
G02*
X150638000Y-74672000I75000J0D01*
G01*
X150788000Y-74672000D01*
G75*
G02*
X150863000Y-74747000I0J-75000D01*
G01*
X150863000Y-76072000D01*
G75*
G02*
X150788000Y-76147000I-75000J0D01*
G01*
X150638000Y-76147000D01*
G75*
G02*
X150563000Y-76072000I0J75000D01*
G01*
G37*
%TD.AperFunction*%
%TO.P,U4,24*%
%TO.N,+3V3*%
%TA.AperFunction,SMDPad,CuDef*%
G36*
G01*
X151063000Y-76072000D02*
X151063000Y-74747000D01*
G75*
G02*
X151138000Y-74672000I75000J0D01*
G01*
X151288000Y-74672000D01*
G75*
G02*
X151363000Y-74747000I0J-75000D01*
G01*
X151363000Y-76072000D01*
G75*
G02*
X151288000Y-76147000I-75000J0D01*
G01*
X151138000Y-76147000D01*
G75*
G02*
X151063000Y-76072000I0J75000D01*
G01*
G37*
%TD.AperFunction*%
%TO.P,U4,25*%
%TO.N,/PB12*%
%TA.AperFunction,SMDPad,CuDef*%
G36*
G01*
X151888000Y-74072000D02*
X151888000Y-73922000D01*
G75*
G02*
X151963000Y-73847000I75000J0D01*
G01*
X153288000Y-73847000D01*
G75*
G02*
X153363000Y-73922000I0J-75000D01*
G01*
X153363000Y-74072000D01*
G75*
G02*
X153288000Y-74147000I-75000J0D01*
G01*
X151963000Y-74147000D01*
G75*
G02*
X151888000Y-74072000I0J75000D01*
G01*
G37*
%TD.AperFunction*%
%TO.P,U4,26*%
%TO.N,/PB13*%
%TA.AperFunction,SMDPad,CuDef*%
G36*
G01*
X151888000Y-73572000D02*
X151888000Y-73422000D01*
G75*
G02*
X151963000Y-73347000I75000J0D01*
G01*
X153288000Y-73347000D01*
G75*
G02*
X153363000Y-73422000I0J-75000D01*
G01*
X153363000Y-73572000D01*
G75*
G02*
X153288000Y-73647000I-75000J0D01*
G01*
X151963000Y-73647000D01*
G75*
G02*
X151888000Y-73572000I0J75000D01*
G01*
G37*
%TD.AperFunction*%
%TO.P,U4,27*%
%TO.N,/PB14*%
%TA.AperFunction,SMDPad,CuDef*%
G36*
G01*
X151888000Y-73072000D02*
X151888000Y-72922000D01*
G75*
G02*
X151963000Y-72847000I75000J0D01*
G01*
X153288000Y-72847000D01*
G75*
G02*
X153363000Y-72922000I0J-75000D01*
G01*
X153363000Y-73072000D01*
G75*
G02*
X153288000Y-73147000I-75000J0D01*
G01*
X151963000Y-73147000D01*
G75*
G02*
X151888000Y-73072000I0J75000D01*
G01*
G37*
%TD.AperFunction*%
%TO.P,U4,28*%
%TO.N,/PB15*%
%TA.AperFunction,SMDPad,CuDef*%
G36*
G01*
X151888000Y-72572000D02*
X151888000Y-72422000D01*
G75*
G02*
X151963000Y-72347000I75000J0D01*
G01*
X153288000Y-72347000D01*
G75*
G02*
X153363000Y-72422000I0J-75000D01*
G01*
X153363000Y-72572000D01*
G75*
G02*
X153288000Y-72647000I-75000J0D01*
G01*
X151963000Y-72647000D01*
G75*
G02*
X151888000Y-72572000I0J75000D01*
G01*
G37*
%TD.AperFunction*%
%TO.P,U4,29*%
%TO.N,/NRST_LORA*%
%TA.AperFunction,SMDPad,CuDef*%
G36*
G01*
X151888000Y-72072000D02*
X151888000Y-71922000D01*
G75*
G02*
X151963000Y-71847000I75000J0D01*
G01*
X153288000Y-71847000D01*
G75*
G02*
X153363000Y-71922000I0J-75000D01*
G01*
X153363000Y-72072000D01*
G75*
G02*
X153288000Y-72147000I-75000J0D01*
G01*
X151963000Y-72147000D01*
G75*
G02*
X151888000Y-72072000I0J75000D01*
G01*
G37*
%TD.AperFunction*%
%TO.P,U4,30*%
%TO.N,/PA9*%
%TA.AperFunction,SMDPad,CuDef*%
G36*
G01*
X151888000Y-71572000D02*
X151888000Y-71422000D01*
G75*
G02*
X151963000Y-71347000I75000J0D01*
G01*
X153288000Y-71347000D01*
G75*
G02*
X153363000Y-71422000I0J-75000D01*
G01*
X153363000Y-71572000D01*
G75*
G02*
X153288000Y-71647000I-75000J0D01*
G01*
X151963000Y-71647000D01*
G75*
G02*
X151888000Y-71572000I0J75000D01*
G01*
G37*
%TD.AperFunction*%
%TO.P,U4,31*%
%TO.N,/PA10*%
%TA.AperFunction,SMDPad,CuDef*%
G36*
G01*
X151888000Y-71072000D02*
X151888000Y-70922000D01*
G75*
G02*
X151963000Y-70847000I75000J0D01*
G01*
X153288000Y-70847000D01*
G75*
G02*
X153363000Y-70922000I0J-75000D01*
G01*
X153363000Y-71072000D01*
G75*
G02*
X153288000Y-71147000I-75000J0D01*
G01*
X151963000Y-71147000D01*
G75*
G02*
X151888000Y-71072000I0J75000D01*
G01*
G37*
%TD.AperFunction*%
%TO.P,U4,32*%
%TO.N,/RX_DONE*%
%TA.AperFunction,SMDPad,CuDef*%
G36*
G01*
X151888000Y-70572000D02*
X151888000Y-70422000D01*
G75*
G02*
X151963000Y-70347000I75000J0D01*
G01*
X153288000Y-70347000D01*
G75*
G02*
X153363000Y-70422000I0J-75000D01*
G01*
X153363000Y-70572000D01*
G75*
G02*
X153288000Y-70647000I-75000J0D01*
G01*
X151963000Y-70647000D01*
G75*
G02*
X151888000Y-70572000I0J75000D01*
G01*
G37*
%TD.AperFunction*%
%TO.P,U4,33*%
%TO.N,/RX_TIMEOUT*%
%TA.AperFunction,SMDPad,CuDef*%
G36*
G01*
X151888000Y-70072000D02*
X151888000Y-69922000D01*
G75*
G02*
X151963000Y-69847000I75000J0D01*
G01*
X153288000Y-69847000D01*
G75*
G02*
X153363000Y-69922000I0J-75000D01*
G01*
X153363000Y-70072000D01*
G75*
G02*
X153288000Y-70147000I-75000J0D01*
G01*
X151963000Y-70147000D01*
G75*
G02*
X151888000Y-70072000I0J75000D01*
G01*
G37*
%TD.AperFunction*%
%TO.P,U4,34*%
%TO.N,/SWDIO*%
%TA.AperFunction,SMDPad,CuDef*%
G36*
G01*
X151888000Y-69572000D02*
X151888000Y-69422000D01*
G75*
G02*
X151963000Y-69347000I75000J0D01*
G01*
X153288000Y-69347000D01*
G75*
G02*
X153363000Y-69422000I0J-75000D01*
G01*
X153363000Y-69572000D01*
G75*
G02*
X153288000Y-69647000I-75000J0D01*
G01*
X151963000Y-69647000D01*
G75*
G02*
X151888000Y-69572000I0J75000D01*
G01*
G37*
%TD.AperFunction*%
%TO.P,U4,35*%
%TO.N,GND*%
%TA.AperFunction,SMDPad,CuDef*%
G36*
G01*
X151888000Y-69072000D02*
X151888000Y-68922000D01*
G75*
G02*
X151963000Y-68847000I75000J0D01*
G01*
X153288000Y-68847000D01*
G75*
G02*
X153363000Y-68922000I0J-75000D01*
G01*
X153363000Y-69072000D01*
G75*
G02*
X153288000Y-69147000I-75000J0D01*
G01*
X151963000Y-69147000D01*
G75*
G02*
X151888000Y-69072000I0J75000D01*
G01*
G37*
%TD.AperFunction*%
%TO.P,U4,36*%
%TO.N,+3V3*%
%TA.AperFunction,SMDPad,CuDef*%
G36*
G01*
X151888000Y-68572000D02*
X151888000Y-68422000D01*
G75*
G02*
X151963000Y-68347000I75000J0D01*
G01*
X153288000Y-68347000D01*
G75*
G02*
X153363000Y-68422000I0J-75000D01*
G01*
X153363000Y-68572000D01*
G75*
G02*
X153288000Y-68647000I-75000J0D01*
G01*
X151963000Y-68647000D01*
G75*
G02*
X151888000Y-68572000I0J75000D01*
G01*
G37*
%TD.AperFunction*%
%TO.P,U4,37*%
%TO.N,/SWCLK*%
%TA.AperFunction,SMDPad,CuDef*%
G36*
G01*
X151063000Y-67747000D02*
X151063000Y-66422000D01*
G75*
G02*
X151138000Y-66347000I75000J0D01*
G01*
X151288000Y-66347000D01*
G75*
G02*
X151363000Y-66422000I0J-75000D01*
G01*
X151363000Y-67747000D01*
G75*
G02*
X151288000Y-67822000I-75000J0D01*
G01*
X151138000Y-67822000D01*
G75*
G02*
X151063000Y-67747000I0J75000D01*
G01*
G37*
%TD.AperFunction*%
%TO.P,U4,38*%
%TO.N,/NSS1*%
%TA.AperFunction,SMDPad,CuDef*%
G36*
G01*
X150563000Y-67747000D02*
X150563000Y-66422000D01*
G75*
G02*
X150638000Y-66347000I75000J0D01*
G01*
X150788000Y-66347000D01*
G75*
G02*
X150863000Y-66422000I0J-75000D01*
G01*
X150863000Y-67747000D01*
G75*
G02*
X150788000Y-67822000I-75000J0D01*
G01*
X150638000Y-67822000D01*
G75*
G02*
X150563000Y-67747000I0J75000D01*
G01*
G37*
%TD.AperFunction*%
%TO.P,U4,39*%
%TO.N,/SCK1*%
%TA.AperFunction,SMDPad,CuDef*%
G36*
G01*
X150063000Y-67747000D02*
X150063000Y-66422000D01*
G75*
G02*
X150138000Y-66347000I75000J0D01*
G01*
X150288000Y-66347000D01*
G75*
G02*
X150363000Y-66422000I0J-75000D01*
G01*
X150363000Y-67747000D01*
G75*
G02*
X150288000Y-67822000I-75000J0D01*
G01*
X150138000Y-67822000D01*
G75*
G02*
X150063000Y-67747000I0J75000D01*
G01*
G37*
%TD.AperFunction*%
%TO.P,U4,40*%
%TO.N,/MISO1*%
%TA.AperFunction,SMDPad,CuDef*%
G36*
G01*
X149563000Y-67747000D02*
X149563000Y-66422000D01*
G75*
G02*
X149638000Y-66347000I75000J0D01*
G01*
X149788000Y-66347000D01*
G75*
G02*
X149863000Y-66422000I0J-75000D01*
G01*
X149863000Y-67747000D01*
G75*
G02*
X149788000Y-67822000I-75000J0D01*
G01*
X149638000Y-67822000D01*
G75*
G02*
X149563000Y-67747000I0J75000D01*
G01*
G37*
%TD.AperFunction*%
%TO.P,U4,41*%
%TO.N,/MOSI1*%
%TA.AperFunction,SMDPad,CuDef*%
G36*
G01*
X149063000Y-67747000D02*
X149063000Y-66422000D01*
G75*
G02*
X149138000Y-66347000I75000J0D01*
G01*
X149288000Y-66347000D01*
G75*
G02*
X149363000Y-66422000I0J-75000D01*
G01*
X149363000Y-67747000D01*
G75*
G02*
X149288000Y-67822000I-75000J0D01*
G01*
X149138000Y-67822000D01*
G75*
G02*
X149063000Y-67747000I0J75000D01*
G01*
G37*
%TD.AperFunction*%
%TO.P,U4,42*%
%TO.N,/UART1_TXD*%
%TA.AperFunction,SMDPad,CuDef*%
G36*
G01*
X148563000Y-67747000D02*
X148563000Y-66422000D01*
G75*
G02*
X148638000Y-66347000I75000J0D01*
G01*
X148788000Y-66347000D01*
G75*
G02*
X148863000Y-66422000I0J-75000D01*
G01*
X148863000Y-67747000D01*
G75*
G02*
X148788000Y-67822000I-75000J0D01*
G01*
X148638000Y-67822000D01*
G75*
G02*
X148563000Y-67747000I0J75000D01*
G01*
G37*
%TD.AperFunction*%
%TO.P,U4,43*%
%TO.N,/UART1_RXD*%
%TA.AperFunction,SMDPad,CuDef*%
G36*
G01*
X148063000Y-67747000D02*
X148063000Y-66422000D01*
G75*
G02*
X148138000Y-66347000I75000J0D01*
G01*
X148288000Y-66347000D01*
G75*
G02*
X148363000Y-66422000I0J-75000D01*
G01*
X148363000Y-67747000D01*
G75*
G02*
X148288000Y-67822000I-75000J0D01*
G01*
X148138000Y-67822000D01*
G75*
G02*
X148063000Y-67747000I0J75000D01*
G01*
G37*
%TD.AperFunction*%
%TO.P,U4,44*%
%TO.N,/BOOT0*%
%TA.AperFunction,SMDPad,CuDef*%
G36*
G01*
X147563000Y-67747000D02*
X147563000Y-66422000D01*
G75*
G02*
X147638000Y-66347000I75000J0D01*
G01*
X147788000Y-66347000D01*
G75*
G02*
X147863000Y-66422000I0J-75000D01*
G01*
X147863000Y-67747000D01*
G75*
G02*
X147788000Y-67822000I-75000J0D01*
G01*
X147638000Y-67822000D01*
G75*
G02*
X147563000Y-67747000I0J75000D01*
G01*
G37*
%TD.AperFunction*%
%TO.P,U4,45*%
%TO.N,/I2C1_SCL*%
%TA.AperFunction,SMDPad,CuDef*%
G36*
G01*
X147063000Y-67747000D02*
X147063000Y-66422000D01*
G75*
G02*
X147138000Y-66347000I75000J0D01*
G01*
X147288000Y-66347000D01*
G75*
G02*
X147363000Y-66422000I0J-75000D01*
G01*
X147363000Y-67747000D01*
G75*
G02*
X147288000Y-67822000I-75000J0D01*
G01*
X147138000Y-67822000D01*
G75*
G02*
X147063000Y-67747000I0J75000D01*
G01*
G37*
%TD.AperFunction*%
%TO.P,U4,46*%
%TO.N,/I2C1_SDA*%
%TA.AperFunction,SMDPad,CuDef*%
G36*
G01*
X146563000Y-67747000D02*
X146563000Y-66422000D01*
G75*
G02*
X146638000Y-66347000I75000J0D01*
G01*
X146788000Y-66347000D01*
G75*
G02*
X146863000Y-66422000I0J-75000D01*
G01*
X146863000Y-67747000D01*
G75*
G02*
X146788000Y-67822000I-75000J0D01*
G01*
X146638000Y-67822000D01*
G75*
G02*
X146563000Y-67747000I0J75000D01*
G01*
G37*
%TD.AperFunction*%
%TO.P,U4,47*%
%TO.N,GND*%
%TA.AperFunction,SMDPad,CuDef*%
G36*
G01*
X146063000Y-67747000D02*
X146063000Y-66422000D01*
G75*
G02*
X146138000Y-66347000I75000J0D01*
G01*
X146288000Y-66347000D01*
G75*
G02*
X146363000Y-66422000I0J-75000D01*
G01*
X146363000Y-67747000D01*
G75*
G02*
X146288000Y-67822000I-75000J0D01*
G01*
X146138000Y-67822000D01*
G75*
G02*
X146063000Y-67747000I0J75000D01*
G01*
G37*
%TD.AperFunction*%
%TO.P,U4,48*%
%TO.N,+3V3*%
%TA.AperFunction,SMDPad,CuDef*%
G36*
G01*
X145563000Y-67747000D02*
X145563000Y-66422000D01*
G75*
G02*
X145638000Y-66347000I75000J0D01*
G01*
X145788000Y-66347000D01*
G75*
G02*
X145863000Y-66422000I0J-75000D01*
G01*
X145863000Y-67747000D01*
G75*
G02*
X145788000Y-67822000I-75000J0D01*
G01*
X145638000Y-67822000D01*
G75*
G02*
X145563000Y-67747000I0J75000D01*
G01*
G37*
%TD.AperFunction*%
%TD*%
D10*
%TO.P,J8,1*%
%TO.N,+3V3*%
X148437600Y-44958000D03*
D11*
%TO.P,J8,2*%
%TO.N,/UART1_TXD*%
X145897600Y-44958000D03*
%TO.P,J8,3*%
%TO.N,/UART1_RXD*%
X143357600Y-44958000D03*
%TO.P,J8,4*%
%TO.N,GND*%
X140817600Y-44958000D03*
%TO.P,J8,5*%
%TO.N,/I2C1_SCL*%
X138277600Y-44958000D03*
%TO.P,J8,6*%
%TO.N,/I2C1_SDA*%
X135737600Y-44958000D03*
%TD*%
D10*
%TO.P,J10,1*%
%TO.N,/PB10*%
X125432820Y-92933520D03*
D11*
%TO.P,J10,2*%
%TO.N,/PB11*%
X122892820Y-92933520D03*
%TO.P,J10,3*%
%TO.N,/PB15*%
X120352820Y-92933520D03*
%TO.P,J10,4*%
%TO.N,/PB14*%
X117812820Y-92933520D03*
%TO.P,J10,5*%
%TO.N,/PB13*%
X115272820Y-92933520D03*
%TO.P,J10,6*%
%TO.N,/PB12*%
X112732820Y-92933520D03*
%TO.P,J10,7*%
%TO.N,GND*%
X110192820Y-92933520D03*
%TO.P,J10,8*%
%TO.N,+5V*%
X107652820Y-92933520D03*
%TD*%
D12*
%TO.P,AE1,1*%
%TO.N,Net-(AE1-Pad1)*%
X172998000Y-86892000D03*
D13*
%TO.P,AE1,2*%
%TO.N,GND*%
X174498000Y-85392000D03*
%TO.P,AE1,3*%
%TO.N,N/C*%
X174498000Y-88392000D03*
%TD*%
%TO.P,C1,1*%
%TO.N,Net-(C1-Pad1)*%
%TA.AperFunction,SMDPad,CuDef*%
G36*
G01*
X115152999Y-65022000D02*
X117003001Y-65022000D01*
G75*
G02*
X117253000Y-65271999I0J-249999D01*
G01*
X117253000Y-67022001D01*
G75*
G02*
X117003001Y-67272000I-249999J0D01*
G01*
X115152999Y-67272000D01*
G75*
G02*
X114903000Y-67022001I0J249999D01*
G01*
X114903000Y-65271999D01*
G75*
G02*
X115152999Y-65022000I249999J0D01*
G01*
G37*
%TD.AperFunction*%
%TO.P,C1,2*%
%TO.N,GND*%
%TA.AperFunction,SMDPad,CuDef*%
G36*
G01*
X115152999Y-70122000D02*
X117003001Y-70122000D01*
G75*
G02*
X117253000Y-70371999I0J-249999D01*
G01*
X117253000Y-72122001D01*
G75*
G02*
X117003001Y-72372000I-249999J0D01*
G01*
X115152999Y-72372000D01*
G75*
G02*
X114903000Y-72122001I0J249999D01*
G01*
X114903000Y-70371999D01*
G75*
G02*
X115152999Y-70122000I249999J0D01*
G01*
G37*
%TD.AperFunction*%
%TD*%
%TO.P,C6,2*%
%TO.N,GND*%
%TA.AperFunction,SMDPad,CuDef*%
G36*
G01*
X120078400Y-86972581D02*
X120078400Y-85122579D01*
G75*
G02*
X120328399Y-84872580I249999J0D01*
G01*
X122078401Y-84872580D01*
G75*
G02*
X122328400Y-85122579I0J-249999D01*
G01*
X122328400Y-86972581D01*
G75*
G02*
X122078401Y-87222580I-249999J0D01*
G01*
X120328399Y-87222580D01*
G75*
G02*
X120078400Y-86972581I0J249999D01*
G01*
G37*
%TD.AperFunction*%
%TO.P,C6,1*%
%TO.N,+5V*%
%TA.AperFunction,SMDPad,CuDef*%
G36*
G01*
X114978400Y-86972581D02*
X114978400Y-85122579D01*
G75*
G02*
X115228399Y-84872580I249999J0D01*
G01*
X116978401Y-84872580D01*
G75*
G02*
X117228400Y-85122579I0J-249999D01*
G01*
X117228400Y-86972581D01*
G75*
G02*
X116978401Y-87222580I-249999J0D01*
G01*
X115228399Y-87222580D01*
G75*
G02*
X114978400Y-86972581I0J249999D01*
G01*
G37*
%TD.AperFunction*%
%TD*%
%TO.P,C9,1*%
%TO.N,+3.3VADC*%
%TA.AperFunction,SMDPad,CuDef*%
G36*
G01*
X130876000Y-80854999D02*
X130876000Y-81705001D01*
G75*
G02*
X130626001Y-81955000I-249999J0D01*
G01*
X129550999Y-81955000D01*
G75*
G02*
X129301000Y-81705001I0J249999D01*
G01*
X129301000Y-80854999D01*
G75*
G02*
X129550999Y-80605000I249999J0D01*
G01*
X130626001Y-80605000D01*
G75*
G02*
X130876000Y-80854999I0J-249999D01*
G01*
G37*
%TD.AperFunction*%
%TO.P,C9,2*%
%TO.N,GND*%
%TA.AperFunction,SMDPad,CuDef*%
G36*
G01*
X128001000Y-80854999D02*
X128001000Y-81705001D01*
G75*
G02*
X127751001Y-81955000I-249999J0D01*
G01*
X126675999Y-81955000D01*
G75*
G02*
X126426000Y-81705001I0J249999D01*
G01*
X126426000Y-80854999D01*
G75*
G02*
X126675999Y-80605000I249999J0D01*
G01*
X127751001Y-80605000D01*
G75*
G02*
X128001000Y-80854999I0J-249999D01*
G01*
G37*
%TD.AperFunction*%
%TD*%
D14*
%TO.P,J1,1*%
%TO.N,/BATV6*%
X109474000Y-66167000D03*
D15*
%TO.P,J1,2*%
X109474000Y-68707000D03*
%TO.P,J1,3*%
%TO.N,GND*%
X109474000Y-71247000D03*
%TO.P,J1,4*%
X109474000Y-73787000D03*
%TD*%
D10*
%TO.P,J2,1*%
%TO.N,+3V3*%
X151356060Y-51305460D03*
D11*
%TO.P,J2,2*%
X153896060Y-51305460D03*
%TO.P,J2,3*%
%TO.N,Net-(J2-Pad3)*%
X151356060Y-53845460D03*
%TO.P,J2,4*%
%TO.N,Net-(J2-Pad4)*%
X153896060Y-53845460D03*
%TO.P,J2,5*%
%TO.N,GND*%
X151356060Y-56385460D03*
%TO.P,J2,6*%
X153896060Y-56385460D03*
%TD*%
D10*
%TO.P,J4,1*%
%TO.N,+3V3*%
X161825940Y-85877400D03*
D11*
%TO.P,J4,2*%
%TO.N,Net-(J3-Pad1)*%
X164365940Y-85877400D03*
%TD*%
D16*
%TO.P,Y1,1*%
%TO.N,/CLKPH0*%
X135001000Y-65690500D03*
%TO.P,Y1,2*%
%TO.N,/CLKPH1*%
X135001000Y-77565500D03*
%TD*%
%TO.P,C8,1*%
%TO.N,+3V3*%
%TA.AperFunction,SMDPad,CuDef*%
G36*
G01*
X122510999Y-76855500D02*
X123361001Y-76855500D01*
G75*
G02*
X123611000Y-77105499I0J-249999D01*
G01*
X123611000Y-78180501D01*
G75*
G02*
X123361001Y-78430500I-249999J0D01*
G01*
X122510999Y-78430500D01*
G75*
G02*
X122261000Y-78180501I0J249999D01*
G01*
X122261000Y-77105499D01*
G75*
G02*
X122510999Y-76855500I249999J0D01*
G01*
G37*
%TD.AperFunction*%
%TO.P,C8,2*%
%TO.N,GND*%
%TA.AperFunction,SMDPad,CuDef*%
G36*
G01*
X122510999Y-79730500D02*
X123361001Y-79730500D01*
G75*
G02*
X123611000Y-79980499I0J-249999D01*
G01*
X123611000Y-81055501D01*
G75*
G02*
X123361001Y-81305500I-249999J0D01*
G01*
X122510999Y-81305500D01*
G75*
G02*
X122261000Y-81055501I0J249999D01*
G01*
X122261000Y-79980499D01*
G75*
G02*
X122510999Y-79730500I249999J0D01*
G01*
G37*
%TD.AperFunction*%
%TD*%
D17*
%TO.P,U1,4*%
%TO.N,Net-(C1-Pad1)*%
X107310360Y-80409320D03*
%TO.P,U1,2*%
%TO.N,N/C*%
X110310360Y-80409320D03*
D18*
%TO.P,U1,5*%
%TO.N,GND*%
X109560360Y-86709320D03*
D17*
%TO.P,U1,3*%
%TO.N,+5V*%
X108810360Y-80409320D03*
%TO.P,U1,1*%
%TO.N,Net-(R6-Pad2)*%
X111810360Y-80409320D03*
%TD*%
D10*
%TO.P,J6,1*%
%TO.N,GND*%
X148292820Y-92964000D03*
D11*
%TO.P,J6,2*%
%TO.N,/ADC_IN9*%
X145752820Y-92964000D03*
%TO.P,J6,3*%
%TO.N,/ADC_IN8*%
X143212820Y-92964000D03*
%TO.P,J6,4*%
%TO.N,/ADC_IN7*%
X140672820Y-92964000D03*
%TO.P,J6,5*%
%TO.N,/ADC_IN6*%
X138132820Y-92964000D03*
%TO.P,J6,6*%
%TO.N,GND*%
X135592820Y-92964000D03*
%TO.P,J6,7*%
%TO.N,/DAC_OUT2*%
X133052820Y-92964000D03*
%TO.P,J6,8*%
%TO.N,/DAC_OUT1*%
X130512820Y-92964000D03*
%TD*%
D10*
%TO.P,J7,1*%
%TO.N,/NRST*%
X130566160Y-44886880D03*
D11*
%TO.P,J7,2*%
%TO.N,+3V3*%
X128026160Y-44886880D03*
%TO.P,J7,3*%
%TO.N,/PA10*%
X125486160Y-44886880D03*
%TO.P,J7,4*%
%TO.N,/PA9*%
X122946160Y-44886880D03*
%TO.P,J7,5*%
%TO.N,/PA3*%
X120406160Y-44886880D03*
%TO.P,J7,6*%
%TO.N,/PA0*%
X117866160Y-44886880D03*
%TO.P,J7,7*%
%TO.N,/PA1*%
X115326160Y-44886880D03*
%TO.P,J7,8*%
%TO.N,/PA2*%
X112786160Y-44886880D03*
%TO.P,J7,9*%
%TO.N,N/C*%
X110246160Y-44886880D03*
%TO.P,J7,10*%
%TO.N,GND*%
X107706160Y-44886880D03*
%TD*%
D19*
%TO.P,SW1,1*%
%TO.N,GND*%
X173100000Y-47200000D03*
X173100000Y-53000000D03*
%TO.P,SW1,2*%
%TO.N,Net-(C7-Pad1)*%
X169100000Y-47200000D03*
X169100000Y-53000000D03*
%TD*%
%TO.P,R9,1*%
%TO.N,Net-(D1-Pad2)*%
%TA.AperFunction,SMDPad,CuDef*%
G36*
G01*
X111362500Y-40149998D02*
X111362500Y-41050002D01*
G75*
G02*
X111112502Y-41300000I-249998J0D01*
G01*
X110587498Y-41300000D01*
G75*
G02*
X110337500Y-41050002I0J249998D01*
G01*
X110337500Y-40149998D01*
G75*
G02*
X110587498Y-39900000I249998J0D01*
G01*
X111112502Y-39900000D01*
G75*
G02*
X111362500Y-40149998I0J-249998D01*
G01*
G37*
%TD.AperFunction*%
%TO.P,R9,2*%
%TO.N,+3V3*%
%TA.AperFunction,SMDPad,CuDef*%
G36*
G01*
X109537500Y-40149998D02*
X109537500Y-41050002D01*
G75*
G02*
X109287502Y-41300000I-249998J0D01*
G01*
X108762498Y-41300000D01*
G75*
G02*
X108512500Y-41050002I0J249998D01*
G01*
X108512500Y-40149998D01*
G75*
G02*
X108762498Y-39900000I249998J0D01*
G01*
X109287502Y-39900000D01*
G75*
G02*
X109537500Y-40149998I0J-249998D01*
G01*
G37*
%TD.AperFunction*%
%TD*%
%TO.P,R1,1*%
%TO.N,/BOOT0*%
%TA.AperFunction,SMDPad,CuDef*%
G36*
G01*
X148029082Y-55703700D02*
X147129078Y-55703700D01*
G75*
G02*
X146879080Y-55453702I0J249998D01*
G01*
X146879080Y-54928698D01*
G75*
G02*
X147129078Y-54678700I249998J0D01*
G01*
X148029082Y-54678700D01*
G75*
G02*
X148279080Y-54928698I0J-249998D01*
G01*
X148279080Y-55453702D01*
G75*
G02*
X148029082Y-55703700I-249998J0D01*
G01*
G37*
%TD.AperFunction*%
%TO.P,R1,2*%
%TO.N,Net-(J2-Pad3)*%
%TA.AperFunction,SMDPad,CuDef*%
G36*
G01*
X148029082Y-53878700D02*
X147129078Y-53878700D01*
G75*
G02*
X146879080Y-53628702I0J249998D01*
G01*
X146879080Y-53103698D01*
G75*
G02*
X147129078Y-52853700I249998J0D01*
G01*
X148029082Y-52853700D01*
G75*
G02*
X148279080Y-53103698I0J-249998D01*
G01*
X148279080Y-53628702D01*
G75*
G02*
X148029082Y-53878700I-249998J0D01*
G01*
G37*
%TD.AperFunction*%
%TD*%
%TO.P,R5,1*%
%TO.N,Net-(J2-Pad4)*%
%TA.AperFunction,SMDPad,CuDef*%
G36*
G01*
X156633758Y-52824320D02*
X157533762Y-52824320D01*
G75*
G02*
X157783760Y-53074318I0J-249998D01*
G01*
X157783760Y-53599322D01*
G75*
G02*
X157533762Y-53849320I-249998J0D01*
G01*
X156633758Y-53849320D01*
G75*
G02*
X156383760Y-53599322I0J249998D01*
G01*
X156383760Y-53074318D01*
G75*
G02*
X156633758Y-52824320I249998J0D01*
G01*
G37*
%TD.AperFunction*%
%TO.P,R5,2*%
%TO.N,/BOOT1*%
%TA.AperFunction,SMDPad,CuDef*%
G36*
G01*
X156633758Y-54649320D02*
X157533762Y-54649320D01*
G75*
G02*
X157783760Y-54899318I0J-249998D01*
G01*
X157783760Y-55424322D01*
G75*
G02*
X157533762Y-55674320I-249998J0D01*
G01*
X156633758Y-55674320D01*
G75*
G02*
X156383760Y-55424322I0J249998D01*
G01*
X156383760Y-54899318D01*
G75*
G02*
X156633758Y-54649320I249998J0D01*
G01*
G37*
%TD.AperFunction*%
%TD*%
%TO.P,R7,2*%
%TO.N,Net-(C7-Pad1)*%
%TA.AperFunction,SMDPad,CuDef*%
G36*
G01*
X169613002Y-41058500D02*
X168712998Y-41058500D01*
G75*
G02*
X168463000Y-40808502I0J249998D01*
G01*
X168463000Y-40283498D01*
G75*
G02*
X168712998Y-40033500I249998J0D01*
G01*
X169613002Y-40033500D01*
G75*
G02*
X169863000Y-40283498I0J-249998D01*
G01*
X169863000Y-40808502D01*
G75*
G02*
X169613002Y-41058500I-249998J0D01*
G01*
G37*
%TD.AperFunction*%
%TO.P,R7,1*%
%TO.N,+3V3*%
%TA.AperFunction,SMDPad,CuDef*%
G36*
G01*
X169613002Y-42883500D02*
X168712998Y-42883500D01*
G75*
G02*
X168463000Y-42633502I0J249998D01*
G01*
X168463000Y-42108498D01*
G75*
G02*
X168712998Y-41858500I249998J0D01*
G01*
X169613002Y-41858500D01*
G75*
G02*
X169863000Y-42108498I0J-249998D01*
G01*
X169863000Y-42633502D01*
G75*
G02*
X169613002Y-42883500I-249998J0D01*
G01*
G37*
%TD.AperFunction*%
%TD*%
%TO.P,C2,2*%
%TO.N,/CLKPH0*%
%TA.AperFunction,SMDPad,CuDef*%
G36*
G01*
X134500000Y-60575000D02*
X134500000Y-59625000D01*
G75*
G02*
X134750000Y-59375000I250000J0D01*
G01*
X135250000Y-59375000D01*
G75*
G02*
X135500000Y-59625000I0J-250000D01*
G01*
X135500000Y-60575000D01*
G75*
G02*
X135250000Y-60825000I-250000J0D01*
G01*
X134750000Y-60825000D01*
G75*
G02*
X134500000Y-60575000I0J250000D01*
G01*
G37*
%TD.AperFunction*%
%TO.P,C2,1*%
%TO.N,GND*%
%TA.AperFunction,SMDPad,CuDef*%
G36*
G01*
X132600000Y-60575000D02*
X132600000Y-59625000D01*
G75*
G02*
X132850000Y-59375000I250000J0D01*
G01*
X133350000Y-59375000D01*
G75*
G02*
X133600000Y-59625000I0J-250000D01*
G01*
X133600000Y-60575000D01*
G75*
G02*
X133350000Y-60825000I-250000J0D01*
G01*
X132850000Y-60825000D01*
G75*
G02*
X132600000Y-60575000I0J250000D01*
G01*
G37*
%TD.AperFunction*%
%TD*%
%TO.P,C3,1*%
%TO.N,GND*%
%TA.AperFunction,SMDPad,CuDef*%
G36*
G01*
X137550000Y-83125000D02*
X137550000Y-84075000D01*
G75*
G02*
X137300000Y-84325000I-250000J0D01*
G01*
X136800000Y-84325000D01*
G75*
G02*
X136550000Y-84075000I0J250000D01*
G01*
X136550000Y-83125000D01*
G75*
G02*
X136800000Y-82875000I250000J0D01*
G01*
X137300000Y-82875000D01*
G75*
G02*
X137550000Y-83125000I0J-250000D01*
G01*
G37*
%TD.AperFunction*%
%TO.P,C3,2*%
%TO.N,/CLKPH1*%
%TA.AperFunction,SMDPad,CuDef*%
G36*
G01*
X135650000Y-83125000D02*
X135650000Y-84075000D01*
G75*
G02*
X135400000Y-84325000I-250000J0D01*
G01*
X134900000Y-84325000D01*
G75*
G02*
X134650000Y-84075000I0J250000D01*
G01*
X134650000Y-83125000D01*
G75*
G02*
X134900000Y-82875000I250000J0D01*
G01*
X135400000Y-82875000D01*
G75*
G02*
X135650000Y-83125000I0J-250000D01*
G01*
G37*
%TD.AperFunction*%
%TD*%
%TO.P,C4,1*%
%TO.N,GND*%
%TA.AperFunction,SMDPad,CuDef*%
G36*
G01*
X125150000Y-62075000D02*
X125150000Y-61125000D01*
G75*
G02*
X125400000Y-60875000I250000J0D01*
G01*
X125900000Y-60875000D01*
G75*
G02*
X126150000Y-61125000I0J-250000D01*
G01*
X126150000Y-62075000D01*
G75*
G02*
X125900000Y-62325000I-250000J0D01*
G01*
X125400000Y-62325000D01*
G75*
G02*
X125150000Y-62075000I0J250000D01*
G01*
G37*
%TD.AperFunction*%
%TO.P,C4,2*%
%TO.N,/CLK32K0*%
%TA.AperFunction,SMDPad,CuDef*%
G36*
G01*
X127050000Y-62075000D02*
X127050000Y-61125000D01*
G75*
G02*
X127300000Y-60875000I250000J0D01*
G01*
X127800000Y-60875000D01*
G75*
G02*
X128050000Y-61125000I0J-250000D01*
G01*
X128050000Y-62075000D01*
G75*
G02*
X127800000Y-62325000I-250000J0D01*
G01*
X127300000Y-62325000D01*
G75*
G02*
X127050000Y-62075000I0J250000D01*
G01*
G37*
%TD.AperFunction*%
%TD*%
%TO.P,C5,2*%
%TO.N,/CLK32K1*%
%TA.AperFunction,SMDPad,CuDef*%
G36*
G01*
X127550000Y-72575000D02*
X127550000Y-71625000D01*
G75*
G02*
X127800000Y-71375000I250000J0D01*
G01*
X128300000Y-71375000D01*
G75*
G02*
X128550000Y-71625000I0J-250000D01*
G01*
X128550000Y-72575000D01*
G75*
G02*
X128300000Y-72825000I-250000J0D01*
G01*
X127800000Y-72825000D01*
G75*
G02*
X127550000Y-72575000I0J250000D01*
G01*
G37*
%TD.AperFunction*%
%TO.P,C5,1*%
%TO.N,GND*%
%TA.AperFunction,SMDPad,CuDef*%
G36*
G01*
X125650000Y-72575000D02*
X125650000Y-71625000D01*
G75*
G02*
X125900000Y-71375000I250000J0D01*
G01*
X126400000Y-71375000D01*
G75*
G02*
X126650000Y-71625000I0J-250000D01*
G01*
X126650000Y-72575000D01*
G75*
G02*
X126400000Y-72825000I-250000J0D01*
G01*
X125900000Y-72825000D01*
G75*
G02*
X125650000Y-72575000I0J250000D01*
G01*
G37*
%TD.AperFunction*%
%TD*%
%TO.P,C7,2*%
%TO.N,GND*%
%TA.AperFunction,SMDPad,CuDef*%
G36*
G01*
X171990000Y-41946000D02*
X172940000Y-41946000D01*
G75*
G02*
X173190000Y-42196000I0J-250000D01*
G01*
X173190000Y-42696000D01*
G75*
G02*
X172940000Y-42946000I-250000J0D01*
G01*
X171990000Y-42946000D01*
G75*
G02*
X171740000Y-42696000I0J250000D01*
G01*
X171740000Y-42196000D01*
G75*
G02*
X171990000Y-41946000I250000J0D01*
G01*
G37*
%TD.AperFunction*%
%TO.P,C7,1*%
%TO.N,Net-(C7-Pad1)*%
%TA.AperFunction,SMDPad,CuDef*%
G36*
G01*
X171990000Y-40046000D02*
X172940000Y-40046000D01*
G75*
G02*
X173190000Y-40296000I0J-250000D01*
G01*
X173190000Y-40796000D01*
G75*
G02*
X172940000Y-41046000I-250000J0D01*
G01*
X171990000Y-41046000D01*
G75*
G02*
X171740000Y-40796000I0J250000D01*
G01*
X171740000Y-40296000D01*
G75*
G02*
X171990000Y-40046000I250000J0D01*
G01*
G37*
%TD.AperFunction*%
%TD*%
%TO.P,C10,2*%
%TO.N,GND*%
%TA.AperFunction,SMDPad,CuDef*%
G36*
G01*
X155034000Y-65910000D02*
X154084000Y-65910000D01*
G75*
G02*
X153834000Y-65660000I0J250000D01*
G01*
X153834000Y-65160000D01*
G75*
G02*
X154084000Y-64910000I250000J0D01*
G01*
X155034000Y-64910000D01*
G75*
G02*
X155284000Y-65160000I0J-250000D01*
G01*
X155284000Y-65660000D01*
G75*
G02*
X155034000Y-65910000I-250000J0D01*
G01*
G37*
%TD.AperFunction*%
%TO.P,C10,1*%
%TO.N,+3V3*%
%TA.AperFunction,SMDPad,CuDef*%
G36*
G01*
X155034000Y-67810000D02*
X154084000Y-67810000D01*
G75*
G02*
X153834000Y-67560000I0J250000D01*
G01*
X153834000Y-67060000D01*
G75*
G02*
X154084000Y-66810000I250000J0D01*
G01*
X155034000Y-66810000D01*
G75*
G02*
X155284000Y-67060000I0J-250000D01*
G01*
X155284000Y-67560000D01*
G75*
G02*
X155034000Y-67810000I-250000J0D01*
G01*
G37*
%TD.AperFunction*%
%TD*%
%TO.P,C11,1*%
%TO.N,+3V3*%
%TA.AperFunction,SMDPad,CuDef*%
G36*
G01*
X153068000Y-76594000D02*
X154018000Y-76594000D01*
G75*
G02*
X154268000Y-76844000I0J-250000D01*
G01*
X154268000Y-77344000D01*
G75*
G02*
X154018000Y-77594000I-250000J0D01*
G01*
X153068000Y-77594000D01*
G75*
G02*
X152818000Y-77344000I0J250000D01*
G01*
X152818000Y-76844000D01*
G75*
G02*
X153068000Y-76594000I250000J0D01*
G01*
G37*
%TD.AperFunction*%
%TO.P,C11,2*%
%TO.N,GND*%
%TA.AperFunction,SMDPad,CuDef*%
G36*
G01*
X153068000Y-78494000D02*
X154018000Y-78494000D01*
G75*
G02*
X154268000Y-78744000I0J-250000D01*
G01*
X154268000Y-79244000D01*
G75*
G02*
X154018000Y-79494000I-250000J0D01*
G01*
X153068000Y-79494000D01*
G75*
G02*
X152818000Y-79244000I0J250000D01*
G01*
X152818000Y-78744000D01*
G75*
G02*
X153068000Y-78494000I250000J0D01*
G01*
G37*
%TD.AperFunction*%
%TD*%
%TO.P,C13,1*%
%TO.N,+3V3*%
%TA.AperFunction,SMDPad,CuDef*%
G36*
G01*
X141575000Y-65100000D02*
X140625000Y-65100000D01*
G75*
G02*
X140375000Y-64850000I0J250000D01*
G01*
X140375000Y-64350000D01*
G75*
G02*
X140625000Y-64100000I250000J0D01*
G01*
X141575000Y-64100000D01*
G75*
G02*
X141825000Y-64350000I0J-250000D01*
G01*
X141825000Y-64850000D01*
G75*
G02*
X141575000Y-65100000I-250000J0D01*
G01*
G37*
%TD.AperFunction*%
%TO.P,C13,2*%
%TO.N,GND*%
%TA.AperFunction,SMDPad,CuDef*%
G36*
G01*
X141575000Y-63200000D02*
X140625000Y-63200000D01*
G75*
G02*
X140375000Y-62950000I0J250000D01*
G01*
X140375000Y-62450000D01*
G75*
G02*
X140625000Y-62200000I250000J0D01*
G01*
X141575000Y-62200000D01*
G75*
G02*
X141825000Y-62450000I0J-250000D01*
G01*
X141825000Y-62950000D01*
G75*
G02*
X141575000Y-63200000I-250000J0D01*
G01*
G37*
%TD.AperFunction*%
%TD*%
%TO.P,C12,1*%
%TO.N,+3V3*%
%TA.AperFunction,SMDPad,CuDef*%
G36*
G01*
X144575000Y-65100000D02*
X143625000Y-65100000D01*
G75*
G02*
X143375000Y-64850000I0J250000D01*
G01*
X143375000Y-64350000D01*
G75*
G02*
X143625000Y-64100000I250000J0D01*
G01*
X144575000Y-64100000D01*
G75*
G02*
X144825000Y-64350000I0J-250000D01*
G01*
X144825000Y-64850000D01*
G75*
G02*
X144575000Y-65100000I-250000J0D01*
G01*
G37*
%TD.AperFunction*%
%TO.P,C12,2*%
%TO.N,GND*%
%TA.AperFunction,SMDPad,CuDef*%
G36*
G01*
X144575000Y-63200000D02*
X143625000Y-63200000D01*
G75*
G02*
X143375000Y-62950000I0J250000D01*
G01*
X143375000Y-62450000D01*
G75*
G02*
X143625000Y-62200000I250000J0D01*
G01*
X144575000Y-62200000D01*
G75*
G02*
X144825000Y-62450000I0J-250000D01*
G01*
X144825000Y-62950000D01*
G75*
G02*
X144575000Y-63200000I-250000J0D01*
G01*
G37*
%TD.AperFunction*%
%TD*%
%TO.P,D1,1*%
%TO.N,/LED0*%
%TA.AperFunction,SMDPad,CuDef*%
G36*
G01*
X115212500Y-40143750D02*
X115212500Y-41056250D01*
G75*
G02*
X114968750Y-41300000I-243750J0D01*
G01*
X114481250Y-41300000D01*
G75*
G02*
X114237500Y-41056250I0J243750D01*
G01*
X114237500Y-40143750D01*
G75*
G02*
X114481250Y-39900000I243750J0D01*
G01*
X114968750Y-39900000D01*
G75*
G02*
X115212500Y-40143750I0J-243750D01*
G01*
G37*
%TD.AperFunction*%
%TO.P,D1,2*%
%TO.N,Net-(D1-Pad2)*%
%TA.AperFunction,SMDPad,CuDef*%
G36*
G01*
X113337500Y-40143750D02*
X113337500Y-41056250D01*
G75*
G02*
X113093750Y-41300000I-243750J0D01*
G01*
X112606250Y-41300000D01*
G75*
G02*
X112362500Y-41056250I0J243750D01*
G01*
X112362500Y-40143750D01*
G75*
G02*
X112606250Y-39900000I243750J0D01*
G01*
X113093750Y-39900000D01*
G75*
G02*
X113337500Y-40143750I0J-243750D01*
G01*
G37*
%TD.AperFunction*%
%TD*%
%TO.P,R8,1*%
%TO.N,/CLKPH0*%
%TA.AperFunction,SMDPad,CuDef*%
G36*
G01*
X138741998Y-69337500D02*
X139642002Y-69337500D01*
G75*
G02*
X139892000Y-69587498I0J-249998D01*
G01*
X139892000Y-70112502D01*
G75*
G02*
X139642002Y-70362500I-249998J0D01*
G01*
X138741998Y-70362500D01*
G75*
G02*
X138492000Y-70112502I0J249998D01*
G01*
X138492000Y-69587498D01*
G75*
G02*
X138741998Y-69337500I249998J0D01*
G01*
G37*
%TD.AperFunction*%
%TO.P,R8,2*%
%TO.N,/CLKPH1*%
%TA.AperFunction,SMDPad,CuDef*%
G36*
G01*
X138741998Y-71162500D02*
X139642002Y-71162500D01*
G75*
G02*
X139892000Y-71412498I0J-249998D01*
G01*
X139892000Y-71937502D01*
G75*
G02*
X139642002Y-72187500I-249998J0D01*
G01*
X138741998Y-72187500D01*
G75*
G02*
X138492000Y-71937502I0J249998D01*
G01*
X138492000Y-71412498D01*
G75*
G02*
X138741998Y-71162500I249998J0D01*
G01*
G37*
%TD.AperFunction*%
%TD*%
%TO.P,R2,1*%
%TO.N,/BATV6*%
%TA.AperFunction,SMDPad,CuDef*%
G36*
G01*
X119262500Y-53050002D02*
X119262500Y-52149998D01*
G75*
G02*
X119512498Y-51900000I249998J0D01*
G01*
X120037502Y-51900000D01*
G75*
G02*
X120287500Y-52149998I0J-249998D01*
G01*
X120287500Y-53050002D01*
G75*
G02*
X120037502Y-53300000I-249998J0D01*
G01*
X119512498Y-53300000D01*
G75*
G02*
X119262500Y-53050002I0J249998D01*
G01*
G37*
%TD.AperFunction*%
%TO.P,R2,2*%
%TO.N,Net-(R2-Pad2)*%
%TA.AperFunction,SMDPad,CuDef*%
G36*
G01*
X121087500Y-53050002D02*
X121087500Y-52149998D01*
G75*
G02*
X121337498Y-51900000I249998J0D01*
G01*
X121862502Y-51900000D01*
G75*
G02*
X122112500Y-52149998I0J-249998D01*
G01*
X122112500Y-53050002D01*
G75*
G02*
X121862502Y-53300000I-249998J0D01*
G01*
X121337498Y-53300000D01*
G75*
G02*
X121087500Y-53050002I0J249998D01*
G01*
G37*
%TD.AperFunction*%
%TD*%
%TO.P,R3,2*%
%TO.N,GND*%
%TA.AperFunction,SMDPad,CuDef*%
G36*
G01*
X121162500Y-56050002D02*
X121162500Y-55149998D01*
G75*
G02*
X121412498Y-54900000I249998J0D01*
G01*
X121937502Y-54900000D01*
G75*
G02*
X122187500Y-55149998I0J-249998D01*
G01*
X122187500Y-56050002D01*
G75*
G02*
X121937502Y-56300000I-249998J0D01*
G01*
X121412498Y-56300000D01*
G75*
G02*
X121162500Y-56050002I0J249998D01*
G01*
G37*
%TD.AperFunction*%
%TO.P,R3,1*%
%TO.N,Net-(R2-Pad2)*%
%TA.AperFunction,SMDPad,CuDef*%
G36*
G01*
X119337500Y-56050002D02*
X119337500Y-55149998D01*
G75*
G02*
X119587498Y-54900000I249998J0D01*
G01*
X120112502Y-54900000D01*
G75*
G02*
X120362500Y-55149998I0J-249998D01*
G01*
X120362500Y-56050002D01*
G75*
G02*
X120112502Y-56300000I-249998J0D01*
G01*
X119587498Y-56300000D01*
G75*
G02*
X119337500Y-56050002I0J249998D01*
G01*
G37*
%TD.AperFunction*%
%TD*%
%TO.P,R4,1*%
%TO.N,Net-(R2-Pad2)*%
%TA.AperFunction,SMDPad,CuDef*%
G36*
G01*
X119762500Y-73800002D02*
X119762500Y-72899998D01*
G75*
G02*
X120012498Y-72650000I249998J0D01*
G01*
X120537502Y-72650000D01*
G75*
G02*
X120787500Y-72899998I0J-249998D01*
G01*
X120787500Y-73800002D01*
G75*
G02*
X120537502Y-74050000I-249998J0D01*
G01*
X120012498Y-74050000D01*
G75*
G02*
X119762500Y-73800002I0J249998D01*
G01*
G37*
%TD.AperFunction*%
%TO.P,R4,2*%
%TO.N,/ADC_IN6*%
%TA.AperFunction,SMDPad,CuDef*%
G36*
G01*
X121587500Y-73800002D02*
X121587500Y-72899998D01*
G75*
G02*
X121837498Y-72650000I249998J0D01*
G01*
X122362502Y-72650000D01*
G75*
G02*
X122612500Y-72899998I0J-249998D01*
G01*
X122612500Y-73800002D01*
G75*
G02*
X122362502Y-74050000I-249998J0D01*
G01*
X121837498Y-74050000D01*
G75*
G02*
X121587500Y-73800002I0J249998D01*
G01*
G37*
%TD.AperFunction*%
%TD*%
%TO.P,R6,1*%
%TO.N,Net-(C1-Pad1)*%
%TA.AperFunction,SMDPad,CuDef*%
G36*
G01*
X110819500Y-77793002D02*
X110819500Y-76892998D01*
G75*
G02*
X111069498Y-76643000I249998J0D01*
G01*
X111594502Y-76643000D01*
G75*
G02*
X111844500Y-76892998I0J-249998D01*
G01*
X111844500Y-77793002D01*
G75*
G02*
X111594502Y-78043000I-249998J0D01*
G01*
X111069498Y-78043000D01*
G75*
G02*
X110819500Y-77793002I0J249998D01*
G01*
G37*
%TD.AperFunction*%
%TO.P,R6,2*%
%TO.N,Net-(R6-Pad2)*%
%TA.AperFunction,SMDPad,CuDef*%
G36*
G01*
X112644500Y-77793002D02*
X112644500Y-76892998D01*
G75*
G02*
X112894498Y-76643000I249998J0D01*
G01*
X113419502Y-76643000D01*
G75*
G02*
X113669500Y-76892998I0J-249998D01*
G01*
X113669500Y-77793002D01*
G75*
G02*
X113419502Y-78043000I-249998J0D01*
G01*
X112894498Y-78043000D01*
G75*
G02*
X112644500Y-77793002I0J249998D01*
G01*
G37*
%TD.AperFunction*%
%TD*%
D20*
%TO.P,U5,1*%
%TO.N,GND*%
X159386000Y-66374000D03*
%TO.P,U5,2*%
%TO.N,/MISO1*%
X159386000Y-68374000D03*
%TO.P,U5,3*%
%TO.N,/MOSI1*%
X159386000Y-70374000D03*
%TO.P,U5,4*%
%TO.N,/SCK1*%
X159386000Y-72374000D03*
%TO.P,U5,5*%
%TO.N,/NSS1*%
X159386000Y-74374000D03*
%TO.P,U5,6*%
%TO.N,/NRST_LORA*%
X159386000Y-76374000D03*
%TO.P,U5,7*%
%TO.N,/DIO5*%
X159386000Y-78374000D03*
%TO.P,U5,8*%
%TO.N,GND*%
X159386000Y-80374000D03*
%TO.P,U5,9*%
%TO.N,Net-(AE1-Pad1)*%
X175386000Y-80374000D03*
%TO.P,U5,10*%
%TO.N,GND*%
X175386000Y-78374000D03*
%TO.P,U5,11*%
%TO.N,/DIO3*%
X175386000Y-76374000D03*
%TO.P,U5,12*%
%TO.N,/DIO4*%
X175386000Y-74374000D03*
%TO.P,U5,13*%
%TO.N,+3V3*%
X175386000Y-72374000D03*
%TO.P,U5,14*%
%TO.N,/RX_DONE*%
X175386000Y-70374000D03*
%TO.P,U5,15*%
%TO.N,/RX_TIMEOUT*%
X175386000Y-68374000D03*
%TO.P,U5,16*%
%TO.N,/DIO2*%
X175386000Y-66374000D03*
%TD*%
D10*
%TO.P,J3,1*%
%TO.N,Net-(J3-Pad1)*%
X164846000Y-91059000D03*
D11*
%TO.P,J3,2*%
%TO.N,/SWDIO*%
X162306000Y-91059000D03*
%TO.P,J3,3*%
%TO.N,/SWCLK*%
X159766000Y-91059000D03*
%TO.P,J3,4*%
%TO.N,GND*%
X157226000Y-91059000D03*
%TD*%
D10*
%TO.P,J5,1*%
%TO.N,/UART1_TXD*%
X112268000Y-55372000D03*
D11*
%TO.P,J5,2*%
%TO.N,/UART1_RXD*%
X112268000Y-52832000D03*
%TO.P,J5,3*%
%TO.N,GND*%
X112268000Y-50292000D03*
%TD*%
D21*
%TO.P,U2,5*%
%TO.N,+3V3*%
X119919920Y-77597000D03*
%TO.P,U2,4*%
%TO.N,N/C*%
X119919920Y-79497000D03*
%TO.P,U2,3*%
%TO.N,+5V*%
X117219920Y-79497000D03*
%TO.P,U2,2*%
%TO.N,GND*%
X117219920Y-78547000D03*
%TO.P,U2,1*%
%TO.N,+5V*%
X117219920Y-77597000D03*
%TD*%
%TO.P,U3,1*%
%TO.N,+5V*%
X127555000Y-84013000D03*
%TO.P,U3,2*%
%TO.N,GND*%
X127555000Y-84963000D03*
%TO.P,U3,3*%
%TO.N,+5V*%
X127555000Y-85913000D03*
%TO.P,U3,4*%
%TO.N,N/C*%
X130255000Y-85913000D03*
%TO.P,U3,5*%
%TO.N,+3.3VADC*%
X130255000Y-84013000D03*
%TD*%
%TO.P,R10,1*%
%TO.N,Net-(J2-Pad3)*%
%TA.AperFunction,SMDPad,CuDef*%
G36*
G01*
X152675000Y-46550002D02*
X152675000Y-45649998D01*
G75*
G02*
X152924998Y-45400000I249998J0D01*
G01*
X153450002Y-45400000D01*
G75*
G02*
X153700000Y-45649998I0J-249998D01*
G01*
X153700000Y-46550002D01*
G75*
G02*
X153450002Y-46800000I-249998J0D01*
G01*
X152924998Y-46800000D01*
G75*
G02*
X152675000Y-46550002I0J249998D01*
G01*
G37*
%TD.AperFunction*%
%TO.P,R10,2*%
%TO.N,GND*%
%TA.AperFunction,SMDPad,CuDef*%
G36*
G01*
X154500000Y-46550002D02*
X154500000Y-45649998D01*
G75*
G02*
X154749998Y-45400000I249998J0D01*
G01*
X155275002Y-45400000D01*
G75*
G02*
X155525000Y-45649998I0J-249998D01*
G01*
X155525000Y-46550002D01*
G75*
G02*
X155275002Y-46800000I-249998J0D01*
G01*
X154749998Y-46800000D01*
G75*
G02*
X154500000Y-46550002I0J249998D01*
G01*
G37*
%TD.AperFunction*%
%TD*%
%TO.P,R11,2*%
%TO.N,GND*%
%TA.AperFunction,SMDPad,CuDef*%
G36*
G01*
X160587500Y-46550002D02*
X160587500Y-45649998D01*
G75*
G02*
X160837498Y-45400000I249998J0D01*
G01*
X161362502Y-45400000D01*
G75*
G02*
X161612500Y-45649998I0J-249998D01*
G01*
X161612500Y-46550002D01*
G75*
G02*
X161362502Y-46800000I-249998J0D01*
G01*
X160837498Y-46800000D01*
G75*
G02*
X160587500Y-46550002I0J249998D01*
G01*
G37*
%TD.AperFunction*%
%TO.P,R11,1*%
%TO.N,Net-(J2-Pad4)*%
%TA.AperFunction,SMDPad,CuDef*%
G36*
G01*
X158762500Y-46550002D02*
X158762500Y-45649998D01*
G75*
G02*
X159012498Y-45400000I249998J0D01*
G01*
X159537502Y-45400000D01*
G75*
G02*
X159787500Y-45649998I0J-249998D01*
G01*
X159787500Y-46550002D01*
G75*
G02*
X159537502Y-46800000I-249998J0D01*
G01*
X159012498Y-46800000D01*
G75*
G02*
X158762500Y-46550002I0J249998D01*
G01*
G37*
%TD.AperFunction*%
%TD*%
D22*
%TO.P,Y2,1*%
%TO.N,/CLK32K0*%
X128350000Y-65500000D03*
%TO.P,Y2,2*%
%TO.N,N/C*%
X122850000Y-65500000D03*
%TO.P,Y2,3*%
X122850000Y-68700000D03*
%TO.P,Y2,4*%
%TO.N,/CLK32K1*%
X128350000Y-68700000D03*
%TD*%
D21*
%TO.P,U6,1*%
%TO.N,/NRST*%
X161400000Y-51150000D03*
%TO.P,U6,2*%
%TO.N,GND*%
X161400000Y-52100000D03*
%TO.P,U6,3*%
%TO.N,N/C*%
X161400000Y-53050000D03*
%TO.P,U6,4*%
%TO.N,Net-(C7-Pad1)*%
X164100000Y-53050000D03*
%TO.P,U6,5*%
%TO.N,+3V3*%
X164100000Y-51150000D03*
%TD*%
%TO.P,C14,1*%
%TO.N,+3V3*%
%TA.AperFunction,SMDPad,CuDef*%
G36*
G01*
X165575000Y-49600000D02*
X164625000Y-49600000D01*
G75*
G02*
X164375000Y-49350000I0J250000D01*
G01*
X164375000Y-48850000D01*
G75*
G02*
X164625000Y-48600000I250000J0D01*
G01*
X165575000Y-48600000D01*
G75*
G02*
X165825000Y-48850000I0J-250000D01*
G01*
X165825000Y-49350000D01*
G75*
G02*
X165575000Y-49600000I-250000J0D01*
G01*
G37*
%TD.AperFunction*%
%TO.P,C14,2*%
%TO.N,GND*%
%TA.AperFunction,SMDPad,CuDef*%
G36*
G01*
X165575000Y-47700000D02*
X164625000Y-47700000D01*
G75*
G02*
X164375000Y-47450000I0J250000D01*
G01*
X164375000Y-46950000D01*
G75*
G02*
X164625000Y-46700000I250000J0D01*
G01*
X165575000Y-46700000D01*
G75*
G02*
X165825000Y-46950000I0J-250000D01*
G01*
X165825000Y-47450000D01*
G75*
G02*
X165575000Y-47700000I-250000J0D01*
G01*
G37*
%TD.AperFunction*%
%TD*%
D23*
%TO.P,Q1,1*%
%TO.N,Net-(D2-Pad2)*%
X110600000Y-61550000D03*
%TO.P,Q1,2*%
%TO.N,Net-(C1-Pad1)*%
X110600000Y-59650000D03*
%TO.P,Q1,3*%
%TO.N,/BATV6*%
X108600000Y-60600000D03*
%TD*%
%TO.P,R12,1*%
%TO.N,Net-(D2-Pad2)*%
%TA.AperFunction,SMDPad,CuDef*%
G36*
G01*
X121550002Y-61937500D02*
X120649998Y-61937500D01*
G75*
G02*
X120400000Y-61687502I0J249998D01*
G01*
X120400000Y-61162498D01*
G75*
G02*
X120649998Y-60912500I249998J0D01*
G01*
X121550002Y-60912500D01*
G75*
G02*
X121800000Y-61162498I0J-249998D01*
G01*
X121800000Y-61687502D01*
G75*
G02*
X121550002Y-61937500I-249998J0D01*
G01*
G37*
%TD.AperFunction*%
%TO.P,R12,2*%
%TO.N,GND*%
%TA.AperFunction,SMDPad,CuDef*%
G36*
G01*
X121550002Y-60112500D02*
X120649998Y-60112500D01*
G75*
G02*
X120400000Y-59862502I0J249998D01*
G01*
X120400000Y-59337498D01*
G75*
G02*
X120649998Y-59087500I249998J0D01*
G01*
X121550002Y-59087500D01*
G75*
G02*
X121800000Y-59337498I0J-249998D01*
G01*
X121800000Y-59862502D01*
G75*
G02*
X121550002Y-60112500I-249998J0D01*
G01*
G37*
%TD.AperFunction*%
%TD*%
D24*
%TO.P,D2,2*%
%TO.N,Net-(D2-Pad2)*%
X114150000Y-61600000D03*
%TO.P,D2,*%
%TO.N,*%
X116050000Y-61600000D03*
%TO.P,D2,1*%
%TO.N,Net-(C1-Pad1)*%
X115100000Y-59600000D03*
%TD*%
%TO.P,C15,1*%
%TO.N,+3V3*%
%TA.AperFunction,SMDPad,CuDef*%
G36*
G01*
X172062500Y-63025001D02*
X172062500Y-62174999D01*
G75*
G02*
X172312499Y-61925000I249999J0D01*
G01*
X173387501Y-61925000D01*
G75*
G02*
X173637500Y-62174999I0J-249999D01*
G01*
X173637500Y-63025001D01*
G75*
G02*
X173387501Y-63275000I-249999J0D01*
G01*
X172312499Y-63275000D01*
G75*
G02*
X172062500Y-63025001I0J249999D01*
G01*
G37*
%TD.AperFunction*%
%TO.P,C15,2*%
%TO.N,GND*%
%TA.AperFunction,SMDPad,CuDef*%
G36*
G01*
X174937500Y-63025001D02*
X174937500Y-62174999D01*
G75*
G02*
X175187499Y-61925000I249999J0D01*
G01*
X176262501Y-61925000D01*
G75*
G02*
X176512500Y-62174999I0J-249999D01*
G01*
X176512500Y-63025001D01*
G75*
G02*
X176262501Y-63275000I-249999J0D01*
G01*
X175187499Y-63275000D01*
G75*
G02*
X174937500Y-63025001I0J249999D01*
G01*
G37*
%TD.AperFunction*%
%TD*%
D25*
%TO.P,TP1,1*%
%TO.N,/DIO5*%
X165600000Y-59100000D03*
%TD*%
%TO.P,TP2,1*%
%TO.N,/DIO4*%
X165600000Y-62350000D03*
%TD*%
%TO.P,TP3,1*%
%TO.N,/DIO3*%
X168350000Y-59100000D03*
%TD*%
%TO.P,TP4,1*%
%TO.N,/DIO2*%
X168350000Y-62350000D03*
%TD*%
D26*
%TO.N,GND*%
X174482760Y-84013040D03*
X146014440Y-71996300D03*
X151020780Y-68988940D03*
X126111000Y-84963000D03*
X122936000Y-82042000D03*
X125349000Y-81280000D03*
X123571000Y-86106000D03*
X109601000Y-88265000D03*
X116034855Y-78546995D03*
X145796000Y-65405000D03*
X151257000Y-77089000D03*
X153543000Y-80391000D03*
X153289000Y-65405000D03*
X159385000Y-64357000D03*
X159386000Y-82390000D03*
X173101000Y-78327000D03*
X174116000Y-42324000D03*
X124600000Y-72100000D03*
X156600000Y-46100000D03*
X162600000Y-46100000D03*
X159600000Y-52100000D03*
X174100000Y-44600000D03*
X165100000Y-46100000D03*
X143600000Y-61100000D03*
X141612653Y-61087347D03*
X124100000Y-61600000D03*
X131600000Y-60100000D03*
X138600000Y-83600000D03*
X121100000Y-58350000D03*
X122975001Y-56225001D03*
X175724994Y-60975006D03*
%TO.N,/BATV6*%
X118100000Y-52600000D03*
%TO.N,/CLK32K0*%
X138811000Y-66040000D03*
X131100000Y-64600000D03*
%TO.N,/CLK32K1*%
X138811000Y-67310000D03*
X131100000Y-69100000D03*
%TO.N,+5V*%
X115218089Y-77626095D03*
X108839000Y-78105000D03*
%TO.N,/NRST*%
X146685000Y-71120000D03*
%TO.N,+3V3*%
X122936000Y-75819000D03*
X153543000Y-75438000D03*
X153416000Y-67310000D03*
X172593000Y-72104000D03*
X169163000Y-43721000D03*
X165600000Y-50600000D03*
X144100000Y-66100000D03*
X143100000Y-67600000D03*
X107600000Y-41600000D03*
%TO.N,+3.3VADC*%
X141328140Y-73002140D03*
X132600000Y-85100000D03*
%TO.N,/LED0*%
X132350000Y-40600000D03*
X133600000Y-49600000D03*
%TO.N,Net-(J2-Pad3)*%
X151600000Y-46600000D03*
%TO.N,Net-(J2-Pad4)*%
X157600000Y-46600000D03*
%TO.N,/SWCLK*%
X151731980Y-65613280D03*
%TO.N,/SWDIO*%
X154944088Y-68970168D03*
%TO.N,/UART1_TXD*%
X148094700Y-61191140D03*
%TO.N,/UART1_RXD*%
X147579080Y-62326520D03*
%TO.N,/I2C1_SCL*%
X145100000Y-51600000D03*
%TO.N,/I2C1_SDA*%
X144100000Y-51600000D03*
%TO.N,/PB10*%
X150931880Y-79537560D03*
%TO.N,/PB11*%
X151823420Y-78910180D03*
%TO.N,/PA10*%
X150495000Y-70612000D03*
%TO.N,/PA9*%
X150495000Y-71882000D03*
%TO.N,/PA3*%
X138689080Y-73527920D03*
%TO.N,/PA2*%
X140298280Y-75888518D03*
%TO.N,/PA1*%
X139354560Y-75112880D03*
%TO.N,/PA0*%
X140258800Y-74378820D03*
%TO.N,/ADC_IN6*%
X146829780Y-81028540D03*
X139192000Y-78994000D03*
X126850000Y-75100000D03*
%TO.N,/DAC_OUT1*%
X144447260Y-80975200D03*
%TO.N,/ADC_IN7*%
X148046440Y-81059020D03*
%TO.N,/DAC_OUT2*%
X145577560Y-81028540D03*
%TO.N,/ADC_IN8*%
X149542500Y-81079340D03*
%TO.N,/ADC_IN9*%
X150652480Y-81053940D03*
%TO.N,/DIO3*%
X172600000Y-73600000D03*
X173100000Y-76100000D03*
%TO.N,/DIO2*%
X172850000Y-66350000D03*
X170600000Y-66350000D03*
%TO.N,/BOOT1*%
X149202140Y-70032880D03*
X150611840Y-58780680D03*
%TO.N,Net-(R2-Pad2)*%
X118600000Y-55600000D03*
X118600000Y-73350000D03*
%TO.N,/RX_DONE*%
X156337000Y-71501000D03*
X172974000Y-69437000D03*
%TO.N,/RX_TIMEOUT*%
X155956000Y-70485000D03*
X172847000Y-68294000D03*
%TO.N,/NSS1*%
X151765000Y-64516000D03*
X163195000Y-60452000D03*
%TO.N,/SCK1*%
X151638000Y-63373000D03*
X158623000Y-58928000D03*
%TO.N,Net-(C1-Pad1)*%
X107600000Y-77100000D03*
X116100000Y-63600000D03*
X115100000Y-58100000D03*
%TD*%
D27*
%TO.N,Net-(AE1-Pad1)*%
X172998000Y-86892000D02*
X171982000Y-86892000D01*
X171020000Y-81930000D02*
X172576000Y-80374000D01*
X171020000Y-85930000D02*
X171020000Y-81930000D01*
X172576000Y-80374000D02*
X175386000Y-80374000D01*
X171982000Y-86892000D02*
X171020000Y-85930000D01*
%TO.N,GND*%
X174498000Y-84028280D02*
X174482760Y-84013040D01*
X174498000Y-85392000D02*
X174498000Y-84028280D01*
X146013740Y-71997000D02*
X146014440Y-71996300D01*
X144300500Y-71997000D02*
X146013740Y-71997000D01*
X151028840Y-68997000D02*
X151020780Y-68988940D01*
X152625500Y-68997000D02*
X151028840Y-68997000D01*
X127805000Y-84963000D02*
X126111000Y-84963000D01*
D28*
X122936000Y-80518000D02*
X122936000Y-82042000D01*
X127213500Y-81280000D02*
X125349000Y-81280000D01*
X123512580Y-86047580D02*
X123571000Y-86106000D01*
X121203400Y-86047580D02*
X123512580Y-86047580D01*
X109560360Y-88224360D02*
X109601000Y-88265000D01*
X109560360Y-86709320D02*
X109560360Y-88224360D01*
X116078000Y-71247000D02*
X116078000Y-73406000D01*
X115697000Y-73787000D02*
X109474000Y-73787000D01*
X116078000Y-73406000D02*
X115697000Y-73787000D01*
D27*
X116034860Y-78547000D02*
X115973860Y-78486000D01*
D29*
X117469920Y-78547000D02*
X116034860Y-78547000D01*
X116034860Y-78547000D02*
X116034855Y-78546995D01*
D27*
X146213000Y-65822000D02*
X145796000Y-65405000D01*
X146213000Y-67084500D02*
X146213000Y-65822000D01*
X150713000Y-76545000D02*
X151257000Y-77089000D01*
X150713000Y-75409500D02*
X150713000Y-76545000D01*
X153543000Y-78994000D02*
X153543000Y-80391000D01*
X153294000Y-65410000D02*
X153289000Y-65405000D01*
X154559000Y-65410000D02*
X153294000Y-65410000D01*
X159386000Y-64358000D02*
X159385000Y-64357000D01*
X159386000Y-66374000D02*
X159386000Y-64358000D01*
X159386000Y-80374000D02*
X159386000Y-82390000D01*
X173148000Y-78374000D02*
X173101000Y-78327000D01*
X175386000Y-78374000D02*
X173148000Y-78374000D01*
X173994000Y-42446000D02*
X174116000Y-42324000D01*
X172465000Y-42446000D02*
X173994000Y-42446000D01*
X155012500Y-46100000D02*
X156600000Y-46100000D01*
X161100000Y-46100000D02*
X162600000Y-46100000D01*
X173100000Y-53000000D02*
X173100000Y-47200000D01*
X161400000Y-52100000D02*
X159600000Y-52100000D01*
X173100000Y-45600000D02*
X174100000Y-44600000D01*
X173100000Y-47200000D02*
X173100000Y-45600000D01*
X165100000Y-47200000D02*
X165100000Y-46100000D01*
X144100000Y-61600000D02*
X143600000Y-61100000D01*
X144100000Y-62700000D02*
X144100000Y-61600000D01*
X141100000Y-61600000D02*
X141612653Y-61087347D01*
X141100000Y-62700000D02*
X141100000Y-61600000D01*
X124600000Y-72100000D02*
X126150000Y-72100000D01*
X125650000Y-61600000D02*
X124100000Y-61600000D01*
X131600000Y-60100000D02*
X133100000Y-60100000D01*
X137050000Y-83600000D02*
X138600000Y-83600000D01*
X121100000Y-59600000D02*
X121100000Y-58350000D01*
X121675000Y-55600000D02*
X122350000Y-55600000D01*
X122350000Y-55600000D02*
X122975001Y-56225001D01*
X175725000Y-62600000D02*
X175725000Y-60975012D01*
X175725000Y-60975012D02*
X175724994Y-60975006D01*
D29*
%TO.N,/BATV6*%
X107100000Y-60600000D02*
X108600000Y-60600000D01*
D28*
X109474000Y-68707000D02*
X106207000Y-68707000D01*
X106207000Y-68707000D02*
X105600000Y-68100000D01*
X106100000Y-60600000D02*
X108600000Y-60600000D01*
X105600000Y-61100000D02*
X106100000Y-60600000D01*
X107167000Y-66167000D02*
X105600000Y-64600000D01*
X109474000Y-66167000D02*
X107167000Y-66167000D01*
X105600000Y-64600000D02*
X105600000Y-61100000D01*
X105600000Y-68100000D02*
X105600000Y-64600000D01*
D27*
X118100000Y-52600000D02*
X119775000Y-52600000D01*
%TO.N,/CLKPH0*%
X136391400Y-65690500D02*
X137154920Y-66454020D01*
X135001000Y-65690500D02*
X136391400Y-65690500D01*
X134964500Y-65654000D02*
X135001000Y-65690500D01*
X137668000Y-69850000D02*
X137154920Y-69336920D01*
X139192000Y-69850000D02*
X137668000Y-69850000D01*
X137154920Y-66454020D02*
X137154920Y-69336920D01*
X144300500Y-70497000D02*
X141363000Y-70497000D01*
X140716000Y-69850000D02*
X139192000Y-69850000D01*
X141363000Y-70497000D02*
X140716000Y-69850000D01*
X135000000Y-65689500D02*
X135001000Y-65690500D01*
X135000000Y-60100000D02*
X135000000Y-65689500D01*
%TO.N,/CLKPH1*%
X136221220Y-77565500D02*
X137226040Y-76560680D01*
X135001000Y-77565500D02*
X136221220Y-77565500D01*
X137626080Y-71675000D02*
X137226040Y-72075040D01*
X139192000Y-71675000D02*
X137626080Y-71675000D01*
X137226040Y-76560680D02*
X137226040Y-72075040D01*
X144300500Y-70997000D02*
X141347000Y-70997000D01*
X140669000Y-71675000D02*
X139192000Y-71675000D01*
X141347000Y-70997000D02*
X140669000Y-71675000D01*
X135150000Y-83600000D02*
X135150000Y-83050000D01*
X135150000Y-77714500D02*
X135001000Y-77565500D01*
X135150000Y-83600000D02*
X135150000Y-77714500D01*
%TO.N,/CLK32K0*%
X139513905Y-66040000D02*
X138811000Y-66040000D01*
X142970905Y-69497000D02*
X139513905Y-66040000D01*
X144300500Y-69497000D02*
X142970905Y-69497000D01*
X130200000Y-65500000D02*
X131100000Y-64600000D01*
X128350000Y-65500000D02*
X130200000Y-65500000D01*
X127550000Y-61600000D02*
X128600000Y-62650000D01*
X128600000Y-65250000D02*
X128350000Y-65500000D01*
X128600000Y-62650000D02*
X128600000Y-65250000D01*
%TO.N,/CLK32K1*%
X144300500Y-69997000D02*
X142768000Y-69997000D01*
X140081000Y-67310000D02*
X138811000Y-67310000D01*
X142768000Y-69997000D02*
X140081000Y-67310000D01*
X130700000Y-68700000D02*
X131100000Y-69100000D01*
X128350000Y-68700000D02*
X130700000Y-68700000D01*
X128100000Y-68950000D02*
X128350000Y-68700000D01*
X128050000Y-72100000D02*
X128050000Y-71150000D01*
X128350000Y-70850000D02*
X128350000Y-68700000D01*
X128050000Y-71150000D02*
X128350000Y-70850000D01*
%TO.N,+5V*%
X125029000Y-84013000D02*
X127805000Y-84013000D01*
D28*
X107652820Y-92933520D02*
X107652820Y-91102180D01*
X107652820Y-91102180D02*
X108585000Y-90170000D01*
X108585000Y-90170000D02*
X113157000Y-90170000D01*
X116103400Y-87223600D02*
X116103400Y-86047580D01*
X113157000Y-90170000D02*
X116103400Y-87223600D01*
D29*
X115247184Y-77597000D02*
X115218089Y-77626095D01*
X117469920Y-77597000D02*
X115247184Y-77597000D01*
X114818090Y-78026094D02*
X115218089Y-77626095D01*
X114818090Y-78998014D02*
X114818090Y-78026094D01*
D27*
X116321800Y-84013000D02*
X116103400Y-83794600D01*
X116210000Y-79497000D02*
X117219920Y-79497000D01*
X116103400Y-79603600D02*
X116210000Y-79497000D01*
X125029000Y-84013000D02*
X125029000Y-85405000D01*
X125029000Y-84013000D02*
X116321800Y-84013000D01*
X125029000Y-85405000D02*
X125603000Y-85979000D01*
X127489000Y-85979000D02*
X127555000Y-85913000D01*
X125603000Y-85979000D02*
X127489000Y-85979000D01*
D28*
X115218089Y-77626095D02*
X114600000Y-78244184D01*
X114600000Y-78244184D02*
X114600000Y-80100000D01*
X116103400Y-81603400D02*
X116103400Y-84846600D01*
X114600000Y-80100000D02*
X116103400Y-81603400D01*
D29*
X116103400Y-84846600D02*
X116103400Y-83794600D01*
X116103400Y-86047580D02*
X116103400Y-84846600D01*
D27*
X116103400Y-81603400D02*
X116103400Y-80096600D01*
X116103400Y-80096600D02*
X116103400Y-79603600D01*
X116103400Y-80283324D02*
X116103400Y-80096600D01*
D28*
X108810360Y-78133640D02*
X108839000Y-78105000D01*
X108810360Y-80409320D02*
X108810360Y-78133640D01*
D27*
%TO.N,/NRST*%
X145103702Y-71497000D02*
X145480702Y-71120000D01*
X145480702Y-71120000D02*
X146685000Y-71120000D01*
X144300500Y-71497000D02*
X145103702Y-71497000D01*
X161400000Y-51150000D02*
X159150000Y-51150000D01*
X159150000Y-51150000D02*
X156387000Y-48387000D01*
X130566160Y-44886880D02*
X130566160Y-43383840D01*
X130566160Y-43383840D02*
X131600000Y-42350000D01*
X131600000Y-42350000D02*
X149850000Y-42350000D01*
X150874999Y-43374999D02*
X149850000Y-42350000D01*
X150874999Y-47948999D02*
X150874999Y-43374999D01*
X150874999Y-47948999D02*
X151313000Y-48387000D01*
X156387000Y-48387000D02*
X151313000Y-48387000D01*
%TO.N,+3V3*%
X175044100Y-72104000D02*
X175105060Y-72043040D01*
D28*
X122936000Y-77643000D02*
X122936000Y-75819000D01*
D27*
X122890000Y-77597000D02*
X122936000Y-77643000D01*
X119669920Y-77597000D02*
X122890000Y-77597000D01*
X153543000Y-77094000D02*
X153543000Y-76581000D01*
X153543000Y-77094000D02*
X153543000Y-75438000D01*
X153514500Y-75409500D02*
X153543000Y-75438000D01*
X151213000Y-75409500D02*
X153514500Y-75409500D01*
X154559000Y-67310000D02*
X153416000Y-67310000D01*
X152625500Y-68100500D02*
X153416000Y-67310000D01*
X152625500Y-68497000D02*
X152625500Y-68100500D01*
X172593000Y-72104000D02*
X173228000Y-72104000D01*
X173498000Y-72374000D02*
X175386000Y-72374000D01*
X173228000Y-72104000D02*
X173498000Y-72374000D01*
X169163000Y-42371000D02*
X169163000Y-43721000D01*
X144300500Y-68497000D02*
X143497000Y-68497000D01*
X143497000Y-68497000D02*
X143100000Y-68100000D01*
X143100000Y-68100000D02*
X143100000Y-67600000D01*
X165050000Y-51150000D02*
X165600000Y-50600000D01*
X164100000Y-51150000D02*
X165050000Y-51150000D01*
X165600000Y-49600000D02*
X165100000Y-49100000D01*
X165600000Y-50600000D02*
X165600000Y-49600000D01*
X145084500Y-67084500D02*
X144100000Y-66100000D01*
X145713000Y-67084500D02*
X145084500Y-67084500D01*
X144100000Y-64600000D02*
X144100000Y-66100000D01*
X141100000Y-65600000D02*
X143100000Y-67600000D01*
X141100000Y-64600000D02*
X141100000Y-65600000D01*
X109025000Y-40600000D02*
X108600000Y-40600000D01*
X107600000Y-41600000D02*
X107600000Y-40850000D01*
X107600000Y-40850000D02*
X107850000Y-40600000D01*
X107850000Y-40600000D02*
X109025000Y-40600000D01*
X172850000Y-62600000D02*
X171350000Y-64100000D01*
X171350000Y-70861000D02*
X172593000Y-72104000D01*
X171350000Y-64100000D02*
X171350000Y-70861000D01*
%TO.N,+3.3VADC*%
X144300500Y-72497000D02*
X141833280Y-72497000D01*
X141833280Y-72497000D02*
X141328140Y-73002140D01*
X130071000Y-83947000D02*
X130005000Y-84013000D01*
X131318000Y-83947000D02*
X130071000Y-83947000D01*
X130005000Y-81363500D02*
X130088500Y-81280000D01*
X130005000Y-84013000D02*
X130005000Y-81363500D01*
X132471000Y-85100000D02*
X132600000Y-85100000D01*
X131318000Y-83947000D02*
X132471000Y-85100000D01*
%TO.N,/LED0*%
X139100000Y-60100000D02*
X136100000Y-57100000D01*
X143107315Y-68997000D02*
X139100000Y-64989685D01*
X139100000Y-64989685D02*
X139100000Y-60100000D01*
X144300500Y-68997000D02*
X143107315Y-68997000D01*
X114725000Y-40600000D02*
X132350000Y-40600000D01*
X136100000Y-52100000D02*
X136100000Y-52600000D01*
X133600000Y-49600000D02*
X136100000Y-52100000D01*
X136100000Y-52600000D02*
X136100000Y-57100000D01*
%TO.N,Net-(D1-Pad2)*%
X110850000Y-40600000D02*
X112850000Y-40600000D01*
%TO.N,Net-(J2-Pad3)*%
X151330320Y-53871200D02*
X151356060Y-53845460D01*
X151356060Y-53845460D02*
X149730460Y-53845460D01*
X149163700Y-53278700D02*
X147579080Y-53278700D01*
X149730460Y-53845460D02*
X149163700Y-53278700D01*
X152100000Y-46100000D02*
X151600000Y-46600000D01*
X153187500Y-46100000D02*
X152100000Y-46100000D01*
%TO.N,Net-(J2-Pad4)*%
X153896060Y-53845460D02*
X154561540Y-53845460D01*
X155157680Y-53249320D02*
X157083760Y-53249320D01*
X154561540Y-53845460D02*
X155157680Y-53249320D01*
X158100000Y-46100000D02*
X157600000Y-46600000D01*
X159275000Y-46100000D02*
X158100000Y-46100000D01*
%TO.N,/SWCLK*%
X151213000Y-66132260D02*
X151731980Y-65613280D01*
X151213000Y-67084500D02*
X151213000Y-66132260D01*
%TO.N,/SWDIO*%
X154417256Y-69497000D02*
X154944088Y-68970168D01*
X152625500Y-69497000D02*
X154417256Y-69497000D01*
%TO.N,Net-(J3-Pad1)*%
X164365940Y-85877400D02*
X164365940Y-87784940D01*
X164846000Y-88265000D02*
X164846000Y-91059000D01*
X164365940Y-87784940D02*
X164846000Y-88265000D01*
%TO.N,/UART1_TXD*%
X148713000Y-61809440D02*
X148094700Y-61191140D01*
X148713000Y-67084500D02*
X148713000Y-61809440D01*
X112268000Y-55372000D02*
X113861010Y-55372000D01*
X145897600Y-44958000D02*
X145897600Y-46302400D01*
X145897600Y-46302400D02*
X144100000Y-48100000D01*
X144100000Y-48100000D02*
X119236410Y-48100000D01*
X115616505Y-51719905D02*
X115616505Y-53616505D01*
X119236410Y-48100000D02*
X115616505Y-51719905D01*
X113861010Y-55372000D02*
X115616505Y-53616505D01*
%TO.N,/UART1_RXD*%
X148213000Y-62960440D02*
X147579080Y-62326520D01*
X148213000Y-67084500D02*
X148213000Y-62960440D01*
X112268000Y-52832000D02*
X113868000Y-52832000D01*
X113868000Y-52832000D02*
X119100000Y-47600000D01*
X142600000Y-47600000D02*
X143357600Y-46842400D01*
X119100000Y-47600000D02*
X142600000Y-47600000D01*
X143357600Y-44958000D02*
X143357600Y-46842400D01*
%TO.N,/I2C1_SCL*%
X147213000Y-67084500D02*
X147213000Y-63917650D01*
X147213000Y-63917650D02*
X146099270Y-62803920D01*
X146099270Y-52599270D02*
X145100000Y-51600000D01*
X146099270Y-62803920D02*
X146099270Y-52599270D01*
%TO.N,/I2C1_SDA*%
X145600000Y-63100000D02*
X145600000Y-54100000D01*
X146713000Y-64213000D02*
X145600000Y-63100000D01*
X146713000Y-67084500D02*
X146713000Y-64213000D01*
X144100000Y-51600000D02*
X144100000Y-52100000D01*
X144100000Y-52600000D02*
X145600000Y-54100000D01*
X144100000Y-51600000D02*
X144100000Y-52600000D01*
%TO.N,/PB10*%
X149713000Y-78318680D02*
X150931880Y-79537560D01*
X149713000Y-75409500D02*
X149713000Y-78318680D01*
%TO.N,/PB11*%
X150213000Y-77299760D02*
X151823420Y-78910180D01*
X150213000Y-75409500D02*
X150213000Y-77299760D01*
%TO.N,/PA10*%
X150880000Y-70997000D02*
X150495000Y-70612000D01*
X152625500Y-70997000D02*
X150880000Y-70997000D01*
%TO.N,/PB12*%
X153751810Y-73997000D02*
X152625500Y-73997000D01*
X155148280Y-75393470D02*
X153751810Y-73997000D01*
X155148280Y-81183480D02*
X155148280Y-75393470D01*
X149766020Y-86565740D02*
X155148280Y-81183480D01*
X134104100Y-86565740D02*
X149766020Y-86565740D01*
X131768710Y-88901130D02*
X134104100Y-86565740D01*
X116765210Y-88901130D02*
X131768710Y-88901130D01*
X112732820Y-92933520D02*
X116765210Y-88901130D01*
%TO.N,/PA9*%
X150880000Y-71497000D02*
X150495000Y-71882000D01*
X152625500Y-71497000D02*
X150880000Y-71497000D01*
%TO.N,/PB13*%
X152625500Y-73497000D02*
X154106440Y-73497000D01*
X155719780Y-75110340D02*
X155719780Y-81356200D01*
X154106440Y-73497000D02*
X155719780Y-75110340D01*
X115272820Y-92933520D02*
X118706900Y-89499440D01*
X131806810Y-89499440D02*
X134229970Y-87076280D01*
X118706900Y-89499440D02*
X131806810Y-89499440D01*
X134229970Y-87076280D02*
X149999700Y-87076280D01*
X149999700Y-87076280D02*
X155719780Y-81356200D01*
%TO.N,/PB14*%
X120637300Y-90109040D02*
X117812820Y-92933520D01*
X131833620Y-90109040D02*
X120637300Y-90109040D01*
X156309060Y-81506060D02*
X150267530Y-87547590D01*
X152625500Y-72997000D02*
X154360590Y-72997000D01*
X134395070Y-87547590D02*
X131833620Y-90109040D01*
X150267530Y-87547590D02*
X134395070Y-87547590D01*
X156309060Y-74945470D02*
X156309060Y-81506060D01*
X154360590Y-72997000D02*
X156309060Y-74945470D01*
%TO.N,/PA3*%
X145713000Y-76458260D02*
X145130520Y-77040740D01*
X145713000Y-75409500D02*
X145713000Y-76458260D01*
X138289081Y-73927919D02*
X138289081Y-76615341D01*
X138689080Y-73527920D02*
X138289081Y-73927919D01*
X138714480Y-77040740D02*
X145130520Y-77040740D01*
X138289081Y-76615341D02*
X138714480Y-77040740D01*
%TO.N,/PB15*%
X122661680Y-90624660D02*
X120352820Y-92933520D01*
X132133340Y-90624660D02*
X122661680Y-90624660D01*
X134752080Y-88005920D02*
X132133340Y-90624660D01*
X154497000Y-72497000D02*
X156895800Y-74895800D01*
X152625500Y-72497000D02*
X154497000Y-72497000D01*
X156895800Y-74895800D02*
X156895800Y-81587340D01*
X156895800Y-81587340D02*
X150477220Y-88005920D01*
X150477220Y-88005920D02*
X134752080Y-88005920D01*
%TO.N,/PA2*%
X141388162Y-75888518D02*
X140298280Y-75888518D01*
X143279680Y-73997000D02*
X141388162Y-75888518D01*
X144300500Y-73997000D02*
X143279680Y-73997000D01*
%TO.N,/PA1*%
X141431142Y-75112880D02*
X139354560Y-75112880D01*
X143047022Y-73497000D02*
X141431142Y-75112880D01*
X144300500Y-73497000D02*
X143047022Y-73497000D01*
%TO.N,/PA0*%
X144300500Y-72997000D02*
X142910612Y-72997000D01*
X142910612Y-72997000D02*
X141528792Y-74378820D01*
X141528792Y-74378820D02*
X140258800Y-74378820D01*
%TO.N,/ADC_IN6*%
X147213000Y-80645320D02*
X146829780Y-81028540D01*
X147213000Y-75409500D02*
X147213000Y-80645320D01*
X142748000Y-82550000D02*
X146177000Y-82550000D01*
X139192000Y-78994000D02*
X142748000Y-82550000D01*
X146177000Y-82550000D02*
X146829780Y-81897220D01*
X146829780Y-81897220D02*
X146829780Y-81028540D01*
X126850000Y-75100000D02*
X125350000Y-75100000D01*
X123600000Y-73350000D02*
X122100000Y-73350000D01*
X125350000Y-75100000D02*
X123600000Y-73350000D01*
%TO.N,/DAC_OUT1*%
X146213000Y-75409500D02*
X146213000Y-79209460D01*
X146213000Y-79209460D02*
X144447260Y-80975200D01*
%TO.N,/ADC_IN7*%
X147713000Y-80725580D02*
X148046440Y-81059020D01*
X147713000Y-75409500D02*
X147713000Y-80725580D01*
%TO.N,/DAC_OUT2*%
X146713000Y-79893100D02*
X145577560Y-81028540D01*
X146713000Y-75409500D02*
X146713000Y-79893100D01*
%TO.N,/ADC_IN8*%
X148213000Y-79749840D02*
X149542500Y-81079340D01*
X148213000Y-75409500D02*
X148213000Y-79749840D01*
%TO.N,/ADC_IN9*%
X148713000Y-79114460D02*
X150652480Y-81053940D01*
X148713000Y-75409500D02*
X148713000Y-79114460D01*
%TO.N,/DIO5*%
X159386000Y-78374000D02*
X162576000Y-78374000D01*
X165600000Y-59100000D02*
X164350000Y-60350000D01*
X164350000Y-76600000D02*
X163850000Y-77100000D01*
X164350000Y-60350000D02*
X164350000Y-76600000D01*
X162576000Y-78374000D02*
X163850000Y-77100000D01*
%TO.N,/DIO4*%
X171874000Y-74374000D02*
X168699982Y-71199982D01*
X175386000Y-74374000D02*
X171874000Y-74374000D01*
X168199982Y-71199982D02*
X166100000Y-69100000D01*
X168699982Y-71199982D02*
X168199982Y-71199982D01*
X166099999Y-62849999D02*
X165600000Y-62350000D01*
X166100000Y-69100000D02*
X166099999Y-62849999D01*
%TO.N,/DIO3*%
X173374000Y-76374000D02*
X173100000Y-76100000D01*
X175386000Y-76374000D02*
X173374000Y-76374000D01*
X171736410Y-73600000D02*
X172600000Y-73600000D01*
X166850000Y-68713590D02*
X171736410Y-73600000D01*
X166850000Y-60600000D02*
X166850000Y-68713590D01*
X168350000Y-59100000D02*
X166850000Y-60600000D01*
%TO.N,/DIO2*%
X175362000Y-66350000D02*
X175386000Y-66374000D01*
X172850000Y-66350000D02*
X175362000Y-66350000D01*
X168350000Y-62350000D02*
X168350000Y-65350000D01*
X169350000Y-66350000D02*
X170600000Y-66350000D01*
X168350000Y-65350000D02*
X169350000Y-66350000D01*
%TO.N,/BOOT1*%
X149213000Y-74606298D02*
X149204680Y-74597978D01*
X149213000Y-75409500D02*
X149213000Y-74606298D01*
X149204680Y-74597978D02*
X149204680Y-71236840D01*
X149202140Y-71234300D02*
X149202140Y-70032880D01*
X149204680Y-71236840D02*
X149202140Y-71234300D01*
X155884880Y-58780680D02*
X150611840Y-58780680D01*
X157083760Y-57581800D02*
X155884880Y-58780680D01*
X157083760Y-54656820D02*
X157083760Y-57581800D01*
%TO.N,Net-(R2-Pad2)*%
X119850000Y-55600000D02*
X118600000Y-55600000D01*
X118600000Y-73350000D02*
X120275000Y-73350000D01*
X121600000Y-53850000D02*
X121600000Y-52600000D01*
X121350000Y-54100000D02*
X121600000Y-53850000D01*
X120100000Y-54100000D02*
X121350000Y-54100000D01*
X119850000Y-54350000D02*
X120100000Y-54100000D01*
X119850000Y-55600000D02*
X119850000Y-54350000D01*
%TO.N,/BOOT0*%
X147713000Y-67084500D02*
X147713000Y-63781240D01*
X147713000Y-63781240D02*
X146549280Y-62617520D01*
X146549280Y-62617520D02*
X146549280Y-57031720D01*
X147579080Y-56001920D02*
X147579080Y-54686200D01*
X146549280Y-57031720D02*
X147579080Y-56001920D01*
%TO.N,Net-(R6-Pad2)*%
X111810360Y-80409320D02*
X111810360Y-79959640D01*
X111810360Y-78943640D02*
X111810360Y-80409320D01*
X112268000Y-78486000D02*
X111810360Y-78943640D01*
X112903000Y-78486000D02*
X112268000Y-78486000D01*
X113157000Y-78232000D02*
X112903000Y-78486000D01*
X113157000Y-77343000D02*
X113157000Y-78232000D01*
%TO.N,/NRST_LORA*%
X159386000Y-76374000D02*
X157624000Y-76374000D01*
X157345810Y-76095810D02*
X157345809Y-74709399D01*
X157624000Y-76374000D02*
X157345810Y-76095810D01*
X154633410Y-71997000D02*
X154497000Y-71997000D01*
X157345809Y-74709399D02*
X154633410Y-71997000D01*
X152625500Y-71997000D02*
X154497000Y-71997000D01*
%TO.N,/RX_DONE*%
X155494258Y-71501000D02*
X156337000Y-71501000D01*
X154490258Y-70497000D02*
X155494258Y-71501000D01*
X152625500Y-70497000D02*
X154490258Y-70497000D01*
X172974000Y-69437000D02*
X173911000Y-70374000D01*
X175386000Y-70374000D02*
X173911000Y-70374000D01*
%TO.N,/RX_TIMEOUT*%
X155478258Y-70485000D02*
X155956000Y-70485000D01*
X154990258Y-69997000D02*
X155478258Y-70485000D01*
X152625500Y-69997000D02*
X154990258Y-69997000D01*
X175306000Y-68294000D02*
X175386000Y-68374000D01*
X172847000Y-68294000D02*
X175306000Y-68294000D01*
%TO.N,/NSS1*%
X151568002Y-64516000D02*
X151765000Y-64516000D01*
X150713000Y-65371002D02*
X151568002Y-64516000D01*
X150713000Y-67084500D02*
X150713000Y-65371002D01*
X163899010Y-61156010D02*
X163195000Y-60452000D01*
X163899010Y-72300990D02*
X163899010Y-61156010D01*
X161826000Y-74374000D02*
X163899010Y-72300990D01*
X159386000Y-74374000D02*
X161826000Y-74374000D01*
%TO.N,/SCK1*%
X150213000Y-64798000D02*
X151638000Y-63373000D01*
X150213000Y-67084500D02*
X150213000Y-64798000D01*
X160148410Y-58928000D02*
X158623000Y-58928000D01*
X163449000Y-62228590D02*
X160148410Y-58928000D01*
X163449000Y-70501000D02*
X163449000Y-62228590D01*
X161576000Y-72374000D02*
X163449000Y-70501000D01*
X159386000Y-72374000D02*
X161576000Y-72374000D01*
%TO.N,/MISO1*%
X161337000Y-68374000D02*
X159386000Y-68374000D01*
X149737990Y-66543010D02*
X149713000Y-66568000D01*
X149737990Y-64003010D02*
X149737990Y-66543010D01*
X149713000Y-66568000D02*
X149713000Y-67084500D01*
X160401000Y-60706000D02*
X153035000Y-60706000D01*
X153035000Y-60706000D02*
X149737990Y-64003010D01*
X162433000Y-62738000D02*
X160401000Y-60706000D01*
X162433000Y-67278000D02*
X162433000Y-62738000D01*
X161337000Y-68374000D02*
X162433000Y-67278000D01*
%TO.N,/MOSI1*%
X149213000Y-63639000D02*
X149213000Y-67084500D01*
X152781000Y-60071000D02*
X149213000Y-63639000D01*
X160655000Y-60071000D02*
X152781000Y-60071000D01*
X162941000Y-62357000D02*
X160655000Y-60071000D01*
X162941000Y-69759000D02*
X162941000Y-62357000D01*
X162326000Y-70374000D02*
X162941000Y-69759000D01*
X159386000Y-70374000D02*
X162326000Y-70374000D01*
%TO.N,Net-(C7-Pad1)*%
X169163000Y-40546000D02*
X172465000Y-40546000D01*
X169050000Y-53050000D02*
X169100000Y-53000000D01*
X164100000Y-53050000D02*
X169050000Y-53050000D01*
X169100000Y-53000000D02*
X169100000Y-47200000D01*
X167700000Y-47200000D02*
X166600000Y-46100000D01*
X169100000Y-47200000D02*
X167700000Y-47200000D01*
X169163000Y-40546000D02*
X168154000Y-40546000D01*
X168154000Y-40546000D02*
X166600000Y-42100000D01*
X166600000Y-46100000D02*
X166600000Y-42100000D01*
D28*
%TO.N,Net-(C1-Pad1)*%
X116100000Y-66125000D02*
X116078000Y-66147000D01*
X116100000Y-63600000D02*
X116100000Y-66125000D01*
X108100000Y-76600000D02*
X107600000Y-77100000D01*
X109600000Y-76600000D02*
X108100000Y-76600000D01*
X110343000Y-77343000D02*
X109600000Y-76600000D01*
X111332000Y-77343000D02*
X110343000Y-77343000D01*
X107310360Y-77389640D02*
X107600000Y-77100000D01*
X107310360Y-79139640D02*
X107310360Y-77389640D01*
D29*
X107310360Y-80409320D02*
X107310360Y-79139640D01*
X110650000Y-59600000D02*
X110600000Y-59650000D01*
X115100000Y-59600000D02*
X110650000Y-59600000D01*
X115100000Y-59600000D02*
X115100000Y-58100000D01*
%TO.N,Net-(D2-Pad2)*%
X121025000Y-61500000D02*
X121100000Y-61425000D01*
X114100000Y-61550000D02*
X114150000Y-61600000D01*
X110600000Y-61550000D02*
X114100000Y-61550000D01*
X121100000Y-61425000D02*
X118525000Y-61425000D01*
X117445999Y-62504001D02*
X114504001Y-62504001D01*
X118525000Y-61425000D02*
X117445999Y-62504001D01*
X114150000Y-62150000D02*
X114150000Y-61600000D01*
X114504001Y-62504001D02*
X114150000Y-62150000D01*
%TD*%
M02*
