%TF.GenerationSoftware,KiCad,Pcbnew,5.1.12-84ad8e8a86~92~ubuntu20.04.1*%
%TF.CreationDate,2022-08-01T12:29:38-07:00*%
%TF.ProjectId,LoRaXcvr_R2,4c6f5261-5863-4767-925f-52322e6b6963,rev?*%
%TF.SameCoordinates,Original*%
%TF.FileFunction,Soldermask,Top*%
%TF.FilePolarity,Negative*%
%FSLAX46Y46*%
G04 Gerber Fmt 4.6, Leading zero omitted, Abs format (unit mm)*
G04 Created by KiCad (PCBNEW 5.1.12-84ad8e8a86~92~ubuntu20.04.1) date 2022-08-01 12:29:38*
%MOMM*%
%LPD*%
G01*
G04 APERTURE LIST*
%ADD10R,1.700000X1.700000*%
%ADD11O,1.700000X1.700000*%
%ADD12R,1.000000X1.000000*%
%ADD13R,2.200000X1.000000*%
%ADD14R,2.100000X2.100000*%
%ADD15C,2.100000*%
%ADD16R,2.000000X7.875000*%
%ADD17R,1.000000X2.200000*%
%ADD18R,3.400000X1.800000*%
%ADD19R,1.000000X2.800000*%
%ADD20R,2.000000X1.000000*%
%ADD21C,2.500000*%
%ADD22R,1.560000X0.650000*%
%ADD23R,1.300000X1.900000*%
%ADD24R,0.900000X0.800000*%
%ADD25R,0.800000X0.900000*%
%ADD26C,1.000000*%
G04 APERTURE END LIST*
%TO.C,U4*%
G36*
G01*
X143563000Y-68572000D02*
X143563000Y-68422000D01*
G75*
G02*
X143638000Y-68347000I75000J0D01*
G01*
X144963000Y-68347000D01*
G75*
G02*
X145038000Y-68422000I0J-75000D01*
G01*
X145038000Y-68572000D01*
G75*
G02*
X144963000Y-68647000I-75000J0D01*
G01*
X143638000Y-68647000D01*
G75*
G02*
X143563000Y-68572000I0J75000D01*
G01*
G37*
G36*
G01*
X143563000Y-69072000D02*
X143563000Y-68922000D01*
G75*
G02*
X143638000Y-68847000I75000J0D01*
G01*
X144963000Y-68847000D01*
G75*
G02*
X145038000Y-68922000I0J-75000D01*
G01*
X145038000Y-69072000D01*
G75*
G02*
X144963000Y-69147000I-75000J0D01*
G01*
X143638000Y-69147000D01*
G75*
G02*
X143563000Y-69072000I0J75000D01*
G01*
G37*
G36*
G01*
X143563000Y-69572000D02*
X143563000Y-69422000D01*
G75*
G02*
X143638000Y-69347000I75000J0D01*
G01*
X144963000Y-69347000D01*
G75*
G02*
X145038000Y-69422000I0J-75000D01*
G01*
X145038000Y-69572000D01*
G75*
G02*
X144963000Y-69647000I-75000J0D01*
G01*
X143638000Y-69647000D01*
G75*
G02*
X143563000Y-69572000I0J75000D01*
G01*
G37*
G36*
G01*
X143563000Y-70072000D02*
X143563000Y-69922000D01*
G75*
G02*
X143638000Y-69847000I75000J0D01*
G01*
X144963000Y-69847000D01*
G75*
G02*
X145038000Y-69922000I0J-75000D01*
G01*
X145038000Y-70072000D01*
G75*
G02*
X144963000Y-70147000I-75000J0D01*
G01*
X143638000Y-70147000D01*
G75*
G02*
X143563000Y-70072000I0J75000D01*
G01*
G37*
G36*
G01*
X143563000Y-70572000D02*
X143563000Y-70422000D01*
G75*
G02*
X143638000Y-70347000I75000J0D01*
G01*
X144963000Y-70347000D01*
G75*
G02*
X145038000Y-70422000I0J-75000D01*
G01*
X145038000Y-70572000D01*
G75*
G02*
X144963000Y-70647000I-75000J0D01*
G01*
X143638000Y-70647000D01*
G75*
G02*
X143563000Y-70572000I0J75000D01*
G01*
G37*
G36*
G01*
X143563000Y-71072000D02*
X143563000Y-70922000D01*
G75*
G02*
X143638000Y-70847000I75000J0D01*
G01*
X144963000Y-70847000D01*
G75*
G02*
X145038000Y-70922000I0J-75000D01*
G01*
X145038000Y-71072000D01*
G75*
G02*
X144963000Y-71147000I-75000J0D01*
G01*
X143638000Y-71147000D01*
G75*
G02*
X143563000Y-71072000I0J75000D01*
G01*
G37*
G36*
G01*
X143563000Y-71572000D02*
X143563000Y-71422000D01*
G75*
G02*
X143638000Y-71347000I75000J0D01*
G01*
X144963000Y-71347000D01*
G75*
G02*
X145038000Y-71422000I0J-75000D01*
G01*
X145038000Y-71572000D01*
G75*
G02*
X144963000Y-71647000I-75000J0D01*
G01*
X143638000Y-71647000D01*
G75*
G02*
X143563000Y-71572000I0J75000D01*
G01*
G37*
G36*
G01*
X143563000Y-72072000D02*
X143563000Y-71922000D01*
G75*
G02*
X143638000Y-71847000I75000J0D01*
G01*
X144963000Y-71847000D01*
G75*
G02*
X145038000Y-71922000I0J-75000D01*
G01*
X145038000Y-72072000D01*
G75*
G02*
X144963000Y-72147000I-75000J0D01*
G01*
X143638000Y-72147000D01*
G75*
G02*
X143563000Y-72072000I0J75000D01*
G01*
G37*
G36*
G01*
X143563000Y-72572000D02*
X143563000Y-72422000D01*
G75*
G02*
X143638000Y-72347000I75000J0D01*
G01*
X144963000Y-72347000D01*
G75*
G02*
X145038000Y-72422000I0J-75000D01*
G01*
X145038000Y-72572000D01*
G75*
G02*
X144963000Y-72647000I-75000J0D01*
G01*
X143638000Y-72647000D01*
G75*
G02*
X143563000Y-72572000I0J75000D01*
G01*
G37*
G36*
G01*
X143563000Y-73072000D02*
X143563000Y-72922000D01*
G75*
G02*
X143638000Y-72847000I75000J0D01*
G01*
X144963000Y-72847000D01*
G75*
G02*
X145038000Y-72922000I0J-75000D01*
G01*
X145038000Y-73072000D01*
G75*
G02*
X144963000Y-73147000I-75000J0D01*
G01*
X143638000Y-73147000D01*
G75*
G02*
X143563000Y-73072000I0J75000D01*
G01*
G37*
G36*
G01*
X143563000Y-73572000D02*
X143563000Y-73422000D01*
G75*
G02*
X143638000Y-73347000I75000J0D01*
G01*
X144963000Y-73347000D01*
G75*
G02*
X145038000Y-73422000I0J-75000D01*
G01*
X145038000Y-73572000D01*
G75*
G02*
X144963000Y-73647000I-75000J0D01*
G01*
X143638000Y-73647000D01*
G75*
G02*
X143563000Y-73572000I0J75000D01*
G01*
G37*
G36*
G01*
X143563000Y-74072000D02*
X143563000Y-73922000D01*
G75*
G02*
X143638000Y-73847000I75000J0D01*
G01*
X144963000Y-73847000D01*
G75*
G02*
X145038000Y-73922000I0J-75000D01*
G01*
X145038000Y-74072000D01*
G75*
G02*
X144963000Y-74147000I-75000J0D01*
G01*
X143638000Y-74147000D01*
G75*
G02*
X143563000Y-74072000I0J75000D01*
G01*
G37*
G36*
G01*
X145563000Y-76072000D02*
X145563000Y-74747000D01*
G75*
G02*
X145638000Y-74672000I75000J0D01*
G01*
X145788000Y-74672000D01*
G75*
G02*
X145863000Y-74747000I0J-75000D01*
G01*
X145863000Y-76072000D01*
G75*
G02*
X145788000Y-76147000I-75000J0D01*
G01*
X145638000Y-76147000D01*
G75*
G02*
X145563000Y-76072000I0J75000D01*
G01*
G37*
G36*
G01*
X146063000Y-76072000D02*
X146063000Y-74747000D01*
G75*
G02*
X146138000Y-74672000I75000J0D01*
G01*
X146288000Y-74672000D01*
G75*
G02*
X146363000Y-74747000I0J-75000D01*
G01*
X146363000Y-76072000D01*
G75*
G02*
X146288000Y-76147000I-75000J0D01*
G01*
X146138000Y-76147000D01*
G75*
G02*
X146063000Y-76072000I0J75000D01*
G01*
G37*
G36*
G01*
X146563000Y-76072000D02*
X146563000Y-74747000D01*
G75*
G02*
X146638000Y-74672000I75000J0D01*
G01*
X146788000Y-74672000D01*
G75*
G02*
X146863000Y-74747000I0J-75000D01*
G01*
X146863000Y-76072000D01*
G75*
G02*
X146788000Y-76147000I-75000J0D01*
G01*
X146638000Y-76147000D01*
G75*
G02*
X146563000Y-76072000I0J75000D01*
G01*
G37*
G36*
G01*
X147063000Y-76072000D02*
X147063000Y-74747000D01*
G75*
G02*
X147138000Y-74672000I75000J0D01*
G01*
X147288000Y-74672000D01*
G75*
G02*
X147363000Y-74747000I0J-75000D01*
G01*
X147363000Y-76072000D01*
G75*
G02*
X147288000Y-76147000I-75000J0D01*
G01*
X147138000Y-76147000D01*
G75*
G02*
X147063000Y-76072000I0J75000D01*
G01*
G37*
G36*
G01*
X147563000Y-76072000D02*
X147563000Y-74747000D01*
G75*
G02*
X147638000Y-74672000I75000J0D01*
G01*
X147788000Y-74672000D01*
G75*
G02*
X147863000Y-74747000I0J-75000D01*
G01*
X147863000Y-76072000D01*
G75*
G02*
X147788000Y-76147000I-75000J0D01*
G01*
X147638000Y-76147000D01*
G75*
G02*
X147563000Y-76072000I0J75000D01*
G01*
G37*
G36*
G01*
X148063000Y-76072000D02*
X148063000Y-74747000D01*
G75*
G02*
X148138000Y-74672000I75000J0D01*
G01*
X148288000Y-74672000D01*
G75*
G02*
X148363000Y-74747000I0J-75000D01*
G01*
X148363000Y-76072000D01*
G75*
G02*
X148288000Y-76147000I-75000J0D01*
G01*
X148138000Y-76147000D01*
G75*
G02*
X148063000Y-76072000I0J75000D01*
G01*
G37*
G36*
G01*
X148563000Y-76072000D02*
X148563000Y-74747000D01*
G75*
G02*
X148638000Y-74672000I75000J0D01*
G01*
X148788000Y-74672000D01*
G75*
G02*
X148863000Y-74747000I0J-75000D01*
G01*
X148863000Y-76072000D01*
G75*
G02*
X148788000Y-76147000I-75000J0D01*
G01*
X148638000Y-76147000D01*
G75*
G02*
X148563000Y-76072000I0J75000D01*
G01*
G37*
G36*
G01*
X149063000Y-76072000D02*
X149063000Y-74747000D01*
G75*
G02*
X149138000Y-74672000I75000J0D01*
G01*
X149288000Y-74672000D01*
G75*
G02*
X149363000Y-74747000I0J-75000D01*
G01*
X149363000Y-76072000D01*
G75*
G02*
X149288000Y-76147000I-75000J0D01*
G01*
X149138000Y-76147000D01*
G75*
G02*
X149063000Y-76072000I0J75000D01*
G01*
G37*
G36*
G01*
X149563000Y-76072000D02*
X149563000Y-74747000D01*
G75*
G02*
X149638000Y-74672000I75000J0D01*
G01*
X149788000Y-74672000D01*
G75*
G02*
X149863000Y-74747000I0J-75000D01*
G01*
X149863000Y-76072000D01*
G75*
G02*
X149788000Y-76147000I-75000J0D01*
G01*
X149638000Y-76147000D01*
G75*
G02*
X149563000Y-76072000I0J75000D01*
G01*
G37*
G36*
G01*
X150063000Y-76072000D02*
X150063000Y-74747000D01*
G75*
G02*
X150138000Y-74672000I75000J0D01*
G01*
X150288000Y-74672000D01*
G75*
G02*
X150363000Y-74747000I0J-75000D01*
G01*
X150363000Y-76072000D01*
G75*
G02*
X150288000Y-76147000I-75000J0D01*
G01*
X150138000Y-76147000D01*
G75*
G02*
X150063000Y-76072000I0J75000D01*
G01*
G37*
G36*
G01*
X150563000Y-76072000D02*
X150563000Y-74747000D01*
G75*
G02*
X150638000Y-74672000I75000J0D01*
G01*
X150788000Y-74672000D01*
G75*
G02*
X150863000Y-74747000I0J-75000D01*
G01*
X150863000Y-76072000D01*
G75*
G02*
X150788000Y-76147000I-75000J0D01*
G01*
X150638000Y-76147000D01*
G75*
G02*
X150563000Y-76072000I0J75000D01*
G01*
G37*
G36*
G01*
X151063000Y-76072000D02*
X151063000Y-74747000D01*
G75*
G02*
X151138000Y-74672000I75000J0D01*
G01*
X151288000Y-74672000D01*
G75*
G02*
X151363000Y-74747000I0J-75000D01*
G01*
X151363000Y-76072000D01*
G75*
G02*
X151288000Y-76147000I-75000J0D01*
G01*
X151138000Y-76147000D01*
G75*
G02*
X151063000Y-76072000I0J75000D01*
G01*
G37*
G36*
G01*
X151888000Y-74072000D02*
X151888000Y-73922000D01*
G75*
G02*
X151963000Y-73847000I75000J0D01*
G01*
X153288000Y-73847000D01*
G75*
G02*
X153363000Y-73922000I0J-75000D01*
G01*
X153363000Y-74072000D01*
G75*
G02*
X153288000Y-74147000I-75000J0D01*
G01*
X151963000Y-74147000D01*
G75*
G02*
X151888000Y-74072000I0J75000D01*
G01*
G37*
G36*
G01*
X151888000Y-73572000D02*
X151888000Y-73422000D01*
G75*
G02*
X151963000Y-73347000I75000J0D01*
G01*
X153288000Y-73347000D01*
G75*
G02*
X153363000Y-73422000I0J-75000D01*
G01*
X153363000Y-73572000D01*
G75*
G02*
X153288000Y-73647000I-75000J0D01*
G01*
X151963000Y-73647000D01*
G75*
G02*
X151888000Y-73572000I0J75000D01*
G01*
G37*
G36*
G01*
X151888000Y-73072000D02*
X151888000Y-72922000D01*
G75*
G02*
X151963000Y-72847000I75000J0D01*
G01*
X153288000Y-72847000D01*
G75*
G02*
X153363000Y-72922000I0J-75000D01*
G01*
X153363000Y-73072000D01*
G75*
G02*
X153288000Y-73147000I-75000J0D01*
G01*
X151963000Y-73147000D01*
G75*
G02*
X151888000Y-73072000I0J75000D01*
G01*
G37*
G36*
G01*
X151888000Y-72572000D02*
X151888000Y-72422000D01*
G75*
G02*
X151963000Y-72347000I75000J0D01*
G01*
X153288000Y-72347000D01*
G75*
G02*
X153363000Y-72422000I0J-75000D01*
G01*
X153363000Y-72572000D01*
G75*
G02*
X153288000Y-72647000I-75000J0D01*
G01*
X151963000Y-72647000D01*
G75*
G02*
X151888000Y-72572000I0J75000D01*
G01*
G37*
G36*
G01*
X151888000Y-72072000D02*
X151888000Y-71922000D01*
G75*
G02*
X151963000Y-71847000I75000J0D01*
G01*
X153288000Y-71847000D01*
G75*
G02*
X153363000Y-71922000I0J-75000D01*
G01*
X153363000Y-72072000D01*
G75*
G02*
X153288000Y-72147000I-75000J0D01*
G01*
X151963000Y-72147000D01*
G75*
G02*
X151888000Y-72072000I0J75000D01*
G01*
G37*
G36*
G01*
X151888000Y-71572000D02*
X151888000Y-71422000D01*
G75*
G02*
X151963000Y-71347000I75000J0D01*
G01*
X153288000Y-71347000D01*
G75*
G02*
X153363000Y-71422000I0J-75000D01*
G01*
X153363000Y-71572000D01*
G75*
G02*
X153288000Y-71647000I-75000J0D01*
G01*
X151963000Y-71647000D01*
G75*
G02*
X151888000Y-71572000I0J75000D01*
G01*
G37*
G36*
G01*
X151888000Y-71072000D02*
X151888000Y-70922000D01*
G75*
G02*
X151963000Y-70847000I75000J0D01*
G01*
X153288000Y-70847000D01*
G75*
G02*
X153363000Y-70922000I0J-75000D01*
G01*
X153363000Y-71072000D01*
G75*
G02*
X153288000Y-71147000I-75000J0D01*
G01*
X151963000Y-71147000D01*
G75*
G02*
X151888000Y-71072000I0J75000D01*
G01*
G37*
G36*
G01*
X151888000Y-70572000D02*
X151888000Y-70422000D01*
G75*
G02*
X151963000Y-70347000I75000J0D01*
G01*
X153288000Y-70347000D01*
G75*
G02*
X153363000Y-70422000I0J-75000D01*
G01*
X153363000Y-70572000D01*
G75*
G02*
X153288000Y-70647000I-75000J0D01*
G01*
X151963000Y-70647000D01*
G75*
G02*
X151888000Y-70572000I0J75000D01*
G01*
G37*
G36*
G01*
X151888000Y-70072000D02*
X151888000Y-69922000D01*
G75*
G02*
X151963000Y-69847000I75000J0D01*
G01*
X153288000Y-69847000D01*
G75*
G02*
X153363000Y-69922000I0J-75000D01*
G01*
X153363000Y-70072000D01*
G75*
G02*
X153288000Y-70147000I-75000J0D01*
G01*
X151963000Y-70147000D01*
G75*
G02*
X151888000Y-70072000I0J75000D01*
G01*
G37*
G36*
G01*
X151888000Y-69572000D02*
X151888000Y-69422000D01*
G75*
G02*
X151963000Y-69347000I75000J0D01*
G01*
X153288000Y-69347000D01*
G75*
G02*
X153363000Y-69422000I0J-75000D01*
G01*
X153363000Y-69572000D01*
G75*
G02*
X153288000Y-69647000I-75000J0D01*
G01*
X151963000Y-69647000D01*
G75*
G02*
X151888000Y-69572000I0J75000D01*
G01*
G37*
G36*
G01*
X151888000Y-69072000D02*
X151888000Y-68922000D01*
G75*
G02*
X151963000Y-68847000I75000J0D01*
G01*
X153288000Y-68847000D01*
G75*
G02*
X153363000Y-68922000I0J-75000D01*
G01*
X153363000Y-69072000D01*
G75*
G02*
X153288000Y-69147000I-75000J0D01*
G01*
X151963000Y-69147000D01*
G75*
G02*
X151888000Y-69072000I0J75000D01*
G01*
G37*
G36*
G01*
X151888000Y-68572000D02*
X151888000Y-68422000D01*
G75*
G02*
X151963000Y-68347000I75000J0D01*
G01*
X153288000Y-68347000D01*
G75*
G02*
X153363000Y-68422000I0J-75000D01*
G01*
X153363000Y-68572000D01*
G75*
G02*
X153288000Y-68647000I-75000J0D01*
G01*
X151963000Y-68647000D01*
G75*
G02*
X151888000Y-68572000I0J75000D01*
G01*
G37*
G36*
G01*
X151063000Y-67747000D02*
X151063000Y-66422000D01*
G75*
G02*
X151138000Y-66347000I75000J0D01*
G01*
X151288000Y-66347000D01*
G75*
G02*
X151363000Y-66422000I0J-75000D01*
G01*
X151363000Y-67747000D01*
G75*
G02*
X151288000Y-67822000I-75000J0D01*
G01*
X151138000Y-67822000D01*
G75*
G02*
X151063000Y-67747000I0J75000D01*
G01*
G37*
G36*
G01*
X150563000Y-67747000D02*
X150563000Y-66422000D01*
G75*
G02*
X150638000Y-66347000I75000J0D01*
G01*
X150788000Y-66347000D01*
G75*
G02*
X150863000Y-66422000I0J-75000D01*
G01*
X150863000Y-67747000D01*
G75*
G02*
X150788000Y-67822000I-75000J0D01*
G01*
X150638000Y-67822000D01*
G75*
G02*
X150563000Y-67747000I0J75000D01*
G01*
G37*
G36*
G01*
X150063000Y-67747000D02*
X150063000Y-66422000D01*
G75*
G02*
X150138000Y-66347000I75000J0D01*
G01*
X150288000Y-66347000D01*
G75*
G02*
X150363000Y-66422000I0J-75000D01*
G01*
X150363000Y-67747000D01*
G75*
G02*
X150288000Y-67822000I-75000J0D01*
G01*
X150138000Y-67822000D01*
G75*
G02*
X150063000Y-67747000I0J75000D01*
G01*
G37*
G36*
G01*
X149563000Y-67747000D02*
X149563000Y-66422000D01*
G75*
G02*
X149638000Y-66347000I75000J0D01*
G01*
X149788000Y-66347000D01*
G75*
G02*
X149863000Y-66422000I0J-75000D01*
G01*
X149863000Y-67747000D01*
G75*
G02*
X149788000Y-67822000I-75000J0D01*
G01*
X149638000Y-67822000D01*
G75*
G02*
X149563000Y-67747000I0J75000D01*
G01*
G37*
G36*
G01*
X149063000Y-67747000D02*
X149063000Y-66422000D01*
G75*
G02*
X149138000Y-66347000I75000J0D01*
G01*
X149288000Y-66347000D01*
G75*
G02*
X149363000Y-66422000I0J-75000D01*
G01*
X149363000Y-67747000D01*
G75*
G02*
X149288000Y-67822000I-75000J0D01*
G01*
X149138000Y-67822000D01*
G75*
G02*
X149063000Y-67747000I0J75000D01*
G01*
G37*
G36*
G01*
X148563000Y-67747000D02*
X148563000Y-66422000D01*
G75*
G02*
X148638000Y-66347000I75000J0D01*
G01*
X148788000Y-66347000D01*
G75*
G02*
X148863000Y-66422000I0J-75000D01*
G01*
X148863000Y-67747000D01*
G75*
G02*
X148788000Y-67822000I-75000J0D01*
G01*
X148638000Y-67822000D01*
G75*
G02*
X148563000Y-67747000I0J75000D01*
G01*
G37*
G36*
G01*
X148063000Y-67747000D02*
X148063000Y-66422000D01*
G75*
G02*
X148138000Y-66347000I75000J0D01*
G01*
X148288000Y-66347000D01*
G75*
G02*
X148363000Y-66422000I0J-75000D01*
G01*
X148363000Y-67747000D01*
G75*
G02*
X148288000Y-67822000I-75000J0D01*
G01*
X148138000Y-67822000D01*
G75*
G02*
X148063000Y-67747000I0J75000D01*
G01*
G37*
G36*
G01*
X147563000Y-67747000D02*
X147563000Y-66422000D01*
G75*
G02*
X147638000Y-66347000I75000J0D01*
G01*
X147788000Y-66347000D01*
G75*
G02*
X147863000Y-66422000I0J-75000D01*
G01*
X147863000Y-67747000D01*
G75*
G02*
X147788000Y-67822000I-75000J0D01*
G01*
X147638000Y-67822000D01*
G75*
G02*
X147563000Y-67747000I0J75000D01*
G01*
G37*
G36*
G01*
X147063000Y-67747000D02*
X147063000Y-66422000D01*
G75*
G02*
X147138000Y-66347000I75000J0D01*
G01*
X147288000Y-66347000D01*
G75*
G02*
X147363000Y-66422000I0J-75000D01*
G01*
X147363000Y-67747000D01*
G75*
G02*
X147288000Y-67822000I-75000J0D01*
G01*
X147138000Y-67822000D01*
G75*
G02*
X147063000Y-67747000I0J75000D01*
G01*
G37*
G36*
G01*
X146563000Y-67747000D02*
X146563000Y-66422000D01*
G75*
G02*
X146638000Y-66347000I75000J0D01*
G01*
X146788000Y-66347000D01*
G75*
G02*
X146863000Y-66422000I0J-75000D01*
G01*
X146863000Y-67747000D01*
G75*
G02*
X146788000Y-67822000I-75000J0D01*
G01*
X146638000Y-67822000D01*
G75*
G02*
X146563000Y-67747000I0J75000D01*
G01*
G37*
G36*
G01*
X146063000Y-67747000D02*
X146063000Y-66422000D01*
G75*
G02*
X146138000Y-66347000I75000J0D01*
G01*
X146288000Y-66347000D01*
G75*
G02*
X146363000Y-66422000I0J-75000D01*
G01*
X146363000Y-67747000D01*
G75*
G02*
X146288000Y-67822000I-75000J0D01*
G01*
X146138000Y-67822000D01*
G75*
G02*
X146063000Y-67747000I0J75000D01*
G01*
G37*
G36*
G01*
X145563000Y-67747000D02*
X145563000Y-66422000D01*
G75*
G02*
X145638000Y-66347000I75000J0D01*
G01*
X145788000Y-66347000D01*
G75*
G02*
X145863000Y-66422000I0J-75000D01*
G01*
X145863000Y-67747000D01*
G75*
G02*
X145788000Y-67822000I-75000J0D01*
G01*
X145638000Y-67822000D01*
G75*
G02*
X145563000Y-67747000I0J75000D01*
G01*
G37*
%TD*%
D10*
%TO.C,J8*%
X148437600Y-44958000D03*
D11*
X145897600Y-44958000D03*
X143357600Y-44958000D03*
X140817600Y-44958000D03*
X138277600Y-44958000D03*
X135737600Y-44958000D03*
%TD*%
D10*
%TO.C,J10*%
X125432820Y-92933520D03*
D11*
X122892820Y-92933520D03*
X120352820Y-92933520D03*
X117812820Y-92933520D03*
X115272820Y-92933520D03*
X112732820Y-92933520D03*
X110192820Y-92933520D03*
X107652820Y-92933520D03*
%TD*%
D12*
%TO.C,AE1*%
X172998000Y-86892000D03*
D13*
X174498000Y-85392000D03*
X174498000Y-88392000D03*
%TD*%
%TO.C,C1*%
G36*
G01*
X115152999Y-65022000D02*
X117003001Y-65022000D01*
G75*
G02*
X117253000Y-65271999I0J-249999D01*
G01*
X117253000Y-67022001D01*
G75*
G02*
X117003001Y-67272000I-249999J0D01*
G01*
X115152999Y-67272000D01*
G75*
G02*
X114903000Y-67022001I0J249999D01*
G01*
X114903000Y-65271999D01*
G75*
G02*
X115152999Y-65022000I249999J0D01*
G01*
G37*
G36*
G01*
X115152999Y-70122000D02*
X117003001Y-70122000D01*
G75*
G02*
X117253000Y-70371999I0J-249999D01*
G01*
X117253000Y-72122001D01*
G75*
G02*
X117003001Y-72372000I-249999J0D01*
G01*
X115152999Y-72372000D01*
G75*
G02*
X114903000Y-72122001I0J249999D01*
G01*
X114903000Y-70371999D01*
G75*
G02*
X115152999Y-70122000I249999J0D01*
G01*
G37*
%TD*%
%TO.C,C6*%
G36*
G01*
X120078400Y-86972581D02*
X120078400Y-85122579D01*
G75*
G02*
X120328399Y-84872580I249999J0D01*
G01*
X122078401Y-84872580D01*
G75*
G02*
X122328400Y-85122579I0J-249999D01*
G01*
X122328400Y-86972581D01*
G75*
G02*
X122078401Y-87222580I-249999J0D01*
G01*
X120328399Y-87222580D01*
G75*
G02*
X120078400Y-86972581I0J249999D01*
G01*
G37*
G36*
G01*
X114978400Y-86972581D02*
X114978400Y-85122579D01*
G75*
G02*
X115228399Y-84872580I249999J0D01*
G01*
X116978401Y-84872580D01*
G75*
G02*
X117228400Y-85122579I0J-249999D01*
G01*
X117228400Y-86972581D01*
G75*
G02*
X116978401Y-87222580I-249999J0D01*
G01*
X115228399Y-87222580D01*
G75*
G02*
X114978400Y-86972581I0J249999D01*
G01*
G37*
%TD*%
%TO.C,C9*%
G36*
G01*
X130876000Y-80854999D02*
X130876000Y-81705001D01*
G75*
G02*
X130626001Y-81955000I-249999J0D01*
G01*
X129550999Y-81955000D01*
G75*
G02*
X129301000Y-81705001I0J249999D01*
G01*
X129301000Y-80854999D01*
G75*
G02*
X129550999Y-80605000I249999J0D01*
G01*
X130626001Y-80605000D01*
G75*
G02*
X130876000Y-80854999I0J-249999D01*
G01*
G37*
G36*
G01*
X128001000Y-80854999D02*
X128001000Y-81705001D01*
G75*
G02*
X127751001Y-81955000I-249999J0D01*
G01*
X126675999Y-81955000D01*
G75*
G02*
X126426000Y-81705001I0J249999D01*
G01*
X126426000Y-80854999D01*
G75*
G02*
X126675999Y-80605000I249999J0D01*
G01*
X127751001Y-80605000D01*
G75*
G02*
X128001000Y-80854999I0J-249999D01*
G01*
G37*
%TD*%
D14*
%TO.C,J1*%
X109474000Y-66167000D03*
D15*
X109474000Y-68707000D03*
X109474000Y-71247000D03*
X109474000Y-73787000D03*
%TD*%
D10*
%TO.C,J2*%
X151356060Y-51305460D03*
D11*
X153896060Y-51305460D03*
X151356060Y-53845460D03*
X153896060Y-53845460D03*
X151356060Y-56385460D03*
X153896060Y-56385460D03*
%TD*%
D10*
%TO.C,J4*%
X161825940Y-85877400D03*
D11*
X164365940Y-85877400D03*
%TD*%
D16*
%TO.C,Y1*%
X135001000Y-65690500D03*
X135001000Y-77565500D03*
%TD*%
%TO.C,C8*%
G36*
G01*
X122510999Y-76855500D02*
X123361001Y-76855500D01*
G75*
G02*
X123611000Y-77105499I0J-249999D01*
G01*
X123611000Y-78180501D01*
G75*
G02*
X123361001Y-78430500I-249999J0D01*
G01*
X122510999Y-78430500D01*
G75*
G02*
X122261000Y-78180501I0J249999D01*
G01*
X122261000Y-77105499D01*
G75*
G02*
X122510999Y-76855500I249999J0D01*
G01*
G37*
G36*
G01*
X122510999Y-79730500D02*
X123361001Y-79730500D01*
G75*
G02*
X123611000Y-79980499I0J-249999D01*
G01*
X123611000Y-81055501D01*
G75*
G02*
X123361001Y-81305500I-249999J0D01*
G01*
X122510999Y-81305500D01*
G75*
G02*
X122261000Y-81055501I0J249999D01*
G01*
X122261000Y-79980499D01*
G75*
G02*
X122510999Y-79730500I249999J0D01*
G01*
G37*
%TD*%
D17*
%TO.C,U1*%
X107310360Y-80409320D03*
X110310360Y-80409320D03*
D18*
X109560360Y-86709320D03*
D17*
X108810360Y-80409320D03*
X111810360Y-80409320D03*
%TD*%
D10*
%TO.C,J6*%
X148292820Y-92964000D03*
D11*
X145752820Y-92964000D03*
X143212820Y-92964000D03*
X140672820Y-92964000D03*
X138132820Y-92964000D03*
X135592820Y-92964000D03*
X133052820Y-92964000D03*
X130512820Y-92964000D03*
%TD*%
D10*
%TO.C,J7*%
X130566160Y-44886880D03*
D11*
X128026160Y-44886880D03*
X125486160Y-44886880D03*
X122946160Y-44886880D03*
X120406160Y-44886880D03*
X117866160Y-44886880D03*
X115326160Y-44886880D03*
X112786160Y-44886880D03*
X110246160Y-44886880D03*
X107706160Y-44886880D03*
%TD*%
D19*
%TO.C,SW1*%
X173100000Y-47200000D03*
X173100000Y-53000000D03*
X169100000Y-47200000D03*
X169100000Y-53000000D03*
%TD*%
%TO.C,R9*%
G36*
G01*
X111362500Y-40149998D02*
X111362500Y-41050002D01*
G75*
G02*
X111112502Y-41300000I-249998J0D01*
G01*
X110587498Y-41300000D01*
G75*
G02*
X110337500Y-41050002I0J249998D01*
G01*
X110337500Y-40149998D01*
G75*
G02*
X110587498Y-39900000I249998J0D01*
G01*
X111112502Y-39900000D01*
G75*
G02*
X111362500Y-40149998I0J-249998D01*
G01*
G37*
G36*
G01*
X109537500Y-40149998D02*
X109537500Y-41050002D01*
G75*
G02*
X109287502Y-41300000I-249998J0D01*
G01*
X108762498Y-41300000D01*
G75*
G02*
X108512500Y-41050002I0J249998D01*
G01*
X108512500Y-40149998D01*
G75*
G02*
X108762498Y-39900000I249998J0D01*
G01*
X109287502Y-39900000D01*
G75*
G02*
X109537500Y-40149998I0J-249998D01*
G01*
G37*
%TD*%
%TO.C,R1*%
G36*
G01*
X148029082Y-55703700D02*
X147129078Y-55703700D01*
G75*
G02*
X146879080Y-55453702I0J249998D01*
G01*
X146879080Y-54928698D01*
G75*
G02*
X147129078Y-54678700I249998J0D01*
G01*
X148029082Y-54678700D01*
G75*
G02*
X148279080Y-54928698I0J-249998D01*
G01*
X148279080Y-55453702D01*
G75*
G02*
X148029082Y-55703700I-249998J0D01*
G01*
G37*
G36*
G01*
X148029082Y-53878700D02*
X147129078Y-53878700D01*
G75*
G02*
X146879080Y-53628702I0J249998D01*
G01*
X146879080Y-53103698D01*
G75*
G02*
X147129078Y-52853700I249998J0D01*
G01*
X148029082Y-52853700D01*
G75*
G02*
X148279080Y-53103698I0J-249998D01*
G01*
X148279080Y-53628702D01*
G75*
G02*
X148029082Y-53878700I-249998J0D01*
G01*
G37*
%TD*%
%TO.C,R5*%
G36*
G01*
X156633758Y-52824320D02*
X157533762Y-52824320D01*
G75*
G02*
X157783760Y-53074318I0J-249998D01*
G01*
X157783760Y-53599322D01*
G75*
G02*
X157533762Y-53849320I-249998J0D01*
G01*
X156633758Y-53849320D01*
G75*
G02*
X156383760Y-53599322I0J249998D01*
G01*
X156383760Y-53074318D01*
G75*
G02*
X156633758Y-52824320I249998J0D01*
G01*
G37*
G36*
G01*
X156633758Y-54649320D02*
X157533762Y-54649320D01*
G75*
G02*
X157783760Y-54899318I0J-249998D01*
G01*
X157783760Y-55424322D01*
G75*
G02*
X157533762Y-55674320I-249998J0D01*
G01*
X156633758Y-55674320D01*
G75*
G02*
X156383760Y-55424322I0J249998D01*
G01*
X156383760Y-54899318D01*
G75*
G02*
X156633758Y-54649320I249998J0D01*
G01*
G37*
%TD*%
%TO.C,R7*%
G36*
G01*
X169613002Y-41058500D02*
X168712998Y-41058500D01*
G75*
G02*
X168463000Y-40808502I0J249998D01*
G01*
X168463000Y-40283498D01*
G75*
G02*
X168712998Y-40033500I249998J0D01*
G01*
X169613002Y-40033500D01*
G75*
G02*
X169863000Y-40283498I0J-249998D01*
G01*
X169863000Y-40808502D01*
G75*
G02*
X169613002Y-41058500I-249998J0D01*
G01*
G37*
G36*
G01*
X169613002Y-42883500D02*
X168712998Y-42883500D01*
G75*
G02*
X168463000Y-42633502I0J249998D01*
G01*
X168463000Y-42108498D01*
G75*
G02*
X168712998Y-41858500I249998J0D01*
G01*
X169613002Y-41858500D01*
G75*
G02*
X169863000Y-42108498I0J-249998D01*
G01*
X169863000Y-42633502D01*
G75*
G02*
X169613002Y-42883500I-249998J0D01*
G01*
G37*
%TD*%
%TO.C,C2*%
G36*
G01*
X134500000Y-60575000D02*
X134500000Y-59625000D01*
G75*
G02*
X134750000Y-59375000I250000J0D01*
G01*
X135250000Y-59375000D01*
G75*
G02*
X135500000Y-59625000I0J-250000D01*
G01*
X135500000Y-60575000D01*
G75*
G02*
X135250000Y-60825000I-250000J0D01*
G01*
X134750000Y-60825000D01*
G75*
G02*
X134500000Y-60575000I0J250000D01*
G01*
G37*
G36*
G01*
X132600000Y-60575000D02*
X132600000Y-59625000D01*
G75*
G02*
X132850000Y-59375000I250000J0D01*
G01*
X133350000Y-59375000D01*
G75*
G02*
X133600000Y-59625000I0J-250000D01*
G01*
X133600000Y-60575000D01*
G75*
G02*
X133350000Y-60825000I-250000J0D01*
G01*
X132850000Y-60825000D01*
G75*
G02*
X132600000Y-60575000I0J250000D01*
G01*
G37*
%TD*%
%TO.C,C3*%
G36*
G01*
X137550000Y-83125000D02*
X137550000Y-84075000D01*
G75*
G02*
X137300000Y-84325000I-250000J0D01*
G01*
X136800000Y-84325000D01*
G75*
G02*
X136550000Y-84075000I0J250000D01*
G01*
X136550000Y-83125000D01*
G75*
G02*
X136800000Y-82875000I250000J0D01*
G01*
X137300000Y-82875000D01*
G75*
G02*
X137550000Y-83125000I0J-250000D01*
G01*
G37*
G36*
G01*
X135650000Y-83125000D02*
X135650000Y-84075000D01*
G75*
G02*
X135400000Y-84325000I-250000J0D01*
G01*
X134900000Y-84325000D01*
G75*
G02*
X134650000Y-84075000I0J250000D01*
G01*
X134650000Y-83125000D01*
G75*
G02*
X134900000Y-82875000I250000J0D01*
G01*
X135400000Y-82875000D01*
G75*
G02*
X135650000Y-83125000I0J-250000D01*
G01*
G37*
%TD*%
%TO.C,C4*%
G36*
G01*
X125150000Y-62075000D02*
X125150000Y-61125000D01*
G75*
G02*
X125400000Y-60875000I250000J0D01*
G01*
X125900000Y-60875000D01*
G75*
G02*
X126150000Y-61125000I0J-250000D01*
G01*
X126150000Y-62075000D01*
G75*
G02*
X125900000Y-62325000I-250000J0D01*
G01*
X125400000Y-62325000D01*
G75*
G02*
X125150000Y-62075000I0J250000D01*
G01*
G37*
G36*
G01*
X127050000Y-62075000D02*
X127050000Y-61125000D01*
G75*
G02*
X127300000Y-60875000I250000J0D01*
G01*
X127800000Y-60875000D01*
G75*
G02*
X128050000Y-61125000I0J-250000D01*
G01*
X128050000Y-62075000D01*
G75*
G02*
X127800000Y-62325000I-250000J0D01*
G01*
X127300000Y-62325000D01*
G75*
G02*
X127050000Y-62075000I0J250000D01*
G01*
G37*
%TD*%
%TO.C,C5*%
G36*
G01*
X127550000Y-72575000D02*
X127550000Y-71625000D01*
G75*
G02*
X127800000Y-71375000I250000J0D01*
G01*
X128300000Y-71375000D01*
G75*
G02*
X128550000Y-71625000I0J-250000D01*
G01*
X128550000Y-72575000D01*
G75*
G02*
X128300000Y-72825000I-250000J0D01*
G01*
X127800000Y-72825000D01*
G75*
G02*
X127550000Y-72575000I0J250000D01*
G01*
G37*
G36*
G01*
X125650000Y-72575000D02*
X125650000Y-71625000D01*
G75*
G02*
X125900000Y-71375000I250000J0D01*
G01*
X126400000Y-71375000D01*
G75*
G02*
X126650000Y-71625000I0J-250000D01*
G01*
X126650000Y-72575000D01*
G75*
G02*
X126400000Y-72825000I-250000J0D01*
G01*
X125900000Y-72825000D01*
G75*
G02*
X125650000Y-72575000I0J250000D01*
G01*
G37*
%TD*%
%TO.C,C7*%
G36*
G01*
X171990000Y-41946000D02*
X172940000Y-41946000D01*
G75*
G02*
X173190000Y-42196000I0J-250000D01*
G01*
X173190000Y-42696000D01*
G75*
G02*
X172940000Y-42946000I-250000J0D01*
G01*
X171990000Y-42946000D01*
G75*
G02*
X171740000Y-42696000I0J250000D01*
G01*
X171740000Y-42196000D01*
G75*
G02*
X171990000Y-41946000I250000J0D01*
G01*
G37*
G36*
G01*
X171990000Y-40046000D02*
X172940000Y-40046000D01*
G75*
G02*
X173190000Y-40296000I0J-250000D01*
G01*
X173190000Y-40796000D01*
G75*
G02*
X172940000Y-41046000I-250000J0D01*
G01*
X171990000Y-41046000D01*
G75*
G02*
X171740000Y-40796000I0J250000D01*
G01*
X171740000Y-40296000D01*
G75*
G02*
X171990000Y-40046000I250000J0D01*
G01*
G37*
%TD*%
%TO.C,C10*%
G36*
G01*
X155034000Y-65910000D02*
X154084000Y-65910000D01*
G75*
G02*
X153834000Y-65660000I0J250000D01*
G01*
X153834000Y-65160000D01*
G75*
G02*
X154084000Y-64910000I250000J0D01*
G01*
X155034000Y-64910000D01*
G75*
G02*
X155284000Y-65160000I0J-250000D01*
G01*
X155284000Y-65660000D01*
G75*
G02*
X155034000Y-65910000I-250000J0D01*
G01*
G37*
G36*
G01*
X155034000Y-67810000D02*
X154084000Y-67810000D01*
G75*
G02*
X153834000Y-67560000I0J250000D01*
G01*
X153834000Y-67060000D01*
G75*
G02*
X154084000Y-66810000I250000J0D01*
G01*
X155034000Y-66810000D01*
G75*
G02*
X155284000Y-67060000I0J-250000D01*
G01*
X155284000Y-67560000D01*
G75*
G02*
X155034000Y-67810000I-250000J0D01*
G01*
G37*
%TD*%
%TO.C,C11*%
G36*
G01*
X153068000Y-76594000D02*
X154018000Y-76594000D01*
G75*
G02*
X154268000Y-76844000I0J-250000D01*
G01*
X154268000Y-77344000D01*
G75*
G02*
X154018000Y-77594000I-250000J0D01*
G01*
X153068000Y-77594000D01*
G75*
G02*
X152818000Y-77344000I0J250000D01*
G01*
X152818000Y-76844000D01*
G75*
G02*
X153068000Y-76594000I250000J0D01*
G01*
G37*
G36*
G01*
X153068000Y-78494000D02*
X154018000Y-78494000D01*
G75*
G02*
X154268000Y-78744000I0J-250000D01*
G01*
X154268000Y-79244000D01*
G75*
G02*
X154018000Y-79494000I-250000J0D01*
G01*
X153068000Y-79494000D01*
G75*
G02*
X152818000Y-79244000I0J250000D01*
G01*
X152818000Y-78744000D01*
G75*
G02*
X153068000Y-78494000I250000J0D01*
G01*
G37*
%TD*%
%TO.C,C13*%
G36*
G01*
X141575000Y-65100000D02*
X140625000Y-65100000D01*
G75*
G02*
X140375000Y-64850000I0J250000D01*
G01*
X140375000Y-64350000D01*
G75*
G02*
X140625000Y-64100000I250000J0D01*
G01*
X141575000Y-64100000D01*
G75*
G02*
X141825000Y-64350000I0J-250000D01*
G01*
X141825000Y-64850000D01*
G75*
G02*
X141575000Y-65100000I-250000J0D01*
G01*
G37*
G36*
G01*
X141575000Y-63200000D02*
X140625000Y-63200000D01*
G75*
G02*
X140375000Y-62950000I0J250000D01*
G01*
X140375000Y-62450000D01*
G75*
G02*
X140625000Y-62200000I250000J0D01*
G01*
X141575000Y-62200000D01*
G75*
G02*
X141825000Y-62450000I0J-250000D01*
G01*
X141825000Y-62950000D01*
G75*
G02*
X141575000Y-63200000I-250000J0D01*
G01*
G37*
%TD*%
%TO.C,C12*%
G36*
G01*
X144575000Y-65100000D02*
X143625000Y-65100000D01*
G75*
G02*
X143375000Y-64850000I0J250000D01*
G01*
X143375000Y-64350000D01*
G75*
G02*
X143625000Y-64100000I250000J0D01*
G01*
X144575000Y-64100000D01*
G75*
G02*
X144825000Y-64350000I0J-250000D01*
G01*
X144825000Y-64850000D01*
G75*
G02*
X144575000Y-65100000I-250000J0D01*
G01*
G37*
G36*
G01*
X144575000Y-63200000D02*
X143625000Y-63200000D01*
G75*
G02*
X143375000Y-62950000I0J250000D01*
G01*
X143375000Y-62450000D01*
G75*
G02*
X143625000Y-62200000I250000J0D01*
G01*
X144575000Y-62200000D01*
G75*
G02*
X144825000Y-62450000I0J-250000D01*
G01*
X144825000Y-62950000D01*
G75*
G02*
X144575000Y-63200000I-250000J0D01*
G01*
G37*
%TD*%
%TO.C,D1*%
G36*
G01*
X115212500Y-40143750D02*
X115212500Y-41056250D01*
G75*
G02*
X114968750Y-41300000I-243750J0D01*
G01*
X114481250Y-41300000D01*
G75*
G02*
X114237500Y-41056250I0J243750D01*
G01*
X114237500Y-40143750D01*
G75*
G02*
X114481250Y-39900000I243750J0D01*
G01*
X114968750Y-39900000D01*
G75*
G02*
X115212500Y-40143750I0J-243750D01*
G01*
G37*
G36*
G01*
X113337500Y-40143750D02*
X113337500Y-41056250D01*
G75*
G02*
X113093750Y-41300000I-243750J0D01*
G01*
X112606250Y-41300000D01*
G75*
G02*
X112362500Y-41056250I0J243750D01*
G01*
X112362500Y-40143750D01*
G75*
G02*
X112606250Y-39900000I243750J0D01*
G01*
X113093750Y-39900000D01*
G75*
G02*
X113337500Y-40143750I0J-243750D01*
G01*
G37*
%TD*%
%TO.C,R8*%
G36*
G01*
X138741998Y-69337500D02*
X139642002Y-69337500D01*
G75*
G02*
X139892000Y-69587498I0J-249998D01*
G01*
X139892000Y-70112502D01*
G75*
G02*
X139642002Y-70362500I-249998J0D01*
G01*
X138741998Y-70362500D01*
G75*
G02*
X138492000Y-70112502I0J249998D01*
G01*
X138492000Y-69587498D01*
G75*
G02*
X138741998Y-69337500I249998J0D01*
G01*
G37*
G36*
G01*
X138741998Y-71162500D02*
X139642002Y-71162500D01*
G75*
G02*
X139892000Y-71412498I0J-249998D01*
G01*
X139892000Y-71937502D01*
G75*
G02*
X139642002Y-72187500I-249998J0D01*
G01*
X138741998Y-72187500D01*
G75*
G02*
X138492000Y-71937502I0J249998D01*
G01*
X138492000Y-71412498D01*
G75*
G02*
X138741998Y-71162500I249998J0D01*
G01*
G37*
%TD*%
%TO.C,R2*%
G36*
G01*
X119262500Y-53050002D02*
X119262500Y-52149998D01*
G75*
G02*
X119512498Y-51900000I249998J0D01*
G01*
X120037502Y-51900000D01*
G75*
G02*
X120287500Y-52149998I0J-249998D01*
G01*
X120287500Y-53050002D01*
G75*
G02*
X120037502Y-53300000I-249998J0D01*
G01*
X119512498Y-53300000D01*
G75*
G02*
X119262500Y-53050002I0J249998D01*
G01*
G37*
G36*
G01*
X121087500Y-53050002D02*
X121087500Y-52149998D01*
G75*
G02*
X121337498Y-51900000I249998J0D01*
G01*
X121862502Y-51900000D01*
G75*
G02*
X122112500Y-52149998I0J-249998D01*
G01*
X122112500Y-53050002D01*
G75*
G02*
X121862502Y-53300000I-249998J0D01*
G01*
X121337498Y-53300000D01*
G75*
G02*
X121087500Y-53050002I0J249998D01*
G01*
G37*
%TD*%
%TO.C,R3*%
G36*
G01*
X121162500Y-56050002D02*
X121162500Y-55149998D01*
G75*
G02*
X121412498Y-54900000I249998J0D01*
G01*
X121937502Y-54900000D01*
G75*
G02*
X122187500Y-55149998I0J-249998D01*
G01*
X122187500Y-56050002D01*
G75*
G02*
X121937502Y-56300000I-249998J0D01*
G01*
X121412498Y-56300000D01*
G75*
G02*
X121162500Y-56050002I0J249998D01*
G01*
G37*
G36*
G01*
X119337500Y-56050002D02*
X119337500Y-55149998D01*
G75*
G02*
X119587498Y-54900000I249998J0D01*
G01*
X120112502Y-54900000D01*
G75*
G02*
X120362500Y-55149998I0J-249998D01*
G01*
X120362500Y-56050002D01*
G75*
G02*
X120112502Y-56300000I-249998J0D01*
G01*
X119587498Y-56300000D01*
G75*
G02*
X119337500Y-56050002I0J249998D01*
G01*
G37*
%TD*%
%TO.C,R4*%
G36*
G01*
X119762500Y-73800002D02*
X119762500Y-72899998D01*
G75*
G02*
X120012498Y-72650000I249998J0D01*
G01*
X120537502Y-72650000D01*
G75*
G02*
X120787500Y-72899998I0J-249998D01*
G01*
X120787500Y-73800002D01*
G75*
G02*
X120537502Y-74050000I-249998J0D01*
G01*
X120012498Y-74050000D01*
G75*
G02*
X119762500Y-73800002I0J249998D01*
G01*
G37*
G36*
G01*
X121587500Y-73800002D02*
X121587500Y-72899998D01*
G75*
G02*
X121837498Y-72650000I249998J0D01*
G01*
X122362502Y-72650000D01*
G75*
G02*
X122612500Y-72899998I0J-249998D01*
G01*
X122612500Y-73800002D01*
G75*
G02*
X122362502Y-74050000I-249998J0D01*
G01*
X121837498Y-74050000D01*
G75*
G02*
X121587500Y-73800002I0J249998D01*
G01*
G37*
%TD*%
%TO.C,R6*%
G36*
G01*
X110819500Y-77793002D02*
X110819500Y-76892998D01*
G75*
G02*
X111069498Y-76643000I249998J0D01*
G01*
X111594502Y-76643000D01*
G75*
G02*
X111844500Y-76892998I0J-249998D01*
G01*
X111844500Y-77793002D01*
G75*
G02*
X111594502Y-78043000I-249998J0D01*
G01*
X111069498Y-78043000D01*
G75*
G02*
X110819500Y-77793002I0J249998D01*
G01*
G37*
G36*
G01*
X112644500Y-77793002D02*
X112644500Y-76892998D01*
G75*
G02*
X112894498Y-76643000I249998J0D01*
G01*
X113419502Y-76643000D01*
G75*
G02*
X113669500Y-76892998I0J-249998D01*
G01*
X113669500Y-77793002D01*
G75*
G02*
X113419502Y-78043000I-249998J0D01*
G01*
X112894498Y-78043000D01*
G75*
G02*
X112644500Y-77793002I0J249998D01*
G01*
G37*
%TD*%
D20*
%TO.C,U5*%
X159386000Y-66374000D03*
X159386000Y-68374000D03*
X159386000Y-70374000D03*
X159386000Y-72374000D03*
X159386000Y-74374000D03*
X159386000Y-76374000D03*
X159386000Y-78374000D03*
X159386000Y-80374000D03*
X175386000Y-80374000D03*
X175386000Y-78374000D03*
X175386000Y-76374000D03*
X175386000Y-74374000D03*
X175386000Y-72374000D03*
X175386000Y-70374000D03*
X175386000Y-68374000D03*
X175386000Y-66374000D03*
%TD*%
D10*
%TO.C,J3*%
X164846000Y-91059000D03*
D11*
X162306000Y-91059000D03*
X159766000Y-91059000D03*
X157226000Y-91059000D03*
%TD*%
D10*
%TO.C,J5*%
X112268000Y-55372000D03*
D11*
X112268000Y-52832000D03*
X112268000Y-50292000D03*
%TD*%
D21*
%TO.C,H1*%
X154990800Y-40830500D03*
%TD*%
%TO.C,H2*%
X174117000Y-98679000D03*
%TD*%
%TO.C,H3*%
X104267000Y-98806000D03*
%TD*%
%TO.C,H4*%
X104140000Y-40894000D03*
%TD*%
D22*
%TO.C,U2*%
X119919920Y-77597000D03*
X119919920Y-79497000D03*
X117219920Y-79497000D03*
X117219920Y-78547000D03*
X117219920Y-77597000D03*
%TD*%
%TO.C,U3*%
X127555000Y-84013000D03*
X127555000Y-84963000D03*
X127555000Y-85913000D03*
X130255000Y-85913000D03*
X130255000Y-84013000D03*
%TD*%
%TO.C,R10*%
G36*
G01*
X152675000Y-46550002D02*
X152675000Y-45649998D01*
G75*
G02*
X152924998Y-45400000I249998J0D01*
G01*
X153450002Y-45400000D01*
G75*
G02*
X153700000Y-45649998I0J-249998D01*
G01*
X153700000Y-46550002D01*
G75*
G02*
X153450002Y-46800000I-249998J0D01*
G01*
X152924998Y-46800000D01*
G75*
G02*
X152675000Y-46550002I0J249998D01*
G01*
G37*
G36*
G01*
X154500000Y-46550002D02*
X154500000Y-45649998D01*
G75*
G02*
X154749998Y-45400000I249998J0D01*
G01*
X155275002Y-45400000D01*
G75*
G02*
X155525000Y-45649998I0J-249998D01*
G01*
X155525000Y-46550002D01*
G75*
G02*
X155275002Y-46800000I-249998J0D01*
G01*
X154749998Y-46800000D01*
G75*
G02*
X154500000Y-46550002I0J249998D01*
G01*
G37*
%TD*%
%TO.C,R11*%
G36*
G01*
X160587500Y-46550002D02*
X160587500Y-45649998D01*
G75*
G02*
X160837498Y-45400000I249998J0D01*
G01*
X161362502Y-45400000D01*
G75*
G02*
X161612500Y-45649998I0J-249998D01*
G01*
X161612500Y-46550002D01*
G75*
G02*
X161362502Y-46800000I-249998J0D01*
G01*
X160837498Y-46800000D01*
G75*
G02*
X160587500Y-46550002I0J249998D01*
G01*
G37*
G36*
G01*
X158762500Y-46550002D02*
X158762500Y-45649998D01*
G75*
G02*
X159012498Y-45400000I249998J0D01*
G01*
X159537502Y-45400000D01*
G75*
G02*
X159787500Y-45649998I0J-249998D01*
G01*
X159787500Y-46550002D01*
G75*
G02*
X159537502Y-46800000I-249998J0D01*
G01*
X159012498Y-46800000D01*
G75*
G02*
X158762500Y-46550002I0J249998D01*
G01*
G37*
%TD*%
D23*
%TO.C,Y2*%
X128350000Y-65500000D03*
X122850000Y-65500000D03*
X122850000Y-68700000D03*
X128350000Y-68700000D03*
%TD*%
D22*
%TO.C,U6*%
X161400000Y-51150000D03*
X161400000Y-52100000D03*
X161400000Y-53050000D03*
X164100000Y-53050000D03*
X164100000Y-51150000D03*
%TD*%
%TO.C,C14*%
G36*
G01*
X165575000Y-49600000D02*
X164625000Y-49600000D01*
G75*
G02*
X164375000Y-49350000I0J250000D01*
G01*
X164375000Y-48850000D01*
G75*
G02*
X164625000Y-48600000I250000J0D01*
G01*
X165575000Y-48600000D01*
G75*
G02*
X165825000Y-48850000I0J-250000D01*
G01*
X165825000Y-49350000D01*
G75*
G02*
X165575000Y-49600000I-250000J0D01*
G01*
G37*
G36*
G01*
X165575000Y-47700000D02*
X164625000Y-47700000D01*
G75*
G02*
X164375000Y-47450000I0J250000D01*
G01*
X164375000Y-46950000D01*
G75*
G02*
X164625000Y-46700000I250000J0D01*
G01*
X165575000Y-46700000D01*
G75*
G02*
X165825000Y-46950000I0J-250000D01*
G01*
X165825000Y-47450000D01*
G75*
G02*
X165575000Y-47700000I-250000J0D01*
G01*
G37*
%TD*%
D24*
%TO.C,Q1*%
X110600000Y-61550000D03*
X110600000Y-59650000D03*
X108600000Y-60600000D03*
%TD*%
%TO.C,R12*%
G36*
G01*
X121550002Y-61937500D02*
X120649998Y-61937500D01*
G75*
G02*
X120400000Y-61687502I0J249998D01*
G01*
X120400000Y-61162498D01*
G75*
G02*
X120649998Y-60912500I249998J0D01*
G01*
X121550002Y-60912500D01*
G75*
G02*
X121800000Y-61162498I0J-249998D01*
G01*
X121800000Y-61687502D01*
G75*
G02*
X121550002Y-61937500I-249998J0D01*
G01*
G37*
G36*
G01*
X121550002Y-60112500D02*
X120649998Y-60112500D01*
G75*
G02*
X120400000Y-59862502I0J249998D01*
G01*
X120400000Y-59337498D01*
G75*
G02*
X120649998Y-59087500I249998J0D01*
G01*
X121550002Y-59087500D01*
G75*
G02*
X121800000Y-59337498I0J-249998D01*
G01*
X121800000Y-59862502D01*
G75*
G02*
X121550002Y-60112500I-249998J0D01*
G01*
G37*
%TD*%
D25*
%TO.C,D2*%
X114150000Y-61600000D03*
X116050000Y-61600000D03*
X115100000Y-59600000D03*
%TD*%
%TO.C,C15*%
G36*
G01*
X172062500Y-63025001D02*
X172062500Y-62174999D01*
G75*
G02*
X172312499Y-61925000I249999J0D01*
G01*
X173387501Y-61925000D01*
G75*
G02*
X173637500Y-62174999I0J-249999D01*
G01*
X173637500Y-63025001D01*
G75*
G02*
X173387501Y-63275000I-249999J0D01*
G01*
X172312499Y-63275000D01*
G75*
G02*
X172062500Y-63025001I0J249999D01*
G01*
G37*
G36*
G01*
X174937500Y-63025001D02*
X174937500Y-62174999D01*
G75*
G02*
X175187499Y-61925000I249999J0D01*
G01*
X176262501Y-61925000D01*
G75*
G02*
X176512500Y-62174999I0J-249999D01*
G01*
X176512500Y-63025001D01*
G75*
G02*
X176262501Y-63275000I-249999J0D01*
G01*
X175187499Y-63275000D01*
G75*
G02*
X174937500Y-63025001I0J249999D01*
G01*
G37*
%TD*%
D26*
%TO.C,TP1*%
X165600000Y-59100000D03*
%TD*%
%TO.C,TP2*%
X165600000Y-62350000D03*
%TD*%
%TO.C,TP3*%
X168350000Y-59100000D03*
%TD*%
%TO.C,TP4*%
X168350000Y-62350000D03*
%TD*%
M02*
