%TF.GenerationSoftware,KiCad,Pcbnew,5.1.12-84ad8e8a86~92~ubuntu20.04.1*%
%TF.CreationDate,2022-08-01T12:29:38-07:00*%
%TF.ProjectId,LoRaXcvr_R2,4c6f5261-5863-4767-925f-52322e6b6963,rev?*%
%TF.SameCoordinates,Original*%
%TF.FileFunction,Legend,Bot*%
%TF.FilePolarity,Positive*%
%FSLAX46Y46*%
G04 Gerber Fmt 4.6, Leading zero omitted, Abs format (unit mm)*
G04 Created by KiCad (PCBNEW 5.1.12-84ad8e8a86~92~ubuntu20.04.1) date 2022-08-01 12:29:38*
%MOMM*%
%LPD*%
G01*
G04 APERTURE LIST*
%ADD10C,0.100000*%
%ADD11C,0.150000*%
G04 APERTURE END LIST*
D10*
G36*
X144843500Y-99568000D02*
G01*
X139128500Y-99568000D01*
X139128500Y-95885000D01*
X144843500Y-95885000D01*
X144843500Y-99568000D01*
G37*
X144843500Y-99568000D02*
X139128500Y-99568000D01*
X139128500Y-95885000D01*
X144843500Y-95885000D01*
X144843500Y-99568000D01*
D11*
X137374214Y-98242380D02*
X137374214Y-97242380D01*
X136993261Y-97242380D01*
X136898023Y-97290000D01*
X136850404Y-97337619D01*
X136802785Y-97432857D01*
X136802785Y-97575714D01*
X136850404Y-97670952D01*
X136898023Y-97718571D01*
X136993261Y-97766190D01*
X137374214Y-97766190D01*
X136374214Y-98242380D02*
X136374214Y-97242380D01*
X135802785Y-98242380D01*
X135802785Y-97242380D01*
X148730952Y-98302380D02*
X149064285Y-97826190D01*
X149302380Y-98302380D02*
X149302380Y-97302380D01*
X148921428Y-97302380D01*
X148826190Y-97350000D01*
X148778571Y-97397619D01*
X148730952Y-97492857D01*
X148730952Y-97635714D01*
X148778571Y-97730952D01*
X148826190Y-97778571D01*
X148921428Y-97826190D01*
X149302380Y-97826190D01*
X148302380Y-97778571D02*
X147969047Y-97778571D01*
X147826190Y-98302380D02*
X148302380Y-98302380D01*
X148302380Y-97302380D01*
X147826190Y-97302380D01*
X147540476Y-97302380D02*
X147207142Y-98302380D01*
X146873809Y-97302380D01*
X145826190Y-98016666D02*
X145350000Y-98016666D01*
X145921428Y-98302380D02*
X145588095Y-97302380D01*
X145254761Y-98302380D01*
D10*
G36*
X135382000Y-99568000D02*
G01*
X120650000Y-99568000D01*
X120650000Y-95821500D01*
X135382000Y-95821500D01*
X135382000Y-99568000D01*
G37*
X135382000Y-99568000D02*
X120650000Y-99568000D01*
X120650000Y-95821500D01*
X135382000Y-95821500D01*
X135382000Y-99568000D01*
M02*
