%TF.GenerationSoftware,KiCad,Pcbnew,5.1.12-84ad8e8a86~92~ubuntu20.04.1*%
%TF.CreationDate,2022-08-01T12:29:38-07:00*%
%TF.ProjectId,LoRaXcvr_R2,4c6f5261-5863-4767-925f-52322e6b6963,rev?*%
%TF.SameCoordinates,Original*%
%TF.FileFunction,Soldermask,Bot*%
%TF.FilePolarity,Negative*%
%FSLAX46Y46*%
G04 Gerber Fmt 4.6, Leading zero omitted, Abs format (unit mm)*
G04 Created by KiCad (PCBNEW 5.1.12-84ad8e8a86~92~ubuntu20.04.1) date 2022-08-01 12:29:38*
%MOMM*%
%LPD*%
G01*
G04 APERTURE LIST*
%ADD10R,1.700000X1.700000*%
%ADD11O,1.700000X1.700000*%
%ADD12R,2.100000X2.100000*%
%ADD13C,2.100000*%
%ADD14C,2.500000*%
%ADD15C,1.000000*%
G04 APERTURE END LIST*
D10*
%TO.C,J8*%
X148437600Y-44958000D03*
D11*
X145897600Y-44958000D03*
X143357600Y-44958000D03*
X140817600Y-44958000D03*
X138277600Y-44958000D03*
X135737600Y-44958000D03*
%TD*%
D10*
%TO.C,J10*%
X125432820Y-92933520D03*
D11*
X122892820Y-92933520D03*
X120352820Y-92933520D03*
X117812820Y-92933520D03*
X115272820Y-92933520D03*
X112732820Y-92933520D03*
X110192820Y-92933520D03*
X107652820Y-92933520D03*
%TD*%
D12*
%TO.C,J1*%
X109474000Y-66167000D03*
D13*
X109474000Y-68707000D03*
X109474000Y-71247000D03*
X109474000Y-73787000D03*
%TD*%
D10*
%TO.C,J2*%
X151356060Y-51305460D03*
D11*
X153896060Y-51305460D03*
X151356060Y-53845460D03*
X153896060Y-53845460D03*
X151356060Y-56385460D03*
X153896060Y-56385460D03*
%TD*%
D10*
%TO.C,J4*%
X161825940Y-85877400D03*
D11*
X164365940Y-85877400D03*
%TD*%
D10*
%TO.C,J6*%
X148292820Y-92964000D03*
D11*
X145752820Y-92964000D03*
X143212820Y-92964000D03*
X140672820Y-92964000D03*
X138132820Y-92964000D03*
X135592820Y-92964000D03*
X133052820Y-92964000D03*
X130512820Y-92964000D03*
%TD*%
D10*
%TO.C,J7*%
X130566160Y-44886880D03*
D11*
X128026160Y-44886880D03*
X125486160Y-44886880D03*
X122946160Y-44886880D03*
X120406160Y-44886880D03*
X117866160Y-44886880D03*
X115326160Y-44886880D03*
X112786160Y-44886880D03*
X110246160Y-44886880D03*
X107706160Y-44886880D03*
%TD*%
D10*
%TO.C,J3*%
X164846000Y-91059000D03*
D11*
X162306000Y-91059000D03*
X159766000Y-91059000D03*
X157226000Y-91059000D03*
%TD*%
D10*
%TO.C,J5*%
X112268000Y-55372000D03*
D11*
X112268000Y-52832000D03*
X112268000Y-50292000D03*
%TD*%
D14*
%TO.C,H1*%
X154990800Y-40830500D03*
%TD*%
%TO.C,H2*%
X174117000Y-98679000D03*
%TD*%
%TO.C,H3*%
X104267000Y-98806000D03*
%TD*%
%TO.C,H4*%
X104140000Y-40894000D03*
%TD*%
D15*
%TO.C,TP1*%
X165600000Y-59100000D03*
%TD*%
%TO.C,TP2*%
X165600000Y-62350000D03*
%TD*%
%TO.C,TP3*%
X168350000Y-59100000D03*
%TD*%
%TO.C,TP4*%
X168350000Y-62350000D03*
%TD*%
M02*
