M48
; DRILL file {KiCad 5.1.12-84ad8e8a86~92~ubuntu20.04.1} date Mon 01 Aug 2022 12:29:51 PM PDT
; FORMAT={-:-/ absolute / inch / decimal}
; #@! TF.CreationDate,2022-08-01T12:29:51-07:00
; #@! TF.GenerationSoftware,Kicad,Pcbnew,5.1.12-84ad8e8a86~92~ubuntu20.04.1
; #@! TF.FileFunction,Plated,1,4,PTH
FMAT,2
INCH
T1C0.0157
T2C0.0197
T3C0.0394
T4C0.0433
%
G90
G05
T1
X4.2362Y-1.6378
X4.2362Y-3.0354
X4.285Y-3.075
X4.315Y-3.475
X4.5315Y-2.2874
X4.5361Y-3.0561
X4.5683Y-3.0924
X4.5709Y-2.5039
X4.6496Y-2.0709
X4.6693Y-2.189
X4.6693Y-2.8878
X4.7677Y-2.2972
X4.84Y-2.985
X4.84Y-3.23
X4.8415Y-2.2136
X4.865Y-3.39
X4.8858Y-2.4252
X4.9055Y-2.8386
X4.935Y-3.2
X4.965Y-3.345
X4.9941Y-2.9567
X5.1614Y-2.5433
X5.1614Y-2.7205
X5.1811Y-2.3661
X5.2106Y-1.5984
X5.2205Y-3.3504
X5.2598Y-1.9528
X5.4567Y-3.2913
X5.4602Y-2.8948
X5.465Y-2.6
X5.465Y-2.65
X5.48Y-3.11
X5.4864Y-2.9572
X5.522Y-2.9283
X5.5236Y-2.9877
X5.5641Y-2.8741
X5.5753Y-2.405
X5.6339Y-2.6614
X5.6535Y-2.4055
X5.6732Y-2.0315
X5.6732Y-2.6024
X5.6869Y-3.188
X5.7126Y-2.0315
X5.7314Y-3.1901
X5.74Y-2.575
X5.7486Y-2.8345
X5.775Y-2.8
X5.7807Y-3.1901
X5.8102Y-2.4538
X5.8286Y-3.1913
X5.8305Y-2.4091
X5.8741Y-2.7572
X5.8875Y-3.1921
X5.925Y-2.78
X5.925Y-2.83
X5.9296Y-2.3142
X5.9312Y-3.1911
X5.9422Y-3.1314
X5.9457Y-2.7161
X5.955Y-3.035
X5.9685Y-1.8346
X5.97Y-2.495
X5.9737Y-2.5832
X5.975Y-2.54
X5.9773Y-3.1067
X6.035Y-2.575
X6.04Y-2.65
X6.045Y-2.97
X6.045Y-3.165
X6.1002Y-2.7154
X6.14Y-2.775
X6.155Y-2.815
X6.1654Y-1.815
X6.2047Y-1.8346
X6.245Y-2.32
X6.275Y-2.5337
X6.275Y-3.2437
X6.2835Y-2.0512
X6.4016Y-1.815
X6.425Y-2.38
X6.5Y-1.815
X6.5197Y-1.9921
X6.66Y-1.7213
X6.7165Y-2.6122
X6.795Y-2.8387
X6.7953Y-2.8976
X6.805Y-2.6887
X6.8051Y-2.6122
X6.81Y-2.7337
X6.815Y-2.9961
X6.815Y-3.0837
X6.8543Y-1.7559
X6.855Y-1.6663
X6.8694Y-3.3076
X6.9183Y-2.4006
T2
X6.5197Y-2.3268
X6.5197Y-2.4547
X6.628Y-2.3268
X6.628Y-2.4547
T3
X4.2383Y-3.6588
X4.2404Y-1.7672
X4.3383Y-3.6588
X4.3404Y-1.7672
X4.42Y-1.98
X4.42Y-2.08
X4.42Y-2.18
X4.4383Y-3.6588
X4.4404Y-1.7672
X4.5383Y-3.6588
X4.5404Y-1.7672
X4.6383Y-3.6588
X4.6404Y-1.7672
X4.7383Y-3.6588
X4.7404Y-1.7672
X4.8383Y-3.6588
X4.8404Y-1.7672
X4.9383Y-3.6588
X4.9404Y-1.7672
X5.0404Y-1.7672
X5.1383Y-3.66
X5.1404Y-1.7672
X5.2383Y-3.66
X5.3383Y-3.66
X5.344Y-1.77
X5.4383Y-3.66
X5.444Y-1.77
X5.5383Y-3.66
X5.544Y-1.77
X5.6383Y-3.66
X5.644Y-1.77
X5.7383Y-3.66
X5.744Y-1.77
X5.8383Y-3.66
X5.844Y-1.77
X5.9589Y-2.0199
X5.9589Y-2.1199
X5.9589Y-2.2199
X6.0589Y-2.0199
X6.0589Y-2.1199
X6.0589Y-2.2199
X6.19Y-3.585
X6.29Y-3.585
X6.3711Y-3.381
X6.39Y-3.585
X6.4711Y-3.381
X6.49Y-3.585
T4
X4.31Y-2.605
X4.31Y-2.705
X4.31Y-2.805
X4.31Y-2.905
T0
M30
