%TF.GenerationSoftware,KiCad,Pcbnew,5.1.12-84ad8e8a86~92~ubuntu20.04.1*%
%TF.CreationDate,2022-08-01T12:29:38-07:00*%
%TF.ProjectId,LoRaXcvr_R2,4c6f5261-5863-4767-925f-52322e6b6963,rev?*%
%TF.SameCoordinates,Original*%
%TF.FileFunction,Copper,L4,Bot*%
%TF.FilePolarity,Positive*%
%FSLAX46Y46*%
G04 Gerber Fmt 4.6, Leading zero omitted, Abs format (unit mm)*
G04 Created by KiCad (PCBNEW 5.1.12-84ad8e8a86~92~ubuntu20.04.1) date 2022-08-01 12:29:38*
%MOMM*%
%LPD*%
G01*
G04 APERTURE LIST*
%TA.AperFunction,ComponentPad*%
%ADD10R,1.700000X1.700000*%
%TD*%
%TA.AperFunction,ComponentPad*%
%ADD11O,1.700000X1.700000*%
%TD*%
%TA.AperFunction,ComponentPad*%
%ADD12R,2.100000X2.100000*%
%TD*%
%TA.AperFunction,ComponentPad*%
%ADD13C,2.100000*%
%TD*%
%TA.AperFunction,ComponentPad*%
%ADD14C,1.000000*%
%TD*%
%TA.AperFunction,ViaPad*%
%ADD15C,0.800000*%
%TD*%
%TA.AperFunction,Conductor*%
%ADD16C,0.250000*%
%TD*%
%TA.AperFunction,Conductor*%
%ADD17C,1.016000*%
%TD*%
%TA.AperFunction,Conductor*%
%ADD18C,0.508000*%
%TD*%
G04 APERTURE END LIST*
D10*
%TO.P,J8,1*%
%TO.N,+3V3*%
X148437600Y-44958000D03*
D11*
%TO.P,J8,2*%
%TO.N,/UART1_TXD*%
X145897600Y-44958000D03*
%TO.P,J8,3*%
%TO.N,/UART1_RXD*%
X143357600Y-44958000D03*
%TO.P,J8,4*%
%TO.N,GND*%
X140817600Y-44958000D03*
%TO.P,J8,5*%
%TO.N,/I2C1_SCL*%
X138277600Y-44958000D03*
%TO.P,J8,6*%
%TO.N,/I2C1_SDA*%
X135737600Y-44958000D03*
%TD*%
D10*
%TO.P,J10,1*%
%TO.N,/PB10*%
X125432820Y-92933520D03*
D11*
%TO.P,J10,2*%
%TO.N,/PB11*%
X122892820Y-92933520D03*
%TO.P,J10,3*%
%TO.N,/PB15*%
X120352820Y-92933520D03*
%TO.P,J10,4*%
%TO.N,/PB14*%
X117812820Y-92933520D03*
%TO.P,J10,5*%
%TO.N,/PB13*%
X115272820Y-92933520D03*
%TO.P,J10,6*%
%TO.N,/PB12*%
X112732820Y-92933520D03*
%TO.P,J10,7*%
%TO.N,GND*%
X110192820Y-92933520D03*
%TO.P,J10,8*%
%TO.N,+5V*%
X107652820Y-92933520D03*
%TD*%
D12*
%TO.P,J1,1*%
%TO.N,/BATV6*%
X109474000Y-66167000D03*
D13*
%TO.P,J1,2*%
X109474000Y-68707000D03*
%TO.P,J1,3*%
%TO.N,GND*%
X109474000Y-71247000D03*
%TO.P,J1,4*%
X109474000Y-73787000D03*
%TD*%
D10*
%TO.P,J2,1*%
%TO.N,+3V3*%
X151356060Y-51305460D03*
D11*
%TO.P,J2,2*%
X153896060Y-51305460D03*
%TO.P,J2,3*%
%TO.N,Net-(J2-Pad3)*%
X151356060Y-53845460D03*
%TO.P,J2,4*%
%TO.N,Net-(J2-Pad4)*%
X153896060Y-53845460D03*
%TO.P,J2,5*%
%TO.N,GND*%
X151356060Y-56385460D03*
%TO.P,J2,6*%
X153896060Y-56385460D03*
%TD*%
D10*
%TO.P,J4,1*%
%TO.N,+3V3*%
X161825940Y-85877400D03*
D11*
%TO.P,J4,2*%
%TO.N,Net-(J3-Pad1)*%
X164365940Y-85877400D03*
%TD*%
D10*
%TO.P,J6,1*%
%TO.N,GND*%
X148292820Y-92964000D03*
D11*
%TO.P,J6,2*%
%TO.N,/ADC_IN9*%
X145752820Y-92964000D03*
%TO.P,J6,3*%
%TO.N,/ADC_IN8*%
X143212820Y-92964000D03*
%TO.P,J6,4*%
%TO.N,/ADC_IN7*%
X140672820Y-92964000D03*
%TO.P,J6,5*%
%TO.N,/ADC_IN6*%
X138132820Y-92964000D03*
%TO.P,J6,6*%
%TO.N,GND*%
X135592820Y-92964000D03*
%TO.P,J6,7*%
%TO.N,/DAC_OUT2*%
X133052820Y-92964000D03*
%TO.P,J6,8*%
%TO.N,/DAC_OUT1*%
X130512820Y-92964000D03*
%TD*%
D10*
%TO.P,J7,1*%
%TO.N,/NRST*%
X130566160Y-44886880D03*
D11*
%TO.P,J7,2*%
%TO.N,+3V3*%
X128026160Y-44886880D03*
%TO.P,J7,3*%
%TO.N,/PA10*%
X125486160Y-44886880D03*
%TO.P,J7,4*%
%TO.N,/PA9*%
X122946160Y-44886880D03*
%TO.P,J7,5*%
%TO.N,/PA3*%
X120406160Y-44886880D03*
%TO.P,J7,6*%
%TO.N,/PA0*%
X117866160Y-44886880D03*
%TO.P,J7,7*%
%TO.N,/PA1*%
X115326160Y-44886880D03*
%TO.P,J7,8*%
%TO.N,/PA2*%
X112786160Y-44886880D03*
%TO.P,J7,9*%
%TO.N,N/C*%
X110246160Y-44886880D03*
%TO.P,J7,10*%
%TO.N,GND*%
X107706160Y-44886880D03*
%TD*%
D10*
%TO.P,J3,1*%
%TO.N,Net-(J3-Pad1)*%
X164846000Y-91059000D03*
D11*
%TO.P,J3,2*%
%TO.N,/SWDIO*%
X162306000Y-91059000D03*
%TO.P,J3,3*%
%TO.N,/SWCLK*%
X159766000Y-91059000D03*
%TO.P,J3,4*%
%TO.N,GND*%
X157226000Y-91059000D03*
%TD*%
D10*
%TO.P,J5,1*%
%TO.N,/UART1_TXD*%
X112268000Y-55372000D03*
D11*
%TO.P,J5,2*%
%TO.N,/UART1_RXD*%
X112268000Y-52832000D03*
%TO.P,J5,3*%
%TO.N,GND*%
X112268000Y-50292000D03*
%TD*%
D14*
%TO.P,TP1,1*%
%TO.N,/DIO5*%
X165600000Y-59100000D03*
%TD*%
%TO.P,TP2,1*%
%TO.N,/DIO4*%
X165600000Y-62350000D03*
%TD*%
%TO.P,TP3,1*%
%TO.N,/DIO3*%
X168350000Y-59100000D03*
%TD*%
%TO.P,TP4,1*%
%TO.N,/DIO2*%
X168350000Y-62350000D03*
%TD*%
D15*
%TO.N,GND*%
X174482760Y-84013040D03*
X146014440Y-71996300D03*
X151020780Y-68988940D03*
X126111000Y-84963000D03*
X122936000Y-82042000D03*
X125349000Y-81280000D03*
X123571000Y-86106000D03*
X109601000Y-88265000D03*
X116034855Y-78546995D03*
X145796000Y-65405000D03*
X151257000Y-77089000D03*
X153543000Y-80391000D03*
X153289000Y-65405000D03*
X159385000Y-64357000D03*
X159386000Y-82390000D03*
X173101000Y-78327000D03*
X174116000Y-42324000D03*
X124600000Y-72100000D03*
X156600000Y-46100000D03*
X162600000Y-46100000D03*
X159600000Y-52100000D03*
X174100000Y-44600000D03*
X165100000Y-46100000D03*
X143600000Y-61100000D03*
X141612653Y-61087347D03*
X124100000Y-61600000D03*
X131600000Y-60100000D03*
X138600000Y-83600000D03*
X121100000Y-58350000D03*
X122975001Y-56225001D03*
X175724994Y-60975006D03*
%TO.N,/BATV6*%
X118100000Y-52600000D03*
%TO.N,/CLK32K0*%
X138811000Y-66040000D03*
X131100000Y-64600000D03*
%TO.N,/CLK32K1*%
X138811000Y-67310000D03*
X131100000Y-69100000D03*
%TO.N,+5V*%
X115218089Y-77626095D03*
X108839000Y-78105000D03*
%TO.N,/NRST*%
X146685000Y-71120000D03*
%TO.N,+3V3*%
X122936000Y-75819000D03*
X153543000Y-75438000D03*
X153416000Y-67310000D03*
X172593000Y-72104000D03*
X169163000Y-43721000D03*
X165600000Y-50600000D03*
X144100000Y-66100000D03*
X143100000Y-67600000D03*
X107600000Y-41600000D03*
%TO.N,+3.3VADC*%
X141328140Y-73002140D03*
X132600000Y-85100000D03*
%TO.N,/LED0*%
X132350000Y-40600000D03*
X133600000Y-49600000D03*
%TO.N,Net-(J2-Pad3)*%
X151600000Y-46600000D03*
%TO.N,Net-(J2-Pad4)*%
X157600000Y-46600000D03*
%TO.N,/SWCLK*%
X151731980Y-65613280D03*
%TO.N,/SWDIO*%
X154944088Y-68970168D03*
%TO.N,/UART1_TXD*%
X148094700Y-61191140D03*
%TO.N,/UART1_RXD*%
X147579080Y-62326520D03*
%TO.N,/I2C1_SCL*%
X145100000Y-51600000D03*
%TO.N,/I2C1_SDA*%
X144100000Y-51600000D03*
%TO.N,/PB10*%
X150931880Y-79537560D03*
%TO.N,/PB11*%
X151823420Y-78910180D03*
%TO.N,/PA10*%
X150495000Y-70612000D03*
%TO.N,/PA9*%
X150495000Y-71882000D03*
%TO.N,/PA3*%
X138689080Y-73527920D03*
%TO.N,/PA2*%
X140298280Y-75888518D03*
%TO.N,/PA1*%
X139354560Y-75112880D03*
%TO.N,/PA0*%
X140258800Y-74378820D03*
%TO.N,/ADC_IN6*%
X146829780Y-81028540D03*
X139192000Y-78994000D03*
X126850000Y-75100000D03*
%TO.N,/DAC_OUT1*%
X144447260Y-80975200D03*
%TO.N,/ADC_IN7*%
X148046440Y-81059020D03*
%TO.N,/DAC_OUT2*%
X145577560Y-81028540D03*
%TO.N,/ADC_IN8*%
X149542500Y-81079340D03*
%TO.N,/ADC_IN9*%
X150652480Y-81053940D03*
%TO.N,/DIO3*%
X172600000Y-73600000D03*
X173100000Y-76100000D03*
%TO.N,/DIO2*%
X172850000Y-66350000D03*
X170600000Y-66350000D03*
%TO.N,/BOOT1*%
X149202140Y-70032880D03*
X150611840Y-58780680D03*
%TO.N,Net-(R2-Pad2)*%
X118600000Y-55600000D03*
X118600000Y-73350000D03*
%TO.N,/RX_DONE*%
X156337000Y-71501000D03*
X172974000Y-69437000D03*
%TO.N,/RX_TIMEOUT*%
X155956000Y-70485000D03*
X172847000Y-68294000D03*
%TO.N,/NSS1*%
X151765000Y-64516000D03*
X163195000Y-60452000D03*
%TO.N,/SCK1*%
X151638000Y-63373000D03*
X158623000Y-58928000D03*
%TO.N,Net-(C1-Pad1)*%
X107600000Y-77100000D03*
X116100000Y-63600000D03*
X115100000Y-58100000D03*
%TD*%
D16*
%TO.N,/BATV6*%
X109474000Y-66167000D02*
X111033000Y-66167000D01*
X111033000Y-66167000D02*
X114100000Y-63100000D01*
X114100000Y-63100000D02*
X114100000Y-57850000D01*
X114100000Y-57850000D02*
X117100000Y-54850000D01*
X117100000Y-54850000D02*
X117100000Y-53350000D01*
X117850000Y-52600000D02*
X118100000Y-52600000D01*
X117100000Y-53350000D02*
X117850000Y-52600000D01*
%TO.N,/CLK32K0*%
X132540000Y-66040000D02*
X138811000Y-66040000D01*
X131100000Y-64600000D02*
X132540000Y-66040000D01*
%TO.N,/CLK32K1*%
X132890000Y-67310000D02*
X138811000Y-67310000D01*
X131100000Y-69100000D02*
X132890000Y-67310000D01*
D17*
%TO.N,+5V*%
X113095000Y-78105000D02*
X113573905Y-77626095D01*
X108839000Y-78105000D02*
X113095000Y-78105000D01*
X113573905Y-77626095D02*
X115218089Y-77626095D01*
D16*
%TO.N,/NRST*%
X130566160Y-44886880D02*
X130566160Y-46133840D01*
X131100000Y-57100000D02*
X130600000Y-56600000D01*
X141100000Y-61600000D02*
X136600000Y-57100000D01*
X136600000Y-57100000D02*
X131100000Y-57100000D01*
X141100000Y-69599000D02*
X141100000Y-61600000D01*
X142621000Y-71120000D02*
X141100000Y-69599000D01*
X146685000Y-71120000D02*
X142621000Y-71120000D01*
X130556000Y-44897040D02*
X130566160Y-44886880D01*
X130556000Y-56556000D02*
X130556000Y-44897040D01*
%TO.N,+3.3VADC*%
X141328140Y-81328140D02*
X141328140Y-73002140D01*
X132600000Y-85100000D02*
X139600000Y-85100000D01*
X141328140Y-83371860D02*
X141328140Y-81328140D01*
X139600000Y-85100000D02*
X141328140Y-83371860D01*
X141328140Y-81871860D02*
X141328140Y-81328140D01*
%TO.N,/LED0*%
X132350000Y-40600000D02*
X133100000Y-41350000D01*
X133100000Y-49100000D02*
X133600000Y-49600000D01*
X133100000Y-41350000D02*
X133100000Y-49100000D01*
%TO.N,Net-(J2-Pad3)*%
X151600000Y-46600000D02*
X149600000Y-48600000D01*
X149600000Y-48600000D02*
X149600000Y-53600000D01*
X149845460Y-53845460D02*
X151356060Y-53845460D01*
X149600000Y-53600000D02*
X149845460Y-53845460D01*
%TO.N,Net-(J2-Pad4)*%
X157600000Y-46600000D02*
X157100000Y-47100000D01*
X157100000Y-47100000D02*
X157100000Y-52600000D01*
X155854540Y-53845460D02*
X153896060Y-53845460D01*
X157100000Y-52600000D02*
X155854540Y-53845460D01*
%TO.N,/SWCLK*%
X156794200Y-88468200D02*
X157607000Y-89281000D01*
X154494078Y-73356318D02*
X156794200Y-75656440D01*
X154494078Y-70587718D02*
X154494078Y-73356318D01*
X159766000Y-89662000D02*
X159766000Y-91059000D01*
X159385000Y-89281000D02*
X159766000Y-89662000D01*
X152654000Y-68747640D02*
X154494078Y-70587718D01*
X152654000Y-66167000D02*
X152654000Y-68747640D01*
X156794200Y-75656440D02*
X156794200Y-88468200D01*
X152100280Y-65613280D02*
X152654000Y-66167000D01*
X157607000Y-89281000D02*
X159385000Y-89281000D01*
X151731980Y-65613280D02*
X152100280Y-65613280D01*
%TO.N,/SWDIO*%
X162306000Y-89408000D02*
X162306000Y-91059000D01*
X161290000Y-88392000D02*
X162306000Y-89408000D01*
X157988000Y-88392000D02*
X161290000Y-88392000D01*
X157350460Y-87754460D02*
X157988000Y-88392000D01*
X154944088Y-73161168D02*
X157350460Y-75567540D01*
X157350460Y-75567540D02*
X157350460Y-87754460D01*
X154944088Y-68970168D02*
X154944088Y-73161168D01*
%TO.N,Net-(J3-Pad1)*%
X164338000Y-85905340D02*
X164365940Y-85877400D01*
%TO.N,/UART1_TXD*%
X148094700Y-56375300D02*
X148094700Y-61191140D01*
X148463000Y-56007000D02*
X148094700Y-56375300D01*
X148463000Y-49530000D02*
X148463000Y-56007000D01*
X145897600Y-46964600D02*
X148463000Y-49530000D01*
X145897600Y-44958000D02*
X145897600Y-46964600D01*
%TO.N,/UART1_RXD*%
X146558000Y-48768000D02*
X144891760Y-47101760D01*
X146558000Y-61305440D02*
X146558000Y-48768000D01*
X147579080Y-62326520D02*
X146558000Y-61305440D01*
X143357600Y-44958000D02*
X143357600Y-46583600D01*
X143875760Y-47101760D02*
X144891760Y-47101760D01*
X143357600Y-46583600D02*
X143875760Y-47101760D01*
%TO.N,/I2C1_SCL*%
X144780000Y-47752000D02*
X139446000Y-47752000D01*
X138277600Y-44958000D02*
X138277600Y-46583600D01*
X138277600Y-46583600D02*
X139446000Y-47752000D01*
X145100000Y-48072000D02*
X144780000Y-47752000D01*
X145100000Y-51600000D02*
X145100000Y-48072000D01*
%TO.N,/I2C1_SDA*%
X135737600Y-46737600D02*
X135737600Y-44958000D01*
X137260000Y-48260000D02*
X135737600Y-46737600D01*
X144100000Y-49100000D02*
X143260000Y-48260000D01*
X144100000Y-51600000D02*
X144100000Y-49100000D01*
X143260000Y-48260000D02*
X137260000Y-48260000D01*
%TO.N,/PB10*%
X143100000Y-83100000D02*
X143100000Y-80600000D01*
X137515500Y-88684500D02*
X143100000Y-83100000D01*
X131579620Y-90289380D02*
X133184500Y-88684500D01*
X128076960Y-90289380D02*
X131579620Y-90289380D01*
X125432820Y-92933520D02*
X128076960Y-90289380D01*
X143100000Y-80600000D02*
X144162440Y-79537560D01*
X133184500Y-88684500D02*
X137515500Y-88684500D01*
X150931880Y-79537560D02*
X144162440Y-79537560D01*
%TO.N,/PB11*%
X151725799Y-78812559D02*
X151823420Y-78910180D01*
X144251031Y-78812559D02*
X151725799Y-78812559D01*
X142600000Y-80463590D02*
X144251031Y-78812559D01*
X142600000Y-82963590D02*
X142600000Y-80463590D01*
X137510090Y-88053500D02*
X142600000Y-82963590D01*
X133053500Y-88053500D02*
X137510090Y-88053500D01*
X126263400Y-89562940D02*
X131544060Y-89562940D01*
X131544060Y-89562940D02*
X133053500Y-88053500D01*
X122892820Y-92933520D02*
X126263400Y-89562940D01*
%TO.N,/PA10*%
X148209000Y-72898000D02*
X150495000Y-70612000D01*
X143637000Y-72898000D02*
X148209000Y-72898000D01*
X140600000Y-69861000D02*
X143637000Y-72898000D01*
X140600000Y-61736410D02*
X140600000Y-69861000D01*
X136413601Y-57550011D02*
X140600000Y-61736410D01*
X130300011Y-57550011D02*
X136413601Y-57550011D01*
X125486160Y-52736160D02*
X130300011Y-57550011D01*
X125486160Y-44886880D02*
X125486160Y-52736160D01*
%TO.N,/PA9*%
X122946160Y-44886880D02*
X122946160Y-49946160D01*
X130031794Y-58168205D02*
X136395385Y-58168205D01*
X140100000Y-61872820D02*
X140100000Y-70123000D01*
X140100000Y-70123000D02*
X143637000Y-73660000D01*
X122946160Y-51082571D02*
X130031794Y-58168205D01*
X143637000Y-73660000D02*
X148717000Y-73660000D01*
X122946160Y-44886880D02*
X122946160Y-51082571D01*
X136395385Y-58168205D02*
X140100000Y-61872820D01*
X148717000Y-73660000D02*
X150495000Y-71882000D01*
%TO.N,/PA3*%
X138648440Y-73487280D02*
X138689080Y-73527920D01*
X126832360Y-67213480D02*
X133106160Y-73487280D01*
X126832360Y-55852910D02*
X126832360Y-67213480D01*
X120406160Y-49426710D02*
X126832360Y-55852910D01*
X133106160Y-73487280D02*
X138648440Y-73487280D01*
X120406160Y-44886880D02*
X120406160Y-49426710D01*
%TO.N,/PA2*%
X115214400Y-49514760D02*
X112786160Y-47086520D01*
X125204220Y-56916320D02*
X117802660Y-49514760D01*
X137733856Y-75888518D02*
X137710058Y-75864720D01*
X125204220Y-67861180D02*
X125204220Y-56916320D01*
X140298280Y-75888518D02*
X137733856Y-75888518D01*
X137710058Y-75864720D02*
X133207760Y-75864720D01*
X117802660Y-49514760D02*
X115214400Y-49514760D01*
X133207760Y-75864720D02*
X125204220Y-67861180D01*
X112786160Y-47086520D02*
X112786160Y-44886880D01*
%TO.N,/PA1*%
X116220240Y-48910240D02*
X118005860Y-48910240D01*
X125730000Y-56634380D02*
X125730000Y-67678300D01*
X118005860Y-48910240D02*
X125730000Y-56634380D01*
X115326160Y-48016160D02*
X116220240Y-48910240D01*
X139321540Y-75145900D02*
X139354560Y-75112880D01*
X133197600Y-75145900D02*
X139321540Y-75145900D01*
X125730000Y-67678300D02*
X133197600Y-75145900D01*
X115326160Y-44886880D02*
X115326160Y-48016160D01*
%TO.N,/PA0*%
X117866160Y-47744380D02*
X117866160Y-44886880D01*
X126286260Y-67546220D02*
X126286260Y-56164480D01*
X133118860Y-74378820D02*
X126286260Y-67546220D01*
X140258800Y-74378820D02*
X133118860Y-74378820D01*
X126286260Y-56164480D02*
X117866160Y-47744380D01*
%TO.N,/ADC_IN6*%
X138132820Y-90467180D02*
X138132820Y-92964000D01*
X146829780Y-81770220D02*
X138132820Y-90467180D01*
X146829780Y-81028540D02*
X146829780Y-81770220D01*
X131064000Y-76581000D02*
X136779000Y-76581000D01*
X136779000Y-76581000D02*
X139192000Y-78994000D01*
X131064000Y-76581000D02*
X131064000Y-76564000D01*
X131064000Y-76564000D02*
X130100000Y-75600000D01*
X130556000Y-76056000D02*
X130100000Y-75600000D01*
X129600000Y-75100000D02*
X126850000Y-75100000D01*
X130100000Y-75600000D02*
X129600000Y-75100000D01*
%TO.N,/DAC_OUT1*%
X137728960Y-89347040D02*
X133283960Y-89347040D01*
X144447260Y-82628740D02*
X137728960Y-89347040D01*
X130512820Y-92118180D02*
X130512820Y-92964000D01*
X133283960Y-89347040D02*
X130512820Y-92118180D01*
X144447260Y-80975200D02*
X144447260Y-82628740D01*
%TO.N,/ADC_IN7*%
X148046440Y-81315560D02*
X140672820Y-88689180D01*
X148046440Y-81059020D02*
X148046440Y-81315560D01*
X140672820Y-92964000D02*
X140672820Y-88689180D01*
%TO.N,/DAC_OUT2*%
X145577560Y-82260440D02*
X145577560Y-81028540D01*
X137812780Y-90025220D02*
X145577560Y-82260440D01*
X136161780Y-90025220D02*
X133621780Y-90025220D01*
X136034780Y-90025220D02*
X136161780Y-90025220D01*
X136161780Y-90025220D02*
X137812780Y-90025220D01*
X133052820Y-90594180D02*
X133052820Y-92964000D01*
X133621780Y-90025220D02*
X133052820Y-90594180D01*
%TO.N,/ADC_IN8*%
X149171660Y-81079340D02*
X149542500Y-81079340D01*
X143212820Y-87038180D02*
X149171660Y-81079340D01*
X143212820Y-92964000D02*
X143212820Y-87038180D01*
%TO.N,/ADC_IN9*%
X145752820Y-92964000D02*
X145752820Y-85953600D01*
X150652480Y-81053940D02*
X145752820Y-85953600D01*
%TO.N,/DIO3*%
X172600000Y-75600000D02*
X173100000Y-76100000D01*
X172600000Y-73600000D02*
X172600000Y-75600000D01*
%TO.N,/DIO2*%
X170600000Y-66350000D02*
X172850000Y-66350000D01*
%TO.N,/BOOT1*%
X149202140Y-60190380D02*
X150611840Y-58780680D01*
X149202140Y-70032880D02*
X149202140Y-60190380D01*
%TO.N,Net-(R2-Pad2)*%
X118600000Y-55600000D02*
X118600000Y-73350000D01*
%TO.N,/RX_DONE*%
X169291000Y-69437000D02*
X172974000Y-69437000D01*
X167227000Y-71501000D02*
X167739000Y-70989000D01*
X156337000Y-71501000D02*
X167227000Y-71501000D01*
X167739000Y-70989000D02*
X169291000Y-69437000D01*
%TO.N,/RX_TIMEOUT*%
X169545000Y-68294000D02*
X172847000Y-68294000D01*
X167354000Y-70485000D02*
X167794500Y-70044500D01*
X155956000Y-70485000D02*
X167354000Y-70485000D01*
X167794500Y-70044500D02*
X169545000Y-68294000D01*
%TO.N,/NSS1*%
X151765000Y-64516000D02*
X152019000Y-64516000D01*
X156083000Y-60452000D02*
X163195000Y-60452000D01*
X152019000Y-64516000D02*
X156083000Y-60452000D01*
%TO.N,/SCK1*%
X156083000Y-58928000D02*
X158623000Y-58928000D01*
X151638000Y-63373000D02*
X156083000Y-58928000D01*
D17*
%TO.N,Net-(C1-Pad1)*%
X116100000Y-74600000D02*
X115225000Y-75475000D01*
X116100000Y-63600000D02*
X116100000Y-74600000D01*
X107600000Y-77100000D02*
X108600000Y-76100000D01*
X114600000Y-76100000D02*
X114975000Y-75725000D01*
X108600000Y-76100000D02*
X114600000Y-76100000D01*
D18*
X115225000Y-75475000D02*
X114975000Y-75725000D01*
X115100000Y-58100000D02*
X115100000Y-60600000D01*
X116100000Y-61600000D02*
X116100000Y-63600000D01*
X115100000Y-60600000D02*
X116100000Y-61600000D01*
%TD*%
M02*
